SplineFontDB: 3.2
FontName: .
FullName: .
FamilyName: .
Weight: Book
Copyright: Typeface (c) (your company). 2021. All Rights Reserved
Version: 1.000;April 12, 2024;FontCreator 15.0.0.2943 64-bit
ItalicAngle: 0
UnderlinePosition: -2092
UnderlineWidth: 150
Ascent: 1638
Descent: 410
InvalidEm: 0
sfntRevision: 0x00010000
LayerCount: 2
Layer: 0 1 "Back" 1
Layer: 1 1 "Fore" 0
XUID: [1021 846 -1136699372 11921]
StyleMap: 0x0040
FSType: 0
OS2Version: 4
OS2_WeightWidthSlopeOnly: 1
OS2_UseTypoMetrics: 0
CreationTime: 1632751415
ModificationTime: 1715790622
PfmFamily: 17
TTFWeight: 400
TTFWidth: 5
LineGap: 0
VLineGap: 0
Panose: 2 0 5 0 0 0 0 0 0 0
OS2TypoAscent: 1638
OS2TypoAOffset: 0
OS2TypoDescent: -410
OS2TypoDOffset: 0
OS2TypoLinegap: 0
OS2WinAscent: 1024
OS2WinAOffset: 0
OS2WinDescent: 40
OS2WinDOffset: 0
HheadAscent: 1024
HheadAOffset: 0
HheadDescent: -40
HheadDOffset: 0
OS2SubXSize: 1434
OS2SubYSize: 1331
OS2SubXOff: 0
OS2SubYOff: 283
OS2SupXSize: 1434
OS2SupYSize: 1331
OS2SupXOff: 0
OS2SupYOff: 977
OS2StrikeYSize: 102
OS2StrikeYPos: 530
OS2CapHeight: 1434
OS2XHeight: 1024
OS2Vendor: 'HL  '
OS2CodePages: 00000001.00000000
OS2UnicodeRanges: 00000000.10002000.00000000.00000000
DEI: 91125
ShortTable: maxp 16
  1
  0
  506
  1768
  76
  0
  0
  2
  0
  1
  1
  0
  64
  0
  0
  0
EndShort
LangName: 1033 "Typeface +AKkA (your company). 2021. All Rights Reserved" ".+AH8A" "Regular" ".+AH8A:Version 1.000" "" "Version 1.000;April 12, 2024;FontCreator 15.0.0.2943 64-bit" "" "" "" "" "This font was created using FontCreator 9.0 from High-Logic.com"
GaspTable: 1 65535 2 0
Encoding: UnicodeBmp
UnicodeInterp: none
NameList: AGL For New Fonts
DisplaySize: -48
AntiAlias: 1
FitToEm: 0
BeginChars: 65539 506

StartChar: .notdef
Encoding: 65536 -1 0
Width: 1024
GlyphClass: 1
Flags: W
LayerCount: 2
Fore
SplineSet
725 85 m 1,0,-1
 299 85 l 2,1,2
 213 85 213 85 213 171 c 2,3,-1
 213 853 l 2,4,5
 213 939 213 939 299 939 c 2,6,-1
 725 939 l 2,7,8
 811 939 811 939 811 853 c 2,9,-1
 811 171 l 2,10,11
 811 85 811 85 725 85 c 1,12,-1
 725 85 l 1,0,-1
384 256 m 1,13,-1
 299 256 l 1,14,-1
 299 171 l 1,15,-1
 384 171 l 1,16,-1
 384 256 l 1,17,-1
 384 256 l 1,13,-1
384 427 m 1,18,-1
 299 427 l 1,19,-1
 299 341 l 1,20,-1
 384 341 l 1,21,-1
 384 427 l 1,22,-1
 384 427 l 1,18,-1
384 597 m 1,23,-1
 299 597 l 1,24,-1
 299 512 l 1,25,-1
 384 512 l 1,26,-1
 384 597 l 1,27,-1
 384 597 l 1,23,-1
725 853 m 1,28,-1
 299 853 l 1,29,-1
 299 683 l 1,30,-1
 725 683 l 1,31,-1
 725 853 l 1,32,-1
 725 853 l 1,28,-1
555 256 m 1,33,-1
 469 256 l 1,34,-1
 469 171 l 1,35,-1
 555 171 l 1,36,-1
 555 256 l 1,37,-1
 555 256 l 1,33,-1
555 427 m 1,38,-1
 469 427 l 1,39,-1
 469 341 l 1,40,-1
 555 341 l 1,41,-1
 555 427 l 1,42,-1
 555 427 l 1,38,-1
555 597 m 1,43,-1
 469 597 l 1,44,-1
 469 512 l 1,45,-1
 555 512 l 1,46,-1
 555 597 l 1,47,-1
 555 597 l 1,43,-1
725 256 m 1,48,-1
 640 256 l 1,49,-1
 640 171 l 1,50,-1
 725 171 l 1,51,-1
 725 256 l 1,52,-1
 725 256 l 1,48,-1
725 427 m 1,53,-1
 640 427 l 1,54,-1
 640 341 l 1,55,-1
 725 341 l 1,56,-1
 725 427 l 1,57,-1
 725 427 l 1,53,-1
725 597 m 1,58,-1
 640 597 l 1,59,-1
 640 512 l 1,60,-1
 725 512 l 1,61,-1
 725 597 l 1,62,-1
 725 597 l 1,58,-1
EndSplineSet
EndChar

StartChar: uniE001
Encoding: 57345 57345 4
Width: 1024
VWidth: 1024
GlyphClass: 2
Flags: HW
LayerCount: 2
Fore
SplineSet
73.51953125 606.395507812 m 2,0,1
 66.560546875 622.924804688 66.560546875 622.924804688 66.560546875 632.495117188 c 0,2,3
 66.560546875 655.115234375 66.560546875 655.115234375 94.400390625 669.905273438 c 2,4,-1
 196.189453125 722.975585938 l 1,5,-1
 260.5703125 354.094726562 l 1,6,-1
 260.5703125 326.254882812 l 1,7,-1
 264.919921875 309.725585938 l 1,8,-1
 260.5703125 292.325195312 l 1,9,-1
 260.5703125 247.955078125 l 1,10,-1
 262.310546875 251.435546875 l 1,11,-1
 262.310546875 240.995117188 l 1,12,-1
 73.51953125 606.395507812 l 2,0,1
230.990234375 738.634765625 m 2,13,14
 230.119140625 741.245117188 230.119140625 741.245117188 230.119140625 751.685546875 c 0,15,16
 230.119140625 785.615234375 230.119140625 785.615234375 268.400390625 792.575195312 c 2,17,-1
 393.6796875 815.1953125 l 1,18,19
 386.720703125 802.145507812 386.720703125 802.145507812 385.849609375 785.615234375 c 2,20,-1
 363.23046875 527.225585938 l 1,21,22
 311.900390625 517.655273438 311.900390625 517.655273438 276.23046875 483.725585938 c 1,23,-1
 230.990234375 738.634765625 l 2,13,14
425.869140625 199.235351562 m 0,24,25
 354.529296875 199.235351562 354.529296875 199.235351562 297.98046875 247.955078125 c 1,26,-1
 297.98046875 292.325195312 l 1,27,28
 353.66015625 247.084960938 353.66015625 247.084960938 424.130859375 247.084960938 c 0,29,30
 440.66015625 247.084960938 440.66015625 247.084960938 445.880859375 247.955078125 c 0,31,32
 450.23046875 247.084960938 450.23046875 247.084960938 466.759765625 247.084960938 c 0,33,34
 539.83984375 247.084960938 539.83984375 247.084960938 594.650390625 296.674804688 c 1,35,-1
 594.650390625 248.825195312 l 1,36,37
 561.58984375 200.10546875 561.58984375 200.10546875 445.880859375 200.10546875 c 0,38,39
 441.529296875 199.235351562 441.529296875 199.235351562 425.869140625 199.235351562 c 0,24,25
424.130859375 277.53515625 m 0,40,41
 353.66015625 277.53515625 353.66015625 277.53515625 297.98046875 325.384765625 c 1,42,-1
 297.98046875 369.754882812 l 1,43,44
 357.140625 321.03515625 357.140625 321.03515625 427.609375 321.03515625 c 0,45,46
 441.529296875 321.03515625 441.529296875 321.03515625 445.880859375 321.905273438 c 0,47,48
 451.099609375 321.03515625 451.099609375 321.03515625 467.630859375 321.03515625 c 0,49,50
 540.7109375 321.03515625 540.7109375 321.03515625 595.51953125 370.625 c 1,51,-1
 595.51953125 326.254882812 l 1,52,53
 538.970703125 277.53515625 538.970703125 277.53515625 467.630859375 277.53515625 c 0,54,55
 451.099609375 277.53515625 451.099609375 277.53515625 445.880859375 278.405273438 c 0,56,57
 441.529296875 277.53515625 441.529296875 277.53515625 424.130859375 277.53515625 c 0,40,41
425.869140625 354.96484375 m 0,58,59
 353.66015625 354.96484375 353.66015625 354.96484375 297.98046875 402.815429688 c 1,60,-1
 297.98046875 447.185546875 l 1,61,62
 353.66015625 496.775390625 353.66015625 496.775390625 425.869140625 496.775390625 c 0,63,64
 430.220703125 496.775390625 430.220703125 496.775390625 445.880859375 495.03515625 c 0,65,66
 465.01953125 496.775390625 465.01953125 496.775390625 466.759765625 496.775390625 c 0,67,68
 541.580078125 496.775390625 541.580078125 496.775390625 594.650390625 446.315429688 c 1,69,-1
 594.650390625 404.5546875 l 1,70,71
 561.58984375 355.834960938 561.58984375 355.834960938 445.880859375 355.834960938 c 0,72,73
 441.529296875 354.96484375 441.529296875 354.96484375 425.869140625 354.96484375 c 0,58,59
427.609375 536.794921875 m 0,74,75
 423.259765625 536.794921875 423.259765625 536.794921875 400.640625 535.0546875 c 1,76,-1
 424.130859375 780.395507812 l 2,77,78
 425 824.764648438 425 824.764648438 471.109375 824.764648438 c 2,79,-1
 472.849609375 824.764648438 l 1,80,-1
 578.990234375 815.1953125 l 1,81,-1
 569.419921875 796.924804688 l 1,82,-1
 475.4609375 535.924804688 l 1,83,-1
 445.880859375 535.924804688 l 2,84,85
 441.529296875 536.794921875 441.529296875 536.794921875 427.609375 536.794921875 c 0,74,75
625.099609375 475.895507812 m 0,86,87
 578.990234375 526.35546875 578.990234375 526.35546875 512.869140625 532.4453125 c 1,88,-1
 604.220703125 785.615234375 l 2,89,90
 615.529296875 817.8046875 615.529296875 817.8046875 643.369140625 817.8046875 c 0,91,92
 649.4609375 817.8046875 649.4609375 817.8046875 664.25 813.455078125 c 2,93,-1
 925.25 717.754882812 l 2,94,95
 957.439453125 706.4453125 957.439453125 706.4453125 957.439453125 679.475585938 c 0,96,97
 957.439453125 673.384765625 957.439453125 673.384765625 953.08984375 658.594726562 c 1,98,-1
 953.08984375 656.85546875 l 1,99,-1
 811.279296875 263.615234375 l 2,100,101
 798.23046875 231.424804688 798.23046875 231.424804688 771.259765625 231.424804688 c 0,102,103
 765.169921875 231.424804688 765.169921875 231.424804688 750.380859375 235.775390625 c 2,104,-1
 632.060546875 280.145507812 l 1,105,-1
 632.060546875 296.674804688 l 1,106,-1
 628.580078125 314.9453125 l 1,107,-1
 632.060546875 331.475585938 l 1,108,-1
 632.060546875 375.844726562 l 1,109,-1
 628.580078125 392.375 l 1,110,111
 632.060546875 398.46484375 632.060546875 398.46484375 632.060546875 406.294921875 c 2,112,-1
 632.060546875 454.145507812 l 2,113,114
 632.060546875 466.325195312 632.060546875 466.325195312 625.099609375 475.895507812 c 0,86,87
625.099609375 609.875 m 0,115,116
 622.490234375 601.174804688 622.490234375 601.174804688 622.490234375 593.344726562 c 0,117,118
 622.490234375 584.645507812 622.490234375 584.645507812 625.099609375 576.815429688 c 0,119,120
 649.4609375 517.655273438 649.4609375 517.655273438 681.650390625 443.705078125 c 1,121,122
 715.580078125 459.365234375 715.580078125 459.365234375 746.029296875 473.719726562 c 128,-1,123
 776.48046875 488.075195312 776.48046875 488.075195312 793.009765625 495.469726562 c 128,-1,124
 809.541015625 502.865234375 809.541015625 502.865234375 812.150390625 504.60546875 c 0,125,126
 839.990234375 524.615234375 839.990234375 524.615234375 839.990234375 548.10546875 c 0,127,128
 839.990234375 564.634765625 839.990234375 564.634765625 826.0703125 583.775390625 c 0,129,130
 818.240234375 595.084960938 818.240234375 595.084960938 806.060546875 602.044921875 c 0,131,132
 789.529296875 609.004882812 789.529296875 609.004882812 778.220703125 609.004882812 c 0,133,134
 756.470703125 609.004882812 756.470703125 609.004882812 738.19921875 593.344726562 c 1,135,136
 731.240234375 632.495117188 731.240234375 632.495117188 694.69921875 647.28515625 c 0,137,138
 679.041015625 651.634765625 679.041015625 651.634765625 671.2109375 651.634765625 c 0,139,140
 637.279296875 651.634765625 637.279296875 651.634765625 625.099609375 609.875 c 0,115,116
EndSplineSet
EndChar

StartChar: uniE002
Encoding: 57346 57346 5
Width: 1024
VWidth: 1024
GlyphClass: 2
Flags: HW
LayerCount: 2
Fore
SplineSet
72.650390625 565.939453125 m 2,0,1
 66.560546875 569.419921875 66.560546875 569.419921875 66.560546875 574.640625 c 0,2,3
 66.560546875 578.119140625 66.560546875 578.119140625 67.4296875 578.990234375 c 2,4,-1
 197.060546875 826.0703125 l 1,5,-1
 200.541015625 830.419921875 l 1,6,-1
 210.109375 830.419921875 l 1,7,-1
 275.359375 790.400390625 l 2,8,9
 279.7109375 786.05078125 279.7109375 786.05078125 279.7109375 783.439453125 c 128,-1,10
 279.7109375 780.830078125 279.7109375 780.830078125 278.83984375 779.9609375 c 2,11,-1
 151.8203125 534.619140625 l 2,12,13
 149.2109375 531.140625 149.2109375 531.140625 144.859375 531.140625 c 128,-1,14
 140.509765625 531.140625 140.509765625 531.140625 139.640625 532.009765625 c 2,15,-1
 72.650390625 565.939453125 l 2,0,1
162.259765625 337.130859375 m 2,16,17
 147.470703125 346.69921875 147.470703125 346.69921875 147.470703125 358.880859375 c 0,18,19
 147.470703125 369.3203125 147.470703125 369.3203125 155.30078125 378.01953125 c 2,20,-1
 157.041015625 379.759765625 l 1,21,-1
 230.119140625 480.6796875 l 2,22,23
 240.560546875 495.470703125 240.560546875 495.470703125 252.740234375 495.470703125 c 0,24,25
 261.439453125 495.470703125 261.439453125 495.470703125 270.140625 487.640625 c 2,26,-1
 277.099609375 484.16015625 l 2,27,28
 291.01953125 475.4609375 291.01953125 475.4609375 291.01953125 462.41015625 c 0,29,30
 291.01953125 452.83984375 291.01953125 452.83984375 284.060546875 443.26953125 c 2,31,-1
 264.05078125 417.169921875 l 1,32,-1
 211.849609375 342.349609375 l 2,33,34
 202.279296875 326.689453125 202.279296875 326.689453125 189.23046875 326.689453125 c 0,35,36
 180.529296875 326.689453125 180.529296875 326.689453125 171.830078125 332.779296875 c 1,37,-1
 168.349609375 333.650390625 l 1,38,-1
 162.259765625 337.130859375 l 2,16,17
200.541015625 481.55078125 m 1,39,-1
 163.130859375 512.869140625 l 1,40,-1
 300.58984375 774.740234375 l 1,41,42
 317.119140625 779.9609375 317.119140625 779.9609375 336.259765625 779.9609375 c 0,43,44
 352.791015625 779.9609375 352.791015625 779.9609375 364.099609375 776.48046875 c 1,45,-1
 354.529296875 759.080078125 l 1,46,-1
 333.650390625 704.26953125 l 1,47,-1
 319.73046875 665.119140625 l 1,48,-1
 297.98046875 601.609375 l 2,49,50
 296.240234375 599.869140625 296.240234375 599.869140625 296.240234375 597.259765625 c 0,51,52
 296.240234375 589.4296875 296.240234375 589.4296875 304.939453125 585.94921875 c 1,53,-1
 309.291015625 585.94921875 l 1,54,55
 333.650390625 576.380859375 333.650390625 576.380859375 352.791015625 576.380859375 c 0,56,57
 372.80078125 576.380859375 372.80078125 576.380859375 388.4609375 582.470703125 c 0,58,59
 427.609375 596.390625 427.609375 596.390625 446.75 635.541015625 c 0,60,61
 453.7109375 652.939453125 453.7109375 652.939453125 455.44921875 669.470703125 c 0,62,63
 462.41015625 706.009765625 462.41015625 706.009765625 485.900390625 707.75 c 0,64,65
 524.1796875 707.75 524.1796875 707.75 548.541015625 680.779296875 c 2,66,-1
 736.4609375 496.33984375 l 1,67,-1
 835.640625 410.2109375 l 2,68,69
 846.94921875 401.509765625 846.94921875 401.509765625 849.560546875 385.849609375 c 2,70,-1
 849.560546875 383.240234375 l 2,71,72
 849.560546875 371.060546875 849.560546875 371.060546875 839.990234375 358.880859375 c 0,73,74
 826.939453125 343.220703125 826.939453125 343.220703125 813.01953125 343.220703125 c 128,-1,75
 799.099609375 343.220703125 799.099609375 343.220703125 787.791015625 354.529296875 c 2,76,-1
 760.8203125 379.759765625 l 1,77,-1
 692.08984375 438.05078125 l 2,78,79
 687.740234375 443.26953125 687.740234375 443.26953125 682.51953125 443.26953125 c 0,80,81
 678.169921875 443.26953125 678.169921875 443.26953125 672.94921875 438.05078125 c 0,82,83
 669.470703125 434.5703125 669.470703125 434.5703125 669.470703125 429.349609375 c 128,-1,84
 669.470703125 424.130859375 669.470703125 424.130859375 672.94921875 420.650390625 c 2,85,-1
 743.419921875 359.75 l 2,86,87
 754.73046875 348.439453125 754.73046875 348.439453125 754.73046875 333.650390625 c 0,88,89
 754.73046875 321.470703125 754.73046875 321.470703125 739.939453125 306.6796875 c 0,90,91
 727.759765625 296.240234375 727.759765625 296.240234375 715.580078125 296.240234375 c 0,92,93
 704.26953125 296.240234375 704.26953125 296.240234375 692.9609375 304.939453125 c 2,94,-1
 671.2109375 324.94921875 l 1,95,-1
 622.490234375 368.44921875 l 2,96,97
 617.26953125 371.060546875 617.26953125 371.060546875 612.919921875 371.060546875 c 0,98,99
 606.830078125 371.060546875 606.830078125 371.060546875 603.349609375 364.970703125 c 0,100,101
 600.740234375 360.619140625 600.740234375 360.619140625 600.740234375 358.009765625 c 0,102,103
 600.740234375 351.919921875 600.740234375 351.919921875 604.220703125 348.439453125 c 2,104,-1
 654.6796875 306.6796875 l 2,105,106
 669.470703125 294.5 669.470703125 294.5 669.470703125 280.580078125 c 0,107,108
 669.470703125 268.400390625 669.470703125 268.400390625 659.029296875 256.220703125 c 0,109,110
 644.240234375 240.560546875 644.240234375 240.560546875 630.3203125 240.560546875 c 0,111,112
 618.140625 240.560546875 618.140625 240.560546875 606.830078125 251 c 2,113,-1
 556.369140625 295.369140625 l 2,114,115
 552.01953125 299.720703125 552.01953125 299.720703125 547.669921875 299.720703125 c 0,116,117
 541.580078125 299.720703125 541.580078125 299.720703125 538.099609375 293.630859375 c 0,118,119
 533.75 289.279296875 533.75 289.279296875 533.75 284.9296875 c 0,120,121
 533.75 278.83984375 533.75 278.83984375 539.83984375 275.359375 c 2,122,-1
 555.5 262.310546875 l 1,123,-1
 566.810546875 252.740234375 l 2,124,125
 582.470703125 240.560546875 582.470703125 240.560546875 582.470703125 225.76953125 c 0,126,127
 582.470703125 214.4609375 582.470703125 214.4609375 572.029296875 201.41015625 c 0,128,129
 558.98046875 185.75 558.98046875 185.75 544.189453125 185.75 c 0,130,131
 532.880859375 185.75 532.880859375 185.75 520.69921875 196.189453125 c 2,132,-1
 487.640625 222.291015625 l 1,133,134
 491.119140625 230.119140625 491.119140625 230.119140625 491.119140625 241.4296875 c 0,135,136
 491.119140625 266.66015625 491.119140625 266.66015625 467.630859375 284.060546875 c 2,137,-1
 460.669921875 289.279296875 l 2,138,139
 446.75 297.98046875 446.75 297.98046875 428.48046875 299.720703125 c 1,140,141
 431.9609375 307.55078125 431.9609375 307.55078125 431.9609375 317.990234375 c 0,142,143
 431.9609375 343.220703125 431.9609375 343.220703125 409.33984375 358.880859375 c 2,144,-1
 402.380859375 364.099609375 l 2,145,146
 387.58984375 373.669921875 387.58984375 373.669921875 370.189453125 373.669921875 c 1,147,-1
 370.189453125 379.759765625 l 2,148,149
 370.189453125 406.73046875 370.189453125 406.73046875 347.5703125 424.130859375 c 2,150,-1
 341.48046875 428.48046875 l 2,151,152
 327.560546875 437.1796875 327.560546875 437.1796875 311.029296875 438.919921875 c 1,153,154
 316.25 451.970703125 316.25 451.970703125 316.25 462.41015625 c 0,155,156
 316.25 485.900390625 316.25 485.900390625 292.759765625 503.30078125 c 2,157,-1
 285.80078125 507.650390625 l 2,158,159
 269.26953125 521.5703125 269.26953125 521.5703125 251 521.5703125 c 0,160,161
 227.509765625 521.5703125 227.509765625 521.5703125 209.240234375 495.470703125 c 2,162,-1
 200.541015625 481.55078125 l 1,39,-1
239.689453125 285.80078125 m 2,163,164
 225.76953125 294.5 225.76953125 294.5 225.76953125 307.55078125 c 0,165,166
 225.76953125 316.25 225.76953125 316.25 232.73046875 325.8203125 c 1,167,-1
 232.73046875 326.689453125 l 1,168,-1
 288.41015625 401.509765625 l 2,169,170
 297.98046875 413.689453125 297.98046875 413.689453125 310.16015625 413.689453125 c 0,171,172
 318.859375 413.689453125 318.859375 413.689453125 327.560546875 407.599609375 c 2,173,-1
 333.650390625 404.119140625 l 2,174,175
 348.439453125 394.55078125 348.439453125 394.55078125 348.439453125 381.5 c 0,176,177
 348.439453125 373.669921875 348.439453125 373.669921875 341.48046875 364.099609375 c 2,178,-1
 285.80078125 289.279296875 l 2,179,180
 275.359375 275.359375 275.359375 275.359375 263.1796875 275.359375 c 0,181,182
 254.48046875 275.359375 254.48046875 275.359375 245.779296875 281.44921875 c 2,183,-1
 239.689453125 285.80078125 l 2,163,164
311.900390625 232.73046875 m 2,184,185
 298.849609375 243.169921875 298.849609375 243.169921875 298.849609375 254.48046875 c 0,186,187
 298.849609375 264.05078125 298.849609375 264.05078125 304.939453125 272.75 c 2,188,-1
 305.810546875 273.619140625 l 1,189,-1
 344.08984375 325.8203125 l 2,190,191
 354.529296875 338.869140625 354.529296875 338.869140625 366.7109375 338.869140625 c 0,192,193
 375.41015625 338.869140625 375.41015625 338.869140625 384.98046875 331.91015625 c 2,194,-1
 391.0703125 327.560546875 l 2,195,196
 404.990234375 318.859375 404.990234375 318.859375 404.990234375 306.6796875 c 0,197,198
 404.990234375 298.849609375 404.990234375 298.849609375 397.16015625 288.41015625 c 2,199,-1
 358.880859375 235.33984375 l 2,200,201
 350.1796875 221.419921875 350.1796875 221.419921875 337.130859375 221.419921875 c 0,202,203
 330.169921875 221.419921875 330.169921875 221.419921875 317.990234375 228.380859375 c 2,204,-1
 311.900390625 232.73046875 l 2,184,185
352.791015625 600.740234375 m 0,205,206
 341.48046875 600.740234375 341.48046875 600.740234375 325.8203125 605.08984375 c 1,207,-1
 343.220703125 658.16015625 l 1,208,-1
 358.009765625 695.5703125 l 1,209,-1
 378.890625 746.029296875 l 1,210,211
 410.2109375 806.9296875 410.2109375 806.9296875 498.080078125 814.759765625 c 0,212,213
 527.66015625 817.369140625 527.66015625 817.369140625 558.109375 817.369140625 c 0,214,215
 643.369140625 817.369140625 643.369140625 817.369140625 720.80078125 798.23046875 c 1,216,-1
 857.390625 508.51953125 l 1,217,218
 845.2109375 478.0703125 845.2109375 478.0703125 813.890625 464.150390625 c 1,219,-1
 754.73046875 512.869140625 l 1,220,-1
 566.810546875 700.791015625 l 1,221,-1
 558.98046875 706.880859375 l 1,222,-1
 547.669921875 714.7109375 l 2,223,224
 527.66015625 727.759765625 527.66015625 727.759765625 512.869140625 732.109375 c 0,225,226
 503.30078125 735.58984375 503.30078125 735.58984375 490.25 735.58984375 c 0,227,228
 458.060546875 735.58984375 458.060546875 735.58984375 439.791015625 702.529296875 c 0,229,230
 431.08984375 684.259765625 431.08984375 684.259765625 428.48046875 669.470703125 c 0,231,232
 425.869140625 632.9296875 425.869140625 632.9296875 395.419921875 612.919921875 c 0,233,234
 372.80078125 600.740234375 372.80078125 600.740234375 352.791015625 600.740234375 c 0,205,206
385.849609375 179.66015625 m 2,235,236
 371.9296875 188.359375 371.9296875 188.359375 371.9296875 200.541015625 c 0,237,238
 371.9296875 210.109375 371.9296875 210.109375 378.890625 219.6796875 c 2,239,-1
 401.509765625 251.869140625 l 2,240,241
 411.94921875 264.919921875 411.94921875 264.919921875 425 264.919921875 c 0,242,243
 433.69921875 264.919921875 433.69921875 264.919921875 442.400390625 258.830078125 c 2,244,-1
 449.359375 254.48046875 l 2,245,246
 463.279296875 244.041015625 463.279296875 244.041015625 463.279296875 232.73046875 c 0,247,248
 463.279296875 223.16015625 463.279296875 223.16015625 455.44921875 214.4609375 c 2,249,-1
 432.830078125 182.26953125 l 2,250,251
 422.390625 168.349609375 422.390625 168.349609375 410.2109375 168.349609375 c 0,252,253
 403.25 168.349609375 403.25 168.349609375 391.0703125 175.310546875 c 2,254,-1
 385.849609375 179.66015625 l 2,235,236
743.419921875 804.3203125 m 1,255,-1
 741.6796875 809.541015625 l 2,256,257
 741.6796875 813.01953125 741.6796875 813.01953125 746.029296875 814.759765625 c 1,258,-1
 746.029296875 816.5 l 1,259,-1
 812.150390625 855.650390625 l 1,260,-1
 819.109375 855.650390625 l 1,261,-1
 824.330078125 851.30078125 l 1,262,-1
 956.5703125 577.25 l 2,263,264
 957.439453125 576.380859375 957.439453125 576.380859375 957.439453125 573.76953125 c 0,265,266
 957.439453125 569.419921875 957.439453125 569.419921875 952.220703125 565.939453125 c 2,267,-1
 885.23046875 528.529296875 l 2,268,269
 884.359375 527.66015625 884.359375 527.66015625 880.009765625 527.66015625 c 0,270,271
 878.26953125 527.66015625 878.26953125 527.66015625 873.919921875 532.009765625 c 2,272,-1
 743.419921875 804.3203125 l 1,255,-1
EndSplineSet
EndChar

StartChar: uniE003
Encoding: 57347 57347 6
Width: 1024
VWidth: 1024
GlyphClass: 2
Flags: HW
LayerCount: 2
Fore
SplineSet
190.032226562 329.134765625 m 2,0,1
 135.850585938 329.134765625 135.850585938 329.134765625 135.850585938 384.359375 c 2,2,-1
 135.850585938 613.591796875 l 2,3,4
 135.850585938 636.513671875 135.850585938 636.513671875 151.479492188 652.14453125 c 128,-1,5
 167.109375 667.7734375 167.109375 667.7734375 187.948242188 667.7734375 c 2,6,-1
 191.07421875 667.7734375 l 2,7,8
 245.256835938 667.7734375 245.256835938 667.7734375 245.256835938 613.591796875 c 2,9,-1
 245.256835938 384.359375 l 2,10,11
 245.256835938 361.435546875 245.256835938 361.435546875 229.626953125 344.763671875 c 0,12,13
 215.040039062 329.134765625 215.040039062 329.134765625 194.200195312 329.134765625 c 2,14,-1
 190.032226562 329.134765625 l 2,0,1
758.9453125 677.150390625 m 1,15,-1
 265.053710938 677.150390625 l 1,16,-1
 265.053710938 681.318359375 l 2,17,18
 265.053710938 740.7109375 265.053710938 740.7109375 298.396484375 792.80859375 c 0,19,20
 333.823242188 844.908203125 333.823242188 844.908203125 391.131835938 875.125 c 1,21,-1
 352.579101562 944.935546875 l 1,22,-1
 351.537109375 947.01953125 l 1,23,-1
 351.537109375 950.146484375 l 2,24,25
 351.537109375 955.35546875 351.537109375 955.35546875 355.705078125 956.3984375 c 2,26,-1
 359.873046875 956.3984375 l 2,27,28
 364.041015625 956.3984375 364.041015625 956.3984375 366.125 951.1875 c 2,29,-1
 404.677734375 882.41796875 l 1,30,31
 456.775390625 905.341796875 456.775390625 905.341796875 512 905.341796875 c 0,32,33
 569.307617188 905.341796875 569.307617188 905.341796875 619.322265625 882.41796875 c 1,34,-1
 657.875 952.23046875 l 1,35,-1
 657.875 953.271484375 l 2,36,37
 661.000976562 957.439453125 661.000976562 957.439453125 664.126953125 957.439453125 c 128,-1,38
 667.252929688 957.439453125 667.252929688 957.439453125 668.294921875 956.3984375 c 2,39,-1
 671.419921875 954.314453125 l 2,40,41
 674.545898438 953.271484375 674.545898438 953.271484375 674.545898438 949.103515625 c 0,42,43
 674.545898438 947.01953125 674.545898438 947.01953125 671.419921875 944.935546875 c 2,44,-1
 632.8671875 874.08203125 l 1,45,46
 690.17578125 845.94921875 690.17578125 845.94921875 724.560546875 792.80859375 c 128,-1,47
 758.9453125 739.669921875 758.9453125 739.669921875 758.9453125 677.150390625 c 1,15,-1
283.809570312 260.365234375 m 0,48,49
 266.095703125 278.078125 266.095703125 278.078125 266.095703125 302.04296875 c 2,50,-1
 267.137695312 659.4375 l 1,51,-1
 756.861328125 659.4375 l 1,52,-1
 756.861328125 303.0859375 l 2,53,54
 756.861328125 279.12109375 756.861328125 279.12109375 739.1484375 261.40625 c 0,55,56
 723.518554688 244.736328125 723.518554688 244.736328125 700.595703125 244.736328125 c 2,57,-1
 657.875 244.736328125 l 1,58,-1
 657.875 119.69921875 l 2,59,60
 657.875 98.861328125 657.875 98.861328125 642.245117188 84.2734375 c 0,61,62
 624.532226562 68.64453125 624.532226562 68.64453125 603.692382812 68.64453125 c 0,63,64
 548.46875 68.64453125 548.46875 68.64453125 548.46875 122.826171875 c 2,65,-1
 548.46875 244.736328125 l 1,66,-1
 474.489257812 244.736328125 l 1,67,-1
 474.489257812 120.7421875 l 2,68,69
 473.447265625 66.560546875 473.447265625 66.560546875 419.264648438 66.560546875 c 0,70,71
 396.341796875 66.560546875 396.341796875 66.560546875 380.711914062 83.23046875 c 0,72,73
 365.083007812 96.77734375 365.083007812 96.77734375 365.083007812 118.658203125 c 2,74,-1
 365.083007812 243.693359375 l 1,75,-1
 323.404296875 243.693359375 l 2,76,77
 300.48046875 243.693359375 300.48046875 243.693359375 283.809570312 260.365234375 c 0,48,49
399.467773438 808.439453125 m 0,78,79
 378.627929688 808.439453125 378.627929688 808.439453125 378.627929688 787.599609375 c 0,80,81
 378.627929688 765.71875 378.627929688 765.71875 399.467773438 765.71875 c 0,82,83
 407.802734375 765.71875 407.802734375 765.71875 414.0546875 771.970703125 c 1,84,-1
 414.0546875 773.01171875 l 1,85,86
 421.348632812 780.3046875 421.348632812 780.3046875 421.348632812 787.599609375 c 128,-1,87
 421.348632812 794.892578125 421.348632812 794.892578125 414.0546875 802.1875 c 0,88,89
 407.802734375 808.439453125 407.802734375 808.439453125 399.467773438 808.439453125 c 0,78,79
609.944335938 801.14453125 m 1,90,91
 602.650390625 793.8515625 602.650390625 793.8515625 602.650390625 786.556640625 c 128,-1,92
 602.650390625 779.263671875 602.650390625 779.263671875 609.944335938 771.970703125 c 0,93,94
 616.196289062 765.71875 616.196289062 765.71875 624.532226562 765.71875 c 0,95,96
 632.8671875 767.802734375 632.8671875 767.802734375 639.119140625 771.970703125 c 0,97,98
 645.37109375 778.22265625 645.37109375 778.22265625 645.37109375 786.556640625 c 0,99,100
 645.37109375 806.35546875 645.37109375 806.35546875 624.532226562 808.439453125 c 0,101,102
 616.196289062 808.439453125 616.196289062 808.439453125 609.944335938 802.1875 c 1,103,-1
 609.944335938 801.14453125 l 1,90,91
794.372070312 344.763671875 m 0,104,105
 778.743164062 360.39453125 778.743164062 360.39453125 778.743164062 384.359375 c 2,106,-1
 778.743164062 613.591796875 l 2,107,108
 778.743164062 636.513671875 778.743164062 636.513671875 794.372070312 652.14453125 c 0,109,110
 812.0859375 667.7734375 812.0859375 667.7734375 832.924804688 667.7734375 c 2,111,-1
 836.05078125 667.7734375 l 2,112,113
 856.889648438 667.7734375 856.889648438 667.7734375 872.51953125 652.14453125 c 128,-1,114
 888.149414062 636.513671875 888.149414062 636.513671875 888.149414062 613.591796875 c 2,115,-1
 888.149414062 383.31640625 l 2,116,117
 887.107421875 329.134765625 887.107421875 329.134765625 835.008789062 329.134765625 c 2,118,-1
 829.798828125 329.134765625 l 2,119,120
 807.91796875 329.134765625 807.91796875 329.134765625 794.372070312 344.763671875 c 0,104,105
EndSplineSet
EndChar

StartChar: uniE004
Encoding: 57348 57348 7
Width: 1024
VWidth: 1024
GlyphClass: 2
Flags: HW
LayerCount: 2
Fore
SplineSet
81.130859375 328.828125 m 0,0,1
 66.560546875 334.032226562 66.560546875 334.032226562 66.560546875 345.48046875 c 0,2,3
 66.560546875 350.68359375 66.560546875 350.68359375 67.6015625 352.765625 c 2,4,-1
 115.474609375 530.733398438 l 2,5,6
 117.556640625 538.018554688 117.556640625 538.018554688 123.80078125 542.181640625 c 2,7,-1
 273.66796875 650.418945312 l 2,8,9
 277.83203125 654.58203125 277.83203125 654.58203125 285.1171875 654.58203125 c 0,10,11
 289.279296875 654.58203125 289.279296875 654.58203125 290.3203125 653.541992188 c 2,12,-1
 291.361328125 653.541992188 l 1,13,14
 305.931640625 648.337890625 305.931640625 648.337890625 305.931640625 635.848632812 c 0,15,16
 305.931640625 630.645507812 305.931640625 630.645507812 304.890625 628.563476562 c 2,17,-1
 294.484375 574.444335938 l 1,18,-1
 266.3828125 441.229492188 l 2,19,20
 265.34375 433.943359375 265.34375 433.943359375 258.056640625 428.740234375 c 2,21,-1
 157.10546875 366.294921875 l 1,22,-1
 96.7421875 330.91015625 l 2,23,24
 91.537109375 327.787109375 91.537109375 327.787109375 87.375 327.787109375 c 0,25,26
 82.171875 327.787109375 82.171875 327.787109375 81.130859375 328.828125 c 0,0,1
81.130859375 267.423828125 m 2,27,28
 76.966796875 271.586914062 76.966796875 271.586914062 76.966796875 279.913085938 c 0,29,30
 76.966796875 289.280273438 76.966796875 289.280273438 88.416015625 295.524414062 c 2,31,-1
 160.2265625 340.276367188 l 1,32,-1
 264.302734375 403.76171875 l 2,33,34
 270.546875 406.884765625 270.546875 406.884765625 275.75 406.884765625 c 128,-1,35
 280.953125 406.884765625 280.953125 406.884765625 286.158203125 403.76171875 c 2,36,-1
 512 249.731445312 l 1,37,-1
 519.28515625 242.446289062 l 1,38,39
 521.3671875 234.120117188 521.3671875 234.120117188 521.3671875 233.079101562 c 0,40,41
 521.3671875 220.590820312 521.3671875 220.590820312 508.876953125 216.427734375 c 2,42,-1
 321.54296875 131.0859375 l 2,43,44
 313.216796875 129.004882812 313.216796875 129.004882812 312.17578125 129.004882812 c 128,-1,45
 311.134765625 129.004882812 311.134765625 129.004882812 302.810546875 131.0859375 c 2,46,-1
 88.416015625 261.1796875 l 1,47,-1
 81.130859375 267.423828125 l 2,27,28
112.353515625 270.546875 m 2,48,-1
 112.353515625 267.423828125 l 2,49,50
 112.353515625 249.731445312 112.353515625 249.731445312 148.779296875 243.487304688 c 0,51,52
 152.94140625 242.446289062 152.94140625 242.446289062 165.431640625 242.446289062 c 0,53,54
 191.44921875 242.446289062 191.44921875 242.446289062 193.53125 258.057617188 c 2,55,-1
 193.53125 261.1796875 l 2,56,57
 193.53125 278.872070312 193.53125 278.872070312 157.10546875 285.1171875 c 0,58,59
 152.94140625 286.157226562 152.94140625 286.157226562 140.453125 286.157226562 c 0,60,61
 114.43359375 286.157226562 114.43359375 286.157226562 112.353515625 270.546875 c 2,48,-1
127.96484375 528.651367188 m 0,62,63
 116.515625 510.958984375 116.515625 510.958984375 116.515625 501.592773438 c 0,64,65
 116.515625 494.307617188 116.515625 494.307617188 121.71875 491.184570312 c 0,66,67
 122.759765625 490.14453125 122.759765625 490.14453125 126.923828125 490.14453125 c 0,68,69
 138.37109375 490.14453125 138.37109375 490.14453125 153.982421875 512 c 0,70,71
 165.431640625 529.692382812 165.431640625 529.692382812 165.431640625 539.059570312 c 0,72,73
 165.431640625 545.303710938 165.431640625 545.303710938 160.2265625 548.42578125 c 2,74,-1
 153.982421875 550.5078125 l 2,75,76
 141.494140625 550.5078125 141.494140625 550.5078125 127.96484375 528.651367188 c 0,62,63
170.634765625 502.6328125 m 0,77,78
 158.146484375 483.899414062 158.146484375 483.899414062 158.146484375 472.451171875 c 0,79,80
 158.146484375 467.248046875 158.146484375 467.248046875 163.349609375 462.043945312 c 0,81,82
 169.59375 459.962890625 169.59375 459.962890625 170.634765625 459.962890625 c 0,83,84
 181.04296875 459.962890625 181.04296875 459.962890625 198.734375 483.899414062 c 0,85,86
 211.224609375 502.6328125 211.224609375 502.6328125 211.224609375 513.041015625 c 0,87,88
 211.224609375 519.28515625 211.224609375 519.28515625 206.01953125 524.489257812 c 0,89,90
 199.775390625 526.5703125 199.775390625 526.5703125 198.734375 526.5703125 c 0,91,92
 186.24609375 526.5703125 186.24609375 526.5703125 170.634765625 502.6328125 c 0,77,78
217.46875 469.329101562 m 0,93,94
 203.939453125 449.5546875 203.939453125 449.5546875 203.939453125 438.106445312 c 0,95,96
 203.939453125 430.821289062 203.939453125 430.821289062 209.142578125 427.69921875 c 0,97,98
 215.38671875 425.618164062 215.38671875 425.618164062 216.427734375 425.618164062 c 0,99,100
 227.875 425.618164062 227.875 425.618164062 245.568359375 449.5546875 c 0,101,102
 259.09765625 469.329101562 259.09765625 469.329101562 259.09765625 480.77734375 c 0,103,104
 259.09765625 487.021484375 259.09765625 487.021484375 253.89453125 492.225585938 c 0,105,106
 247.650390625 494.307617188 247.650390625 494.307617188 246.609375 494.307617188 c 0,107,108
 235.16015625 494.307617188 235.16015625 494.307617188 217.46875 469.329101562 c 0,93,94
245.568359375 344.439453125 m 2,109,-1
 245.568359375 341.317382812 l 2,110,111
 245.568359375 323.625 245.568359375 323.625 284.076171875 316.338867188 c 0,112,113
 288.240234375 316.338867188 288.240234375 316.338867188 292.40234375 315.819335938 c 128,-1,114
 296.564453125 315.298828125 296.564453125 315.298828125 298.646484375 314.778320312 c 128,-1,115
 300.728515625 314.2578125 300.728515625 314.2578125 301.76953125 314.2578125 c 0,116,117
 326.74609375 314.2578125 326.74609375 314.2578125 327.787109375 330.91015625 c 2,118,-1
 327.787109375 335.072265625 l 2,119,120
 327.787109375 354.846679688 327.787109375 354.846679688 290.3203125 359.009765625 c 0,121,122
 287.19921875 360.05078125 287.19921875 360.05078125 277.83203125 360.05078125 c 0,123,124
 266.3828125 360.05078125 266.3828125 360.05078125 259.09765625 356.928710938 c 0,125,126
 245.568359375 352.765625 245.568359375 352.765625 245.568359375 344.439453125 c 2,109,-1
252.853515625 254.935546875 m 1,127,-1
 252.853515625 252.853515625 l 2,128,129
 252.853515625 244.52734375 252.853515625 244.52734375 262.220703125 237.2421875 c 0,130,131
 274.708984375 227.875976562 274.708984375 227.875976562 290.3203125 227.875976562 c 0,132,133
 332.9921875 227.875976562 332.9921875 227.875976562 336.11328125 243.487304688 c 2,134,-1
 336.11328125 246.609375 l 2,135,136
 336.11328125 264.301757812 336.11328125 264.301757812 298.646484375 270.546875 c 0,137,138
 295.525390625 271.586914062 295.525390625 271.586914062 283.03515625 271.586914062 c 0,139,140
 254.935546875 271.586914062 254.935546875 271.586914062 254.935546875 254.935546875 c 1,141,-1
 252.853515625 254.935546875 l 1,127,-1
266.3828125 178.9609375 m 2,142,-1
 266.3828125 174.797851562 l 2,143,144
 266.3828125 159.186523438 266.3828125 159.186523438 298.646484375 155.0234375 c 0,145,146
 302.810546875 153.982421875 302.810546875 153.982421875 315.298828125 153.982421875 c 0,147,148
 337.154296875 153.982421875 337.154296875 153.982421875 338.1953125 167.512695312 c 2,149,-1
 338.1953125 169.59375 l 2,150,151
 338.1953125 187.286132812 338.1953125 187.286132812 304.890625 192.490234375 c 0,152,153
 301.76953125 193.53125 301.76953125 193.53125 291.361328125 193.53125 c 0,154,155
 268.46484375 193.53125 268.46484375 193.53125 266.3828125 178.9609375 c 2,142,-1
299.6875 423.536132812 m 2,156,157
 291.361328125 429.78125 291.361328125 429.78125 291.361328125 440.188476562 c 2,158,-1
 291.361328125 444.3515625 l 1,159,-1
 315.298828125 561.956054688 l 1,160,-1
 334.03125 654.58203125 l 1,161,-1
 338.1953125 662.908203125 l 2,162,163
 346.521484375 671.234375 346.521484375 671.234375 352.765625 671.234375 c 0,164,165
 357.96875 671.234375 357.96875 671.234375 366.294921875 666.030273438 c 2,166,-1
 449.5546875 600.463867188 l 1,167,-1
 464.125 587.974609375 l 1,168,-1
 484.94140625 572.36328125 l 1,169,-1
 558.833984375 514.081054688 l 2,170,171
 566.119140625 507.836914062 566.119140625 507.836914062 566.119140625 497.4296875 c 2,172,-1
 562.99609375 423.536132812 l 1,173,-1
 556.751953125 285.1171875 l 1,174,-1
 552.58984375 274.708984375 l 2,175,176
 546.34375 265.342773438 546.34375 265.342773438 538.01953125 265.342773438 c 0,177,178
 532.814453125 265.342773438 532.814453125 265.342773438 524.48828125 270.546875 c 2,179,-1
 299.6875 423.536132812 l 2,156,157
342.357421875 476.614257812 m 0,180,181
 336.11328125 471.411132812 336.11328125 471.411132812 336.11328125 464.125 c 0,182,183
 336.11328125 452.676757812 336.11328125 452.676757812 347.5625 434.984375 c 0,184,185
 361.091796875 413.12890625 361.091796875 413.12890625 374.62109375 413.12890625 c 0,186,187
 380.865234375 413.12890625 380.865234375 413.12890625 385.029296875 417.291992188 c 0,188,189
 391.2734375 421.455078125 391.2734375 421.455078125 391.2734375 430.821289062 c 0,190,191
 391.2734375 441.229492188 391.2734375 441.229492188 379.82421875 458.921875 c 0,192,193
 366.294921875 480.77734375 366.294921875 480.77734375 352.765625 480.77734375 c 0,194,195
 346.521484375 480.77734375 346.521484375 480.77734375 342.357421875 476.614257812 c 0,180,181
362.1328125 634.807617188 m 0,196,197
 355.888671875 629.604492188 355.888671875 629.604492188 355.888671875 621.278320312 c 0,198,199
 355.888671875 610.87109375 355.888671875 610.87109375 367.3359375 593.177734375 c 0,200,201
 380.865234375 571.322265625 380.865234375 571.322265625 395.435546875 571.322265625 c 0,202,203
 401.681640625 571.322265625 401.681640625 571.322265625 405.84375 575.485351562 c 0,204,205
 412.087890625 579.6484375 412.087890625 579.6484375 412.087890625 589.015625 c 0,206,207
 412.087890625 599.422851562 412.087890625 599.422851562 400.640625 617.115234375 c 0,208,209
 387.109375 638.970703125 387.109375 638.970703125 372.5390625 638.970703125 c 0,210,211
 366.294921875 638.970703125 366.294921875 638.970703125 362.1328125 634.807617188 c 0,196,197
402.720703125 243.487304688 m 2,212,-1
 402.720703125 240.364257812 l 2,213,214
 402.720703125 223.712890625 402.720703125 223.712890625 439.1484375 217.467773438 c 1,215,-1
 439.1484375 216.427734375 l 2,216,217
 442.26953125 215.38671875 442.26953125 215.38671875 454.759765625 215.38671875 c 0,218,219
 482.859375 215.38671875 482.859375 215.38671875 483.900390625 230.998046875 c 2,220,-1
 483.900390625 234.120117188 l 2,221,222
 483.900390625 251.8125 483.900390625 251.8125 446.43359375 258.057617188 c 0,223,224
 442.26953125 259.098632812 442.26953125 259.098632812 429.78125 259.098632812 c 0,225,226
 403.76171875 259.098632812 403.76171875 259.098632812 402.720703125 243.487304688 c 2,212,-1
417.291015625 420.4140625 m 0,227,228
 410.005859375 416.250976562 410.005859375 416.250976562 410.005859375 406.884765625 c 0,229,230
 410.005859375 396.4765625 410.005859375 396.4765625 421.455078125 378.784179688 c 0,231,232
 434.984375 356.928710938 434.984375 356.928710938 449.5546875 356.928710938 c 0,233,234
 455.798828125 356.928710938 455.798828125 356.928710938 459.962890625 361.091796875 c 1,235,-1
 459.962890625 357.96875 l 1,236,237
 466.20703125 364.213867188 466.20703125 364.213867188 466.20703125 373.580078125 c 0,238,239
 466.20703125 385.028320312 466.20703125 385.028320312 454.759765625 402.721679688 c 0,240,241
 441.228515625 424.577148438 441.228515625 424.577148438 427.69921875 424.577148438 c 0,242,243
 421.455078125 424.577148438 421.455078125 424.577148438 417.291015625 420.4140625 c 0,227,228
432.90234375 579.6484375 m 1,244,245
 426.658203125 575.485351562 426.658203125 575.485351562 426.658203125 566.119140625 c 0,246,247
 426.658203125 554.670898438 426.658203125 554.670898438 436.025390625 541.140625 c 1,248,-1
 436.025390625 538.018554688 l 1,249,250
 449.5546875 516.163085938 449.5546875 516.163085938 464.125 516.163085938 c 0,251,252
 470.369140625 516.163085938 470.369140625 516.163085938 474.533203125 520.326171875 c 0,253,254
 481.818359375 524.489257812 481.818359375 524.489257812 481.818359375 533.85546875 c 0,255,256
 481.818359375 544.262695312 481.818359375 544.262695312 469.330078125 561.956054688 c 0,257,258
 461.00390625 573.404296875 461.00390625 573.404296875 448.513671875 577.567382812 c 1,259,-1
 432.90234375 577.567382812 l 1,260,-1
 432.90234375 579.6484375 l 1,244,245
475.57421875 603.5859375 m 1,261,-1
 457.880859375 618.15625 l 1,262,-1
 534.896484375 760.73828125 l 1,263,-1
 677.478515625 873.139648438 l 1,264,-1
 679.560546875 873.139648438 l 2,265,266
 682.68359375 871.057617188 682.68359375 871.057617188 682.68359375 870.016601562 c 0,267,268
 682.68359375 867.935546875 682.68359375 867.935546875 681.642578125 866.89453125 c 2,269,-1
 656.6640625 811.735351562 l 1,270,-1
 596.30078125 678.51953125 l 1,271,-1
 478.6953125 600.463867188 l 1,272,-1
 475.57421875 603.5859375 l 1,261,-1
488.0625 368.376953125 m 0,273,274
 481.818359375 363.172851562 481.818359375 363.172851562 481.818359375 355.887695312 c 0,275,276
 481.818359375 343.3984375 481.818359375 343.3984375 494.306640625 326.747070312 c 0,277,278
 507.837890625 304.890625 507.837890625 304.890625 521.3671875 304.890625 c 0,279,280
 527.611328125 304.890625 527.611328125 304.890625 531.7734375 309.053710938 c 0,281,282
 538.01953125 313.216796875 538.01953125 313.216796875 538.01953125 322.583984375 c 0,283,284
 538.01953125 332.991210938 538.01953125 332.991210938 526.5703125 350.68359375 c 0,285,286
 512 372.540039062 512 372.540039062 498.470703125 372.540039062 c 0,287,288
 492.2265625 372.540039062 492.2265625 372.540039062 488.0625 368.376953125 c 0,273,274
496.388671875 649.37890625 m 0,289,290
 482.859375 632.7265625 482.859375 632.7265625 482.859375 623.359375 c 0,291,292
 482.859375 620.237304688 482.859375 620.237304688 484.94140625 618.15625 c 0,293,294
 485.98046875 617.115234375 485.98046875 617.115234375 488.0625 617.115234375 c 0,295,296
 496.388671875 617.115234375 496.388671875 617.115234375 512 636.889648438 c 0,297,298
 519.28515625 647.296875 519.28515625 647.296875 522.408203125 656.6640625 c 0,299,300
 522.408203125 658.745117188 522.408203125 658.745117188 523.447265625 661.8671875 c 0,301,302
 524.48828125 662.908203125 524.48828125 662.908203125 524.48828125 663.94921875 c 0,303,304
 524.48828125 666.030273438 524.48828125 666.030273438 522.408203125 668.112304688 c 0,305,306
 521.3671875 669.15234375 521.3671875 669.15234375 519.28515625 669.15234375 c 0,307,308
 509.91796875 669.15234375 509.91796875 669.15234375 496.388671875 649.37890625 c 0,289,290
501.591796875 522.407226562 m 0,309,310
 495.34765625 517.203125 495.34765625 517.203125 495.34765625 509.91796875 c 0,311,312
 495.34765625 499.510742188 495.34765625 499.510742188 506.796875 481.818359375 c 0,313,314
 520.326171875 459.962890625 520.326171875 459.962890625 533.85546875 459.962890625 c 0,315,316
 541.140625 459.962890625 541.140625 459.962890625 545.3046875 464.125 c 0,317,318
 551.548828125 469.329101562 551.548828125 469.329101562 551.548828125 475.573242188 c 0,319,320
 551.548828125 488.0625 551.548828125 488.0625 539.05859375 504.71484375 c 0,321,322
 524.48828125 526.5703125 524.48828125 526.5703125 512 526.5703125 c 0,323,324
 505.755859375 526.5703125 505.755859375 526.5703125 501.591796875 522.407226562 c 0,309,310
570.28125 527.611328125 m 2,325,-1
 500.552734375 582.770507812 l 1,326,-1
 571.322265625 630.645507812 l 1,327,-1
 596.30078125 647.296875 l 2,328,329
 600.462890625 651.459960938 600.462890625 651.459960938 607.748046875 651.459960938 c 0,330,331
 616.07421875 651.459960938 616.07421875 651.459960938 620.23828125 647.296875 c 2,332,-1
 848.162109375 469.329101562 l 1,333,-1
 872.099609375 453.717773438 l 1,334,-1
 674.357421875 356.928710938 l 2,335,336
 670.193359375 353.806640625 670.193359375 353.806640625 663.94921875 353.806640625 c 0,337,338
 659.787109375 353.806640625 659.787109375 353.806640625 654.58203125 356.928710938 c 2,339,-1
 581.73046875 410.006835938 l 1,340,-1
 581.73046875 421.455078125 l 1,341,-1
 584.8515625 496.388671875 l 1,342,-1
 584.8515625 498.469726562 l 2,343,344
 584.8515625 516.163085938 584.8515625 516.163085938 570.28125 527.611328125 c 2,325,-1
528.65234375 710.782226562 m 0,345,346
 516.162109375 695.171875 516.162109375 695.171875 516.162109375 686.845703125 c 0,347,348
 516.162109375 683.723632812 516.162109375 683.723632812 518.244140625 681.641601562 c 0,349,350
 519.28515625 680.600585938 519.28515625 680.600585938 521.3671875 680.600585938 c 0,351,352
 529.693359375 680.600585938 529.693359375 680.600585938 543.22265625 700.375 c 0,353,354
 555.7109375 715.986328125 555.7109375 715.986328125 555.7109375 723.271484375 c 0,355,356
 555.7109375 726.393554688 555.7109375 726.393554688 553.630859375 728.475585938 c 0,357,358
 552.58984375 729.515625 552.58984375 729.515625 550.5078125 729.515625 c 0,359,360
 543.22265625 729.515625 543.22265625 729.515625 528.65234375 710.782226562 c 0,345,346
560.916015625 773.227539062 m 0,361,362
 548.42578125 758.657226562 548.42578125 758.657226562 548.42578125 751.372070312 c 0,363,364
 548.42578125 748.25 548.42578125 748.25 551.548828125 746.16796875 c 0,365,366
 552.58984375 745.126953125 552.58984375 745.126953125 553.630859375 745.126953125 c 0,367,368
 559.875 745.126953125 559.875 745.126953125 574.4453125 762.8203125 c 0,369,370
 585.892578125 777.390625 585.892578125 777.390625 585.892578125 784.67578125 c 0,371,372
 585.892578125 786.756835938 585.892578125 786.756835938 583.8125 788.838867188 c 0,373,374
 582.771484375 789.879882812 582.771484375 789.879882812 580.689453125 789.879882812 c 0,375,376
 573.404296875 789.879882812 573.404296875 789.879882812 560.916015625 773.227539062 c 0,361,362
567.16015625 695.171875 m 0,377,378
 552.58984375 674.356445312 552.58984375 674.356445312 552.58984375 667.071289062 c 0,379,380
 552.58984375 662.908203125 552.58984375 662.908203125 555.7109375 660.827148438 c 0,381,382
 556.751953125 659.786132812 556.751953125 659.786132812 558.833984375 659.786132812 c 0,383,384
 568.201171875 659.786132812 568.201171875 659.786132812 584.8515625 681.641601562 c 0,385,386
 599.421875 702.45703125 599.421875 702.45703125 599.421875 709.7421875 c 0,387,388
 599.421875 713.905273438 599.421875 713.905273438 597.341796875 715.986328125 c 0,389,390
 596.30078125 717.02734375 596.30078125 717.02734375 593.177734375 717.02734375 c 0,391,392
 584.8515625 717.02734375 584.8515625 717.02734375 567.16015625 695.171875 c 0,377,378
585.892578125 595.259765625 m 0,393,394
 583.8125 586.93359375 583.8125 586.93359375 583.8125 584.852539062 c 0,395,396
 583.8125 569.241210938 583.8125 569.241210938 609.830078125 556.751953125 c 0,397,398
 623.359375 549.466796875 623.359375 549.466796875 634.80859375 549.466796875 c 0,399,400
 648.337890625 549.466796875 648.337890625 549.466796875 654.58203125 562.99609375 c 0,401,402
 656.6640625 571.322265625 656.6640625 571.322265625 656.6640625 573.404296875 c 0,403,404
 656.6640625 589.015625 656.6640625 589.015625 630.64453125 601.50390625 c 0,405,406
 617.115234375 608.7890625 617.115234375 608.7890625 605.66796875 608.7890625 c 0,407,408
 592.13671875 608.7890625 592.13671875 608.7890625 585.892578125 595.259765625 c 0,393,394
603.5859375 765.942382812 m 0,409,410
 590.056640625 749.290039062 590.056640625 749.290039062 590.056640625 739.923828125 c 0,411,412
 590.056640625 735.760742188 590.056640625 735.760742188 592.13671875 733.678710938 c 0,413,414
 593.177734375 732.638671875 593.177734375 732.638671875 596.30078125 732.638671875 c 0,415,416
 604.626953125 732.638671875 604.626953125 732.638671875 620.23828125 753.453125 c 0,417,418
 634.80859375 771.146484375 634.80859375 771.146484375 634.80859375 779.471679688 c 0,419,420
 634.80859375 783.634765625 634.80859375 783.634765625 631.685546875 785.716796875 c 0,421,422
 630.64453125 786.756835938 630.64453125 786.756835938 627.5234375 786.756835938 c 0,423,424
 619.197265625 786.756835938 619.197265625 786.756835938 603.5859375 765.942382812 c 0,409,410
630.64453125 825.264648438 m 0,425,426
 620.23828125 811.735351562 620.23828125 811.735351562 620.23828125 802.368164062 c 0,427,428
 620.23828125 800.287109375 620.23828125 800.287109375 622.318359375 798.205078125 c 0,429,430
 623.359375 797.165039062 623.359375 797.165039062 625.44140625 797.165039062 c 0,431,432
 632.7265625 797.165039062 632.7265625 797.165039062 645.21484375 814.857421875 c 0,433,434
 655.623046875 828.38671875 655.623046875 828.38671875 655.623046875 837.75390625 c 0,435,436
 655.623046875 840.875976562 655.623046875 840.875976562 653.541015625 842.958007812 c 0,437,438
 652.5 843.998046875 652.5 843.998046875 651.4609375 843.998046875 c 0,439,440
 645.21484375 843.998046875 645.21484375 843.998046875 630.64453125 825.264648438 c 0,425,426
627.5234375 411.046875 m 0,441,442
 625.44140625 402.721679688 625.44140625 402.721679688 625.44140625 401.680664062 c 0,443,444
 625.44140625 388.150390625 625.44140625 388.150390625 649.37890625 376.703125 c 0,445,446
 662.908203125 370.458007812 662.908203125 370.458007812 672.275390625 370.458007812 c 0,447,448
 684.763671875 370.458007812 684.763671875 370.458007812 689.96875 381.90625 c 0,449,450
 691.0078125 383.98828125 691.0078125 383.98828125 691.0078125 390.232421875 c 0,451,452
 691.0078125 404.802734375 691.0078125 404.802734375 667.072265625 416.250976562 c 0,453,454
 653.541015625 422.495117188 653.541015625 422.495117188 644.17578125 422.495117188 c 0,455,456
 632.7265625 422.495117188 632.7265625 422.495117188 627.5234375 411.046875 c 0,441,442
635.849609375 664.990234375 m 2,457,458
 628.564453125 671.234375 628.564453125 671.234375 628.564453125 679.560546875 c 0,459,460
 628.564453125 680.600585938 628.564453125 680.600585938 630.64453125 688.926757812 c 2,461,-1
 698.29296875 837.75390625 l 1,462,-1
 718.068359375 882.505859375 l 1,463,-1
 721.189453125 886.668945312 l 2,464,465
 729.515625 894.995117188 729.515625 894.995117188 735.76171875 894.995117188 c 0,466,467
 739.923828125 894.995117188 739.923828125 894.995117188 748.25 889.791015625 c 2,468,-1
 948.07421875 725.353515625 l 2,469,470
 957.439453125 719.108398438 957.439453125 719.108398438 957.439453125 708.701171875 c 0,471,472
 957.439453125 704.538085938 957.439453125 704.538085938 956.3984375 703.497070312 c 2,473,-1
 894.99609375 497.4296875 l 1,474,-1
 891.873046875 491.184570312 l 1,475,-1
 891.873046875 490.14453125 l 1,476,477
 883.546875 481.818359375 883.546875 481.818359375 877.302734375 481.818359375 c 0,478,479
 872.099609375 481.818359375 872.099609375 481.818359375 863.7734375 487.021484375 c 2,480,-1
 635.849609375 664.990234375 l 2,457,458
684.763671875 714.9453125 m 0,481,482
 673.31640625 703.497070312 673.31640625 703.497070312 673.31640625 691.008789062 c 0,483,484
 673.31640625 681.641601562 673.31640625 681.641601562 684.763671875 667.071289062 c 0,485,486
 695.171875 648.337890625 695.171875 648.337890625 712.865234375 648.337890625 c 0,487,488
 722.23046875 648.337890625 722.23046875 648.337890625 729.515625 652.500976562 c 0,489,490
 740.96484375 667.071289062 740.96484375 667.071289062 740.96484375 676.4375 c 0,491,492
 740.96484375 688.926757812 740.96484375 688.926757812 729.515625 700.375 c 0,493,494
 718.068359375 719.108398438 718.068359375 719.108398438 702.45703125 719.108398438 c 0,495,496
 692.048828125 719.108398438 692.048828125 719.108398438 684.763671875 714.9453125 c 0,481,482
750.33203125 476.614257812 m 0,497,498
 748.25 468.288085938 748.25 468.288085938 748.25 466.20703125 c 0,499,500
 748.25 450.595703125 748.25 450.595703125 774.267578125 438.106445312 c 0,501,502
 787.798828125 430.821289062 787.798828125 430.821289062 799.24609375 430.821289062 c 0,503,504
 812.775390625 430.821289062 812.775390625 430.821289062 819.021484375 444.3515625 c 0,505,506
 821.1015625 452.676757812 821.1015625 452.676757812 821.1015625 453.717773438 c 0,507,508
 821.1015625 468.288085938 821.1015625 468.288085938 794.04296875 482.859375 c 0,509,510
 780.513671875 490.14453125 780.513671875 490.14453125 770.10546875 490.14453125 c 0,511,512
 756.576171875 490.14453125 756.576171875 490.14453125 750.33203125 476.614257812 c 0,497,498
886.669921875 733.678710938 m 0,513,514
 876.26171875 723.271484375 876.26171875 723.271484375 876.26171875 710.782226562 c 0,515,516
 876.26171875 699.333984375 876.26171875 699.333984375 886.669921875 688.926757812 c 1,517,518
 896.03515625 671.234375 896.03515625 671.234375 911.646484375 671.234375 c 0,519,520
 921.013671875 671.234375 921.013671875 671.234375 928.298828125 675.397460938 c 0,521,522
 938.70703125 685.8046875 938.70703125 685.8046875 938.70703125 697.252929688 c 128,-1,523
 938.70703125 708.701171875 938.70703125 708.701171875 928.298828125 719.108398438 c 0,524,525
 916.8515625 736.801757812 916.8515625 736.801757812 902.28125 736.801757812 c 0,526,527
 894.99609375 736.801757812 894.99609375 736.801757812 886.669921875 733.678710938 c 0,513,514
EndSplineSet
EndChar

StartChar: uniE005
Encoding: 57349 57349 8
Width: 1024
VWidth: 1024
GlyphClass: 2
Flags: HW
LayerCount: 2
Fore
SplineSet
300.232421875 309.623046875 m 1,0,-1
 66.560546875 407.681640625 l 1,1,-1
 165.662109375 641.35546875 l 1,2,-1
 257.462890625 601.71484375 l 1,3,4
 213.6484375 541.208984375 213.6484375 541.208984375 206.345703125 530.77734375 c 0,5,6
 189.65625 504.697265625 189.65625 504.697265625 189.65625 473.40234375 c 0,7,8
 189.65625 445.236328125 189.65625 445.236328125 206.345703125 416.02734375 c 0,9,10
 238.685546875 353.435546875 238.685546875 353.435546875 310.666015625 353.435546875 c 2,11,-1
 319.009765625 353.435546875 l 1,12,-1
 300.232421875 309.623046875 l 1,0,-1
267.89453125 390.990234375 m 0,13,14
 214.69140625 421.2421875 214.69140625 421.2421875 214.69140625 465.056640625 c 0,15,16
 214.69140625 489.05078125 214.69140625 489.05078125 230.33984375 517.216796875 c 0,17,18
 252.24609375 549.5546875 252.24609375 549.5546875 371.169921875 707.076171875 c 1,19,20
 428.544921875 665.34765625 428.544921875 665.34765625 467.142578125 631.966796875 c 1,21,22
 397.25 619.447265625 397.25 619.447265625 373.255859375 550.59765625 c 0,23,24
 364.91015625 522.431640625 364.91015625 522.431640625 364.91015625 504.697265625 c 0,25,26
 364.91015625 446.279296875 364.91015625 446.279296875 424.373046875 408.724609375 c 1,27,-1
 430.630859375 356.56640625 l 1,28,-1
 404.552734375 352.392578125 l 1,29,-1
 394.119140625 428.544921875 l 1,30,31
 364.91015625 386.818359375 364.91015625 386.818359375 312.751953125 380.55859375 c 1,32,-1
 308.578125 380.55859375 l 2,33,34
 284.5859375 380.55859375 284.5859375 380.55859375 267.89453125 390.990234375 c 0,13,14
455.66796875 422.287109375 m 1,35,36
 399.3359375 447.322265625 399.3359375 447.322265625 399.3359375 499.482421875 c 0,37,38
 399.3359375 517.216796875 399.3359375 517.216796875 403.5078125 530.77734375 c 0,39,40
 422.28515625 603.80078125 422.28515625 603.80078125 483.833984375 603.80078125 c 0,41,42
 502.611328125 603.80078125 502.611328125 603.80078125 518.259765625 599.626953125 c 1,43,-1
 521.388671875 599.626953125 l 1,44,45
 518.259765625 613.189453125 518.259765625 613.189453125 518.259765625 625.70703125 c 0,46,47
 518.259765625 682.0390625 518.259765625 682.0390625 578.763671875 707.076171875 c 0,48,49
 600.669921875 717.5078125 600.669921875 717.5078125 624.6640625 717.5078125 c 0,50,51
 676.822265625 717.5078125 676.822265625 717.5078125 702.90234375 654.916015625 c 1,52,53
 680.99609375 646.5703125 680.99609375 646.5703125 662.21875 633.009765625 c 0,54,55
 627.79296875 604.84375 627.79296875 604.84375 620.490234375 559.986328125 c 0,56,57
 617.361328125 539.123046875 617.361328125 539.123046875 614.232421875 479.662109375 c 2,58,-1
 611.1015625 427.501953125 l 1,59,-1
 607.97265625 377.4296875 l 1,60,61
 579.806640625 395.1640625 579.806640625 395.1640625 568.33203125 426.458984375 c 1,62,-1
 544.337890625 352.392578125 l 1,63,-1
 519.302734375 360.73828125 l 1,64,-1
 543.294921875 434.8046875 l 1,65,66
 516.171875 417.0703125 516.171875 417.0703125 491.13671875 417.0703125 c 0,67,68
 479.662109375 417.0703125 479.662109375 417.0703125 458.796875 422.287109375 c 1,69,-1
 455.66796875 422.287109375 l 1,35,36
852.078125 306.4921875 m 2,70,71
 810.3515625 306.4921875 810.3515625 306.4921875 629.87890625 314.837890625 c 1,72,73
 639.267578125 506.783203125 639.267578125 506.783203125 645.52734375 555.814453125 c 0,74,75
 660.1328125 634.052734375 660.1328125 634.052734375 736.28515625 634.052734375 c 2,76,-1
 740.45703125 634.052734375 l 2,77,78
 778.01171875 634.052734375 778.01171875 634.052734375 805.134765625 606.9296875 c 0,79,80
 835.38671875 570.41796875 835.38671875 570.41796875 835.38671875 529.734375 c 0,81,82
 835.38671875 516.171875 835.38671875 516.171875 830.171875 495.30859375 c 1,83,84
 841.646484375 498.439453125 841.646484375 498.439453125 852.078125 498.439453125 c 0,85,86
 903.193359375 497.396484375 903.193359375 497.396484375 938.662109375 456.7109375 c 0,87,88
 955.353515625 435.84765625 955.353515625 435.84765625 956.396484375 407.681640625 c 0,89,90
 957.439453125 404.552734375 957.439453125 404.552734375 957.439453125 394.12109375 c 0,91,92
 957.439453125 312.751953125 957.439453125 312.751953125 869.8125 306.4921875 c 1,93,-1
 852.078125 306.4921875 l 2,70,71
EndSplineSet
EndChar

StartChar: uniE006
Encoding: 57350 57350 9
Width: 1024
VWidth: 1024
GlyphClass: 2
Flags: HW
LayerCount: 2
Fore
SplineSet
882.2421875 498.9453125 m 1,0,-1
 141.7578125 498.9453125 l 1,1,-1
 141.7578125 599.208984375 l 1,2,3
 151.15625 654.5625 151.15625 654.5625 204.421875 654.5625 c 2,4,-1
 377.79296875 654.5625 l 1,5,6
 334.97265625 663.9609375 334.97265625 663.9609375 297.373046875 685.89453125 c 0,7,8
 254.552734375 707.826171875 254.552734375 707.826171875 228.443359375 745.42578125 c 0,9,10
 201.2890625 778.845703125 201.2890625 778.845703125 201.2890625 812.267578125 c 0,11,12
 201.2890625 838.376953125 201.2890625 838.376953125 220.087890625 868.666015625 c 0,13,14
 263.953125 948.041015625 263.953125 948.041015625 353.771484375 956.396484375 c 0,15,16
 358.994140625 957.439453125 358.994140625 957.439453125 373.615234375 957.439453125 c 0,17,18
 389.28125 957.439453125 389.28125 957.439453125 393.458984375 956.396484375 c 0,19,20
 430.013671875 949.0859375 430.013671875 949.0859375 449.857421875 918.796875 c 0,21,22
 490.58984375 861.35546875 490.58984375 861.35546875 503.123046875 791.37890625 c 2,23,-1
 515.654296875 737.0703125 l 1,24,-1
 517.744140625 749.603515625 l 1,25,-1
 520.876953125 763.1796875 l 1,26,27
 533.41015625 839.421875 533.41015625 839.421875 568.919921875 902.0859375 c 0,28,29
 585.630859375 930.28515625 585.630859375 930.28515625 613.830078125 946.99609375 c 0,30,31
 633.673828125 957.439453125 633.673828125 957.439453125 655.60546875 957.439453125 c 0,32,33
 668.138671875 957.439453125 668.138671875 957.439453125 679.626953125 954.306640625 c 0,34,35
 755.869140625 946.99609375 755.869140625 946.99609375 800.779296875 881.19921875 c 0,36,37
 824.80078125 847.77734375 824.80078125 847.77734375 824.80078125 812.267578125 c 0,38,39
 824.80078125 811.22265625 824.80078125 811.22265625 822.7109375 788.24609375 c 1,40,41
 810.177734375 748.55859375 810.177734375 748.55859375 778.845703125 722.44921875 c 0,42,43
 723.4921875 669.18359375 723.4921875 669.18359375 648.294921875 656.650390625 c 1,44,-1
 815.400390625 656.650390625 l 2,45,46
 847.77734375 656.650390625 847.77734375 656.650390625 868.666015625 629.49609375 c 0,47,48
 881.197265625 613.830078125 881.197265625 613.830078125 882.2421875 593.986328125 c 2,49,-1
 882.2421875 498.9453125 l 1,0,-1
199.19921875 91.626953125 m 0,50,51
 183.533203125 112.513671875 183.533203125 112.513671875 183.533203125 136.53515625 c 2,52,-1
 183.533203125 464.48046875 l 1,53,-1
 843.599609375 464.48046875 l 1,54,-1
 843.599609375 132.357421875 l 2,55,56
 843.599609375 80.13671875 843.599609375 80.13671875 790.333984375 68.6484375 c 1,57,-1
 236.798828125 66.560546875 l 1,58,59
 214.865234375 73.87109375 214.865234375 73.87109375 199.19921875 91.626953125 c 0,50,51
403.904296875 794.51171875 m 0,60,61
 365.259765625 849.8671875 365.259765625 849.8671875 306.7734375 877.021484375 c 1,62,63
 331.83984375 746.470703125 331.83984375 746.470703125 451.947265625 690.072265625 c 1,64,65
 437.32421875 743.3359375 437.32421875 743.3359375 403.904296875 794.51171875 c 0,60,61
724.537109375 877.021484375 m 1,66,67
 603.384765625 821.66796875 603.384765625 821.66796875 576.23046875 691.1171875 c 1,68,69
 695.29296875 747.513671875 695.29296875 747.513671875 724.537109375 877.021484375 c 1,66,67
EndSplineSet
EndChar

StartChar: uniE007
Encoding: 57351 57351 10
Width: 1024
VWidth: 1024
GlyphClass: 2
Flags: HW
LayerCount: 2
Fore
SplineSet
200.087890625 66.560546875 m 2,0,1
 111.416992188 66.560546875 111.416992188 66.560546875 111.416992188 156.2734375 c 2,2,-1
 111.416992188 779.0546875 l 2,3,4
 111.416992188 867.7265625 111.416992188 867.7265625 200.087890625 867.7265625 c 2,5,-1
 244.9453125 867.7265625 l 1,6,-1
 244.9453125 957.439453125 l 1,7,-1
 333.616210938 957.439453125 l 1,8,-1
 333.616210938 867.7265625 l 1,9,-1
 690.384765625 867.7265625 l 1,10,-1
 690.384765625 957.439453125 l 1,11,-1
 779.055664062 957.439453125 l 1,12,-1
 779.055664062 867.7265625 l 1,13,-1
 823.913085938 867.7265625 l 2,14,15
 912.583007812 867.7265625 912.583007812 867.7265625 912.583007812 779.0546875 c 2,16,-1
 912.583007812 156.2734375 l 2,17,18
 912.583007812 66.560546875 912.583007812 66.560546875 823.913085938 66.560546875 c 2,19,-1
 200.087890625 66.560546875 l 2,0,1
200.087890625 649.701171875 m 1,20,-1
 200.087890625 160.447265625 l 1,21,-1
 823.913085938 160.447265625 l 1,22,-1
 823.913085938 649.701171875 l 1,23,-1
 200.087890625 649.701171875 l 1,20,-1
378.47265625 289.80078125 m 1,24,-1
 289.801757812 289.80078125 l 1,25,-1
 289.801757812 378.47265625 l 1,26,-1
 378.47265625 378.47265625 l 1,27,-1
 378.47265625 289.80078125 l 1,24,-1
378.47265625 467.142578125 m 1,28,-1
 289.801757812 467.142578125 l 1,29,-1
 289.801757812 556.857421875 l 1,30,-1
 378.47265625 556.857421875 l 1,31,-1
 378.47265625 467.142578125 l 1,28,-1
556.857421875 289.80078125 m 1,32,-1
 467.143554688 289.80078125 l 1,33,-1
 467.143554688 378.47265625 l 1,34,-1
 556.857421875 378.47265625 l 1,35,-1
 556.857421875 289.80078125 l 1,32,-1
556.857421875 467.142578125 m 1,36,-1
 467.143554688 467.142578125 l 1,37,-1
 467.143554688 556.857421875 l 1,38,-1
 556.857421875 556.857421875 l 1,39,-1
 556.857421875 467.142578125 l 1,36,-1
734.19921875 289.80078125 m 1,40,-1
 645.528320312 289.80078125 l 1,41,-1
 645.528320312 378.47265625 l 1,42,-1
 734.19921875 378.47265625 l 1,43,-1
 734.19921875 289.80078125 l 1,40,-1
734.19921875 467.142578125 m 1,44,-1
 645.528320312 467.142578125 l 1,45,-1
 645.528320312 556.857421875 l 1,46,-1
 734.19921875 556.857421875 l 1,47,-1
 734.19921875 467.142578125 l 1,44,-1
EndSplineSet
EndChar

StartChar: uniE008
Encoding: 57352 57352 11
Width: 1024
VWidth: 1024
GlyphClass: 2
Flags: HW
LayerCount: 2
Fore
SplineSet
81.146484375 155.6484375 m 2,0,1
 66.560546875 155.6484375 66.560546875 155.6484375 66.560546875 169.193359375 c 2,2,-1
 66.560546875 516.16796875 l 2,3,4
 66.560546875 529.712890625 66.560546875 529.712890625 81.146484375 529.712890625 c 2,5,-1
 756.33984375 529.712890625 l 2,6,7
 769.88671875 529.712890625 769.88671875 529.712890625 769.88671875 516.16796875 c 2,8,-1
 769.88671875 420.306640625 l 1,9,-1
 805.3125 420.306640625 l 2,10,11
 817.81640625 420.306640625 817.81640625 420.306640625 819.900390625 405.720703125 c 2,12,-1
 819.900390625 361.95703125 l 1,13,-1
 849.076171875 361.95703125 l 1,14,-1
 849.076171875 584.9375 l 2,15,16
 849.076171875 598.482421875 849.076171875 598.482421875 862.62109375 598.482421875 c 2,17,-1
 888.669921875 598.482421875 l 1,18,19
 898.046875 619.322265625 898.046875 619.322265625 920.970703125 619.322265625 c 2,20,-1
 923.0546875 619.322265625 l 2,21,22
 957.439453125 619.322265625 957.439453125 619.322265625 957.439453125 584.9375 c 0,23,24
 957.439453125 549.51171875 957.439453125 549.51171875 922.013671875 549.51171875 c 0,25,26
 899.08984375 549.51171875 899.08984375 549.51171875 890.75390625 570.349609375 c 1,27,-1
 878.25 570.349609375 l 1,28,-1
 878.25 348.412109375 l 2,29,30
 878.25 333.82421875 878.25 333.82421875 863.662109375 333.82421875 c 2,31,-1
 819.900390625 333.82421875 l 1,32,-1
 819.900390625 291.103515625 l 2,33,34
 818.857421875 277.55859375 818.857421875 277.55859375 805.3125 276.515625 c 2,35,-1
 769.88671875 276.515625 l 1,36,-1
 769.88671875 169.193359375 l 2,37,38
 769.88671875 155.6484375 769.88671875 155.6484375 757.3828125 155.6484375 c 2,39,-1
 81.146484375 155.6484375 l 2,0,1
107.197265625 704.763671875 m 1,40,-1
 105.11328125 709.97265625 l 1,41,-1
 105.11328125 712.056640625 l 2,42,43
 105.11328125 716.224609375 105.11328125 716.224609375 111.36328125 718.30859375 c 2,44,-1
 153.04296875 724.560546875 l 1,45,-1
 171.798828125 761.029296875 l 1,46,-1
 174.923828125 765.197265625 l 1,47,-1
 175.966796875 765.197265625 l 2,48,49
 177.0078125 766.240234375 177.0078125 766.240234375 180.134765625 766.240234375 c 128,-1,50
 183.259765625 766.240234375 183.259765625 766.240234375 185.34375 761.029296875 c 2,51,-1
 204.099609375 724.560546875 l 1,52,-1
 244.736328125 718.30859375 l 1,53,-1
 247.861328125 712.056640625 l 2,54,55
 248.904296875 711.015625 248.904296875 711.015625 248.904296875 707.888671875 c 128,-1,56
 248.904296875 704.763671875 248.904296875 704.763671875 247.861328125 703.72265625 c 2,57,-1
 217.64453125 675.587890625 l 1,58,-1
 223.896484375 633.91015625 l 1,59,-1
 223.896484375 628.701171875 l 2,60,61
 220.76953125 624.533203125 220.76953125 624.533203125 217.64453125 624.533203125 c 128,-1,62
 214.51953125 624.533203125 214.51953125 624.533203125 213.4765625 625.57421875 c 2,63,-1
 177.0078125 645.37109375 l 1,64,-1
 138.455078125 625.57421875 l 1,65,-1
 133.24609375 625.57421875 l 2,66,67
 128.03515625 627.658203125 128.03515625 627.658203125 128.03515625 631.826171875 c 2,68,-1
 128.03515625 633.91015625 l 1,69,-1
 135.330078125 675.587890625 l 1,70,-1
 107.197265625 704.763671875 l 1,40,-1
138.455078125 441.146484375 m 2,71,-1
 138.455078125 245.2578125 l 2,72,73
 138.455078125 218.166015625 138.455078125 218.166015625 165.546875 218.166015625 c 2,74,-1
 278.078125 218.166015625 l 2,75,76
 303.0859375 218.166015625 303.0859375 218.166015625 305.169921875 245.2578125 c 2,77,-1
 305.169921875 441.146484375 l 2,78,79
 305.169921875 467.1953125 305.169921875 467.1953125 280.162109375 467.1953125 c 2,80,-1
 164.50390625 467.1953125 l 2,81,82
 138.455078125 466.154296875 138.455078125 466.154296875 138.455078125 441.146484375 c 2,71,-1
277.037109375 245.2578125 m 1,83,-1
 166.587890625 245.2578125 l 1,84,-1
 166.587890625 435.9375 l 1,85,-1
 277.037109375 435.9375 l 1,86,-1
 277.037109375 245.2578125 l 1,83,-1
221.8125 393.216796875 m 1,87,88
 208.267578125 364.041015625 208.267578125 364.041015625 186.384765625 340.076171875 c 1,89,90
 210.3515625 319.236328125 210.3515625 319.236328125 221.8125 290.0625 c 1,91,92
 234.31640625 320.279296875 234.31640625 320.279296875 257.240234375 340.076171875 c 1,93,94
 234.31640625 363 234.31640625 363 221.8125 393.216796875 c 1,87,88
312.462890625 761.029296875 m 1,95,-1
 308.294921875 769.365234375 l 1,96,-1
 308.294921875 772.4921875 l 2,97,98
 308.294921875 782.91015625 308.294921875 782.91015625 320.798828125 784.994140625 c 2,99,-1
 391.65234375 795.4140625 l 1,100,-1
 423.953125 861.05859375 l 2,101,102
 426.037109375 866.267578125 426.037109375 866.267578125 430.205078125 867.310546875 c 0,103,104
 431.248046875 868.3515625 431.248046875 868.3515625 435.416015625 868.3515625 c 0,105,106
 443.751953125 868.3515625 443.751953125 868.3515625 446.876953125 857.931640625 c 2,107,-1
 478.13671875 794.373046875 l 1,108,-1
 548.990234375 783.953125 l 2,109,110
 557.32421875 781.869140625 557.32421875 781.869140625 560.451171875 774.576171875 c 0,111,112
 561.4921875 773.533203125 561.4921875 773.533203125 561.4921875 770.408203125 c 0,113,114
 561.4921875 765.197265625 561.4921875 765.197265625 556.283203125 759.98828125 c 2,115,-1
 505.2265625 709.97265625 l 1,116,-1
 517.73046875 640.162109375 l 1,117,-1
 517.73046875 630.78515625 l 1,118,119
 512.521484375 622.44921875 512.521484375 622.44921875 506.26953125 622.44921875 c 0,120,121
 505.2265625 622.44921875 505.2265625 622.44921875 504.185546875 623.490234375 c 0,122,123
 501.05859375 624.533203125 501.05859375 624.533203125 498.974609375 624.533203125 c 2,124,-1
 435.416015625 657.875 l 1,125,-1
 372.896484375 624.533203125 l 1,126,-1
 363.51953125 624.533203125 l 2,127,128
 352.05859375 627.658203125 352.05859375 627.658203125 352.05859375 638.078125 c 2,129,-1
 352.05859375 641.203125 l 1,130,-1
 364.5625 711.015625 l 1,131,-1
 312.462890625 761.029296875 l 1,95,-1
333.302734375 441.146484375 m 2,132,-1
 333.302734375 245.2578125 l 2,133,134
 334.34375 220.25 334.34375 220.25 359.3515625 218.166015625 c 2,135,-1
 470.841796875 218.166015625 l 2,136,137
 497.93359375 218.166015625 497.93359375 218.166015625 497.93359375 245.2578125 c 2,138,-1
 497.93359375 442.189453125 l 2,139,140
 496.890625 467.1953125 496.890625 467.1953125 472.92578125 467.1953125 c 2,141,-1
 359.3515625 467.1953125 l 2,142,143
 333.302734375 466.154296875 333.302734375 466.154296875 333.302734375 441.146484375 c 2,132,-1
469.80078125 245.2578125 m 1,144,-1
 360.39453125 245.2578125 l 1,145,-1
 360.39453125 435.9375 l 1,146,-1
 469.80078125 435.9375 l 1,147,-1
 469.80078125 245.2578125 l 1,144,-1
413.533203125 394.2578125 m 1,148,149
 399.98828125 365.083984375 399.98828125 365.083984375 378.107421875 342.16015625 c 1,150,151
 403.115234375 320.279296875 403.115234375 320.279296875 415.6171875 290.0625 c 1,152,153
 428.12109375 320.279296875 428.12109375 320.279296875 451.044921875 340.076171875 c 1,154,155
 428.12109375 363 428.12109375 363 415.6171875 393.216796875 c 1,156,-1
 413.533203125 394.2578125 l 1,148,149
526.06640625 439.0625 m 2,157,-1
 526.06640625 245.2578125 l 2,158,159
 526.06640625 218.166015625 526.06640625 218.166015625 553.158203125 218.166015625 c 2,160,-1
 664.6484375 218.166015625 l 2,161,162
 691.73828125 218.166015625 691.73828125 218.166015625 691.73828125 245.2578125 c 2,163,-1
 691.73828125 439.0625 l 2,164,165
 691.73828125 466.154296875 691.73828125 466.154296875 664.6484375 466.154296875 c 2,166,-1
 553.158203125 466.154296875 l 2,167,168
 526.06640625 466.154296875 526.06640625 466.154296875 526.06640625 439.0625 c 2,157,-1
665.689453125 245.2578125 m 1,169,-1
 556.283203125 245.2578125 l 1,170,-1
 556.283203125 435.9375 l 1,171,-1
 665.689453125 435.9375 l 1,172,-1
 665.689453125 245.2578125 l 1,169,-1
608.380859375 393.216796875 m 1,173,174
 594.8359375 364.041015625 594.8359375 364.041015625 572.955078125 340.076171875 c 1,175,176
 596.919921875 319.236328125 596.919921875 319.236328125 608.380859375 290.0625 c 1,177,178
 621.927734375 319.236328125 621.927734375 319.236328125 644.849609375 342.16015625 c 1,179,180
 622.96875 364.041015625 622.96875 364.041015625 611.5078125 393.216796875 c 1,181,-1
 608.380859375 393.216796875 l 1,173,174
625.052734375 703.72265625 m 1,182,-1
 622.96875 708.931640625 l 1,183,-1
 622.96875 711.015625 l 2,184,185
 622.96875 717.267578125 622.96875 717.267578125 630.263671875 718.30859375 c 2,186,-1
 670.8984375 723.51953125 l 1,187,-1
 688.61328125 761.029296875 l 1,188,-1
 692.78125 765.197265625 l 2,189,190
 693.822265625 766.240234375 693.822265625 766.240234375 696.94921875 766.240234375 c 0,191,192
 701.1171875 766.240234375 701.1171875 766.240234375 703.201171875 761.029296875 c 2,193,-1
 720.9140625 723.51953125 l 1,194,-1
 762.591796875 718.30859375 l 2,195,196
 767.802734375 716.224609375 767.802734375 716.224609375 768.84375 712.056640625 c 0,197,198
 769.88671875 711.015625 769.88671875 711.015625 769.88671875 708.931640625 c 0,199,200
 769.88671875 705.806640625 769.88671875 705.806640625 766.759765625 703.72265625 c 2,201,-1
 737.5859375 674.546875 l 1,202,-1
 744.87890625 633.91015625 l 1,203,-1
 744.87890625 628.701171875 l 2,204,205
 741.75390625 624.533203125 741.75390625 624.533203125 737.5859375 624.533203125 c 0,206,207
 734.458984375 624.533203125 734.458984375 624.533203125 733.41796875 625.57421875 c 2,208,-1
 696.94921875 645.37109375 l 1,209,-1
 659.4375 624.533203125 l 1,210,-1
 654.228515625 624.533203125 l 2,211,212
 647.9765625 626.6171875 647.9765625 626.6171875 647.9765625 631.826171875 c 2,213,-1
 647.9765625 633.91015625 l 1,214,-1
 655.26953125 675.587890625 l 1,215,-1
 625.052734375 703.72265625 l 1,182,-1
769.88671875 391.1328125 m 1,216,-1
 769.88671875 303.607421875 l 1,217,-1
 790.724609375 303.607421875 l 1,218,-1
 790.724609375 391.1328125 l 1,219,-1
 769.88671875 391.1328125 l 1,216,-1
EndSplineSet
EndChar

StartChar: uniE009
Encoding: 57353 57353 12
Width: 1024
VWidth: 1024
GlyphClass: 2
Flags: HW
LayerCount: 2
Fore
SplineSet
313.794921875 312.751953125 m 0,0,1
 68.646484375 557.900390625 68.646484375 557.900390625 66.560546875 906.32421875 c 2,2,-1
 66.560546875 908.41015625 l 2,3,4
 66.560546875 956.396484375 66.560546875 956.396484375 114.546875 957.439453125 c 2,5,-1
 289.80078125 957.439453125 l 2,6,7
 338.83203125 957.439453125 338.83203125 957.439453125 338.83203125 907.3671875 c 0,8,9
 338.83203125 818.6953125 338.83203125 818.6953125 369.083984375 730.025390625 c 0,10,11
 369.083984375 726.896484375 369.083984375 726.896484375 369.60546875 723.765625 c 128,-1,12
 370.126953125 720.63671875 370.126953125 720.63671875 370.6484375 719.072265625 c 128,-1,13
 371.169921875 717.5078125 371.169921875 717.5078125 371.169921875 716.46484375 c 0,14,15
 371.169921875 695.599609375 371.169921875 695.599609375 353.435546875 679.953125 c 2,16,-1
 244.9453125 571.4609375 l 1,17,18
 355.521484375 358.65234375 355.521484375 358.65234375 571.4609375 244.9453125 c 1,19,-1
 679.953125 353.435546875 l 2,20,21
 693.513671875 370.126953125 693.513671875 370.126953125 709.162109375 370.126953125 c 0,22,23
 718.55078125 370.126953125 718.55078125 370.126953125 730.025390625 363.8671875 c 0,24,25
 815.56640625 333.615234375 815.56640625 333.615234375 901.107421875 333.615234375 c 2,26,-1
 907.3671875 333.615234375 l 2,27,28
 909.453125 334.658203125 909.453125 334.658203125 916.755859375 334.658203125 c 0,29,30
 951.181640625 334.658203125 951.181640625 334.658203125 956.396484375 295.017578125 c 1,31,-1
 957.439453125 115.58984375 l 2,32,33
 955.353515625 66.560546875 955.353515625 66.560546875 907.3671875 66.560546875 c 0,34,35
 559.986328125 66.560546875 559.986328125 66.560546875 313.794921875 312.751953125 c 0,0,1
EndSplineSet
EndChar

StartChar: uniE00A
Encoding: 57354 57354 13
Width: 1024
VWidth: 1024
GlyphClass: 2
Flags: HW
LayerCount: 2
Fore
SplineSet
114.874023438 66.560546875 m 2,0,1
 95.7607421875 66.560546875 95.7607421875 66.560546875 95.7607421875 85.673828125 c 2,2,-1
 95.7607421875 242.82421875 l 2,3,4
 96.822265625 259.814453125 96.822265625 259.814453125 112.75 260.876953125 c 0,5,6
 585.266601562 304.412109375 585.266601562 304.412109375 876.209960938 676.0546875 c 0,7,8
 882.581054688 685.609375 882.581054688 685.609375 891.075195312 685.609375 c 0,9,10
 895.323242188 685.609375 895.323242188 685.609375 903.817382812 680.30078125 c 0,11,12
 911.25 676.0546875 911.25 676.0546875 911.25 665.435546875 c 2,13,-1
 911.25 85.673828125 l 2,14,15
 911.25 66.560546875 911.25 66.560546875 892.137695312 66.560546875 c 2,16,-1
 114.874023438 66.560546875 l 2,0,1
122.306640625 328.833984375 m 2,17,18
 103.193359375 328.833984375 103.193359375 328.833984375 100.0078125 346.884765625 c 2,19,-1
 100.0078125 352.193359375 l 2,20,21
 100.0078125 370.244140625 100.0078125 370.244140625 119.12109375 373.4296875 c 0,22,23
 527.927734375 444.57421875 527.927734375 444.57421875 764.716796875 785.421875 c 1,24,25
 737.109375 809.845703125 737.109375 809.845703125 737.109375 860.8125 c 0,26,27
 737.109375 957.439453125 737.109375 957.439453125 832.674804688 957.439453125 c 128,-1,28
 928.239257812 957.439453125 928.239257812 957.439453125 928.239257812 860.8125 c 0,29,30
 928.239257812 765.248046875 928.239257812 765.248046875 832.674804688 765.248046875 c 0,31,32
 825.241210938 765.248046875 825.241210938 765.248046875 806.12890625 767.37109375 c 1,33,34
 558.720703125 403.162109375 558.720703125 403.162109375 126.553710938 328.833984375 c 1,35,-1
 122.306640625 328.833984375 l 2,17,18
832.674804688 923.4609375 m 128,-1,37
 771.087890625 923.4609375 771.087890625 923.4609375 771.087890625 860.8125 c 0,38,39
 771.087890625 799.2265625 771.087890625 799.2265625 832.674804688 799.2265625 c 128,-1,40
 894.260742188 799.2265625 894.260742188 799.2265625 894.260742188 860.8125 c 0,41,36
 894.260742188 923.4609375 894.260742188 923.4609375 832.674804688 923.4609375 c 128,-1,37
EndSplineSet
EndChar

StartChar: uniE00B
Encoding: 57355 57355 14
Width: 1024
VWidth: 1024
GlyphClass: 2
Flags: HW
LayerCount: 2
Fore
SplineSet
403.904296875 529.755859375 m 0,0,1
 460.302734375 473.357421875 460.302734375 473.357421875 460.302734375 395.02734375 c 2,2,-1
 460.302734375 393.982421875 l 2,3,4
 460.302734375 316.6953125 460.302734375 316.6953125 402.859375 257.1640625 c 0,5,6
 346.4609375 200.765625 346.4609375 200.765625 264.998046875 200.765625 c 2,7,-1
 256.642578125 200.765625 l 2,8,9
 182.490234375 200.765625 182.490234375 200.765625 127.13671875 250.8984375 c 0,10,11
 67.60546875 306.251953125 67.60546875 306.251953125 66.560546875 385.626953125 c 2,12,-1
 66.560546875 393.982421875 l 2,13,14
 66.560546875 471.267578125 66.560546875 471.267578125 117.736328125 523.48828125 c 0,15,16
 172.044921875 581.974609375 172.044921875 581.974609375 251.419921875 584.064453125 c 2,17,-1
 269.17578125 584.064453125 l 2,18,19
 348.55078125 584.064453125 348.55078125 584.064453125 403.904296875 529.755859375 c 0,0,1
296.330078125 360.560546875 m 1,20,-1
 400.771484375 360.560546875 l 1,21,-1
 400.771484375 418.00390625 l 1,22,-1
 398.681640625 419.046875 l 1,23,-1
 294.2421875 419.046875 l 1,24,-1
 294.2421875 523.48828125 l 1,25,-1
 243.064453125 523.48828125 l 1,26,-1
 243.064453125 418.00390625 l 1,27,-1
 133.40234375 418.00390625 l 1,28,-1
 133.40234375 360.560546875 l 1,29,-1
 239.931640625 360.560546875 l 1,30,-1
 239.931640625 255.076171875 l 1,31,-1
 296.330078125 255.076171875 l 1,32,-1
 296.330078125 360.560546875 l 1,20,-1
468.658203125 751.169921875 m 1,33,-1
 466.568359375 750.125 l 1,34,35
 620.095703125 750.125 620.095703125 750.125 673.361328125 685.37109375 c 1,36,-1
 673.361328125 623.751953125 l 1,37,38
 628.451171875 560.04296875 628.451171875 560.04296875 470.74609375 560.04296875 c 2,39,-1
 436.28125 560.04296875 l 1,40,41
 364.216796875 622.70703125 364.216796875 622.70703125 269.17578125 623.751953125 c 1,42,-1
 269.17578125 686.416015625 l 1,43,44
 315.12890625 751.169921875 315.12890625 751.169921875 468.658203125 751.169921875 c 1,33,-1
458.212890625 245.67578125 m 1,45,46
 477.01171875 275.962890625 477.01171875 275.962890625 490.58984375 308.33984375 c 1,47,48
 632.62890625 315.650390625 632.62890625 315.650390625 669.18359375 372.048828125 c 1,49,-1
 669.18359375 311.474609375 l 1,50,51
 623.23046875 245.67578125 623.23046875 245.67578125 466.568359375 245.67578125 c 2,52,-1
 458.212890625 245.67578125 l 1,45,46
491.634765625 453.513671875 m 1,53,-1
 470.74609375 514.08984375 l 1,54,55
 624.2734375 522.443359375 624.2734375 522.443359375 669.18359375 578.841796875 c 1,56,-1
 669.18359375 519.310546875 l 1,57,58
 597.119140625 453.513671875 597.119140625 453.513671875 503.123046875 453.513671875 c 2,59,-1
 491.634765625 453.513671875 l 1,53,-1
665.005859375 481.712890625 m 1,60,-1
 665.005859375 422.181640625 l 1,61,62
 637.8515625 372.048828125 637.8515625 372.048828125 497.900390625 356.3828125 c 1,63,64
 503.123046875 369.9609375 503.123046875 369.9609375 503.123046875 383.537109375 c 0,65,66
 503.123046875 390.849609375 503.123046875 390.849609375 502.078125 392.9375 c 2,67,-1
 502.078125 413.826171875 l 1,68,69
 637.8515625 429.4921875 637.8515625 429.4921875 665.005859375 481.712890625 c 1,60,-1
954.306640625 696.859375 m 1,70,71
 910.44140625 632.107421875 910.44140625 632.107421875 751.69140625 632.107421875 c 2,72,-1
 699.470703125 632.107421875 l 1,73,-1
 699.470703125 692.68359375 l 1,74,-1
 692.16015625 699.994140625 l 1,75,76
 640.984375 757.435546875 640.984375 757.435546875 565.787109375 769.96875 c 1,77,78
 639.939453125 823.234375 639.939453125 823.234375 730.8046875 823.234375 c 0,79,80
 750.6484375 823.234375 750.6484375 823.234375 755.869140625 822.189453125 c 1,81,-1
 753.78125 822.189453125 l 1,82,83
 918.796875 822.189453125 918.796875 822.189453125 954.306640625 758.48046875 c 1,84,-1
 954.306640625 696.859375 l 1,70,71
746.470703125 485.890625 m 2,85,-1
 753.78125 485.890625 l 2,86,87
 911.486328125 485.890625 911.486328125 485.890625 957.439453125 551.6875 c 1,88,-1
 957.439453125 490.068359375 l 1,89,90
 912.53125 426.359375 912.53125 426.359375 755.869140625 426.359375 c 2,91,-1
 746.470703125 426.359375 l 2,92,93
 720.359375 426.359375 720.359375 426.359375 703.6484375 430.537109375 c 1,94,-1
 703.6484375 490.068359375 l 1,95,96
 728.71484375 485.890625 728.71484375 485.890625 746.470703125 485.890625 c 2,85,-1
746.470703125 587.197265625 m 2,97,-1
 753.78125 587.197265625 l 2,98,99
 911.486328125 587.197265625 911.486328125 587.197265625 957.439453125 652.99609375 c 1,100,-1
 957.439453125 591.375 l 1,101,102
 911.486328125 526.62109375 911.486328125 526.62109375 755.869140625 526.62109375 c 2,103,-1
 746.470703125 526.62109375 l 2,104,105
 720.359375 526.62109375 720.359375 526.62109375 703.6484375 530.798828125 c 1,106,-1
 703.6484375 591.375 l 1,107,108
 728.71484375 587.197265625 728.71484375 587.197265625 746.470703125 587.197265625 c 2,97,-1
EndSplineSet
EndChar

StartChar: uniE00C
Encoding: 57356 57356 15
Width: 1024
VWidth: 1024
GlyphClass: 2
Flags: HW
LayerCount: 2
Fore
SplineSet
117.67578125 528.69140625 m 2,0,1
 66.560546875 528.69140625 66.560546875 528.69140625 66.560546875 578.763671875 c 2,2,-1
 66.560546875 779.0546875 l 2,3,4
 67.603515625 829.12890625 67.603515625 829.12890625 117.67578125 829.12890625 c 2,5,-1
 618.404296875 829.12890625 l 2,6,7
 668.478515625 829.12890625 668.478515625 829.12890625 668.478515625 779.0546875 c 2,8,-1
 668.478515625 577.720703125 l 2,9,10
 668.478515625 528.69140625 668.478515625 528.69140625 620.490234375 528.69140625 c 2,11,-1
 117.67578125 528.69140625 l 2,0,1
106.201171875 599.626953125 m 2,12,-1
 106.201171875 597.541015625 l 2,13,14
 107.244140625 572.50390625 107.244140625 572.50390625 132.28125 572.50390625 c 2,15,-1
 136.453125 572.50390625 l 2,16,17
 163.576171875 572.50390625 163.576171875 572.50390625 163.576171875 599.626953125 c 128,-1,18
 163.576171875 626.75 163.576171875 626.75 137.49609375 626.75 c 2,19,-1
 132.28125 626.75 l 2,20,21
 106.201171875 625.70703125 106.201171875 625.70703125 106.201171875 599.626953125 c 2,12,-1
108.287109375 751.931640625 m 2,22,-1
 108.287109375 747.759765625 l 2,23,24
 109.330078125 721.6796875 109.330078125 721.6796875 134.3671875 721.6796875 c 2,25,-1
 139.58203125 721.6796875 l 2,26,27
 165.662109375 722.72265625 165.662109375 722.72265625 165.662109375 748.802734375 c 2,28,-1
 165.662109375 750.888671875 l 2,29,30
 164.619140625 776.96875 164.619140625 776.96875 138.5390625 776.96875 c 2,31,-1
 134.3671875 776.96875 l 2,32,33
 108.287109375 775.92578125 108.287109375 775.92578125 108.287109375 751.931640625 c 2,22,-1
188.61328125 678.91015625 m 2,34,-1
 188.61328125 676.822265625 l 1,35,-1
 190.69921875 676.822265625 l 1,36,37
 192.78515625 649.701171875 192.78515625 649.701171875 217.822265625 649.701171875 c 2,38,-1
 226.16796875 649.701171875 l 1,39,40
 251.203125 653.873046875 251.203125 653.873046875 251.203125 675.779296875 c 0,41,42
 251.203125 682.0390625 251.203125 682.0390625 250.16015625 684.125 c 0,43,44
 244.9453125 709.162109375 244.9453125 709.162109375 224.080078125 709.162109375 c 0,45,46
 217.822265625 709.162109375 217.822265625 709.162109375 216.779296875 708.119140625 c 0,47,48
 188.61328125 706.033203125 188.61328125 706.033203125 188.61328125 678.91015625 c 2,34,-1
261.634765625 600.669921875 m 2,49,-1
 261.634765625 596.498046875 l 2,50,51
 262.677734375 570.41796875 262.677734375 570.41796875 287.71484375 570.41796875 c 2,52,-1
 291.888671875 570.41796875 l 2,53,54
 320.0546875 572.50390625 320.0546875 572.50390625 320.0546875 598.583984375 c 2,55,-1
 320.0546875 600.669921875 l 1,56,-1
 317.966796875 602.7578125 l 1,57,58
 317.966796875 629.87890625 317.966796875 629.87890625 291.888671875 629.87890625 c 2,59,-1
 289.80078125 629.87890625 l 2,60,61
 261.634765625 628.8359375 261.634765625 628.8359375 261.634765625 600.669921875 c 2,49,-1
261.634765625 749.845703125 m 2,62,-1
 261.634765625 745.673828125 l 2,63,64
 263.72265625 718.55078125 263.72265625 718.55078125 290.84375 718.55078125 c 2,65,-1
 292.931640625 718.55078125 l 2,66,67
 320.0546875 720.63671875 320.0546875 720.63671875 320.0546875 746.716796875 c 2,68,-1
 320.0546875 748.802734375 l 1,69,-1
 319.009765625 748.802734375 l 1,70,71
 317.966796875 776.96875 317.966796875 776.96875 291.888671875 776.96875 c 2,72,-1
 289.80078125 776.96875 l 2,73,74
 261.634765625 774.8828125 261.634765625 774.8828125 261.634765625 749.845703125 c 2,62,-1
405.595703125 194.87109375 m 2,75,76
 355.521484375 194.87109375 355.521484375 194.87109375 355.521484375 244.9453125 c 2,77,-1
 355.521484375 447.322265625 l 2,78,79
 356.564453125 495.30859375 356.564453125 495.30859375 403.5078125 495.30859375 c 2,80,-1
 906.32421875 495.30859375 l 2,81,82
 957.439453125 495.30859375 957.439453125 495.30859375 957.439453125 445.236328125 c 2,83,-1
 957.439453125 244.9453125 l 2,84,85
 956.396484375 194.87109375 956.396484375 194.87109375 906.32421875 194.87109375 c 2,86,-1
 405.595703125 194.87109375 l 2,75,76
361.78125 792.6171875 m 1,87,-1
 361.78125 562.072265625 l 1,88,-1
 378.47265625 562.072265625 l 1,89,-1
 378.47265625 792.6171875 l 1,90,-1
 361.78125 792.6171875 l 1,87,-1
399.3359375 280.412109375 m 2,91,-1
 399.3359375 275.197265625 l 1,92,-1
 400.37890625 273.111328125 l 1,93,94
 401.421875 244.9453125 401.421875 244.9453125 429.587890625 244.9453125 c 0,95,96
 457.75390625 247.03125 457.75390625 247.03125 457.75390625 273.111328125 c 2,97,-1
 457.75390625 277.283203125 l 2,98,99
 455.66796875 305.44921875 455.66796875 305.44921875 430.630859375 305.44921875 c 2,100,-1
 425.416015625 305.44921875 l 2,101,102
 399.3359375 304.40625 399.3359375 304.40625 399.3359375 280.412109375 c 2,91,-1
399.3359375 421.2421875 m 2,103,-1
 399.3359375 419.15625 l 2,104,105
 402.46484375 393.076171875 402.46484375 393.076171875 425.416015625 393.076171875 c 2,106,-1
 430.630859375 393.076171875 l 1,107,-1
 436.890625 394.119140625 l 2,108,109
 461.927734375 397.25 461.927734375 397.25 461.927734375 419.15625 c 0,110,111
 461.927734375 425.416015625 461.927734375 425.416015625 460.884765625 427.501953125 c 0,112,113
 457.75390625 452.5390625 457.75390625 452.5390625 435.84765625 452.5390625 c 0,114,115
 429.587890625 452.5390625 429.587890625 452.5390625 427.501953125 451.49609375 c 0,116,117
 399.3359375 449.408203125 399.3359375 449.408203125 399.3359375 421.2421875 c 2,103,-1
410.810546875 603.80078125 m 2,118,-1
 410.810546875 599.626953125 l 2,119,120
 411.853515625 573.546875 411.853515625 573.546875 437.93359375 573.546875 c 2,121,-1
 440.01953125 573.546875 l 2,122,123
 467.142578125 573.546875 467.142578125 573.546875 467.142578125 601.712890625 c 0,124,125
 467.142578125 628.8359375 467.142578125 628.8359375 440.01953125 628.8359375 c 2,126,-1
 435.84765625 628.8359375 l 2,127,128
 410.810546875 626.75 410.810546875 626.75 410.810546875 603.80078125 c 2,118,-1
414.984375 750.888671875 m 2,129,-1
 414.984375 746.716796875 l 2,130,131
 414.984375 722.72265625 414.984375 722.72265625 440.01953125 721.6796875 c 1,132,-1
 441.0625 722.72265625 l 1,133,-1
 443.150390625 722.72265625 l 2,134,135
 469.228515625 722.72265625 469.228515625 722.72265625 469.228515625 750.888671875 c 0,136,137
 469.228515625 778.01171875 469.228515625 778.01171875 442.107421875 778.01171875 c 128,-1,138
 414.984375 778.01171875 414.984375 778.01171875 414.984375 750.888671875 c 2,129,-1
581.892578125 301.27734375 m 1,139,140
 553.7265625 301.27734375 553.7265625 301.27734375 553.7265625 273.111328125 c 0,141,142
 553.7265625 245.98828125 553.7265625 245.98828125 580.849609375 245.98828125 c 0,143,144
 609.015625 245.98828125 609.015625 245.98828125 609.015625 273.111328125 c 2,145,-1
 609.015625 275.197265625 l 2,146,147
 609.015625 301.27734375 609.015625 301.27734375 582.935546875 302.3203125 c 1,148,-1
 581.892578125 301.27734375 l 1,139,140
582.935546875 450.451171875 m 2,149,150
 555.814453125 450.451171875 555.814453125 450.451171875 555.814453125 422.28515625 c 0,151,152
 555.814453125 395.1640625 555.814453125 395.1640625 582.935546875 395.1640625 c 2,153,-1
 588.15234375 395.1640625 l 2,154,155
 613.189453125 397.25 613.189453125 397.25 613.189453125 420.19921875 c 2,156,-1
 613.189453125 424.373046875 l 2,157,158
 612.146484375 450.451171875 612.146484375 450.451171875 586.06640625 450.451171875 c 2,159,-1
 582.935546875 450.451171875 l 2,149,150
587.109375 776.96875 m 1,160,161
 562.072265625 772.796875 562.072265625 772.796875 562.072265625 750.888671875 c 0,162,163
 562.072265625 744.630859375 562.072265625 744.630859375 563.115234375 742.54296875 c 0,164,165
 568.33203125 717.5078125 568.33203125 717.5078125 588.15234375 717.5078125 c 0,166,167
 594.412109375 717.5078125 594.412109375 717.5078125 596.498046875 718.55078125 c 2,168,-1
 597.541015625 718.55078125 l 2,169,170
 623.62109375 719.59375 623.62109375 719.59375 623.62109375 743.587890625 c 2,171,-1
 623.62109375 748.802734375 l 1,172,-1
 622.578125 748.802734375 l 1,173,174
 620.490234375 776.96875 620.490234375 776.96875 593.369140625 776.96875 c 2,175,-1
 587.109375 776.96875 l 1,160,161
569.375 602.7578125 m 2,176,-1
 569.375 598.583984375 l 2,177,178
 569.375 574.591796875 569.375 574.591796875 596.498046875 572.50390625 c 0,179,180
 623.62109375 574.591796875 623.62109375 574.591796875 623.62109375 600.669921875 c 2,181,-1
 623.62109375 602.7578125 l 1,182,-1
 622.578125 602.7578125 l 1,183,184
 620.490234375 629.87890625 620.490234375 629.87890625 595.455078125 629.87890625 c 2,185,-1
 593.369140625 629.87890625 l 2,186,187
 571.4609375 626.75 571.4609375 626.75 569.375 602.7578125 c 2,176,-1
649.701171875 461.927734375 m 1,188,-1
 649.701171875 229.296875 l 1,189,-1
 662.21875 229.296875 l 1,190,-1
 663.26171875 461.927734375 l 1,191,-1
 649.701171875 461.927734375 l 1,188,-1
797.83203125 374.298828125 m 1,192,193
 772.796875 370.126953125 772.796875 370.126953125 772.796875 348.220703125 c 0,194,195
 772.796875 341.9609375 772.796875 341.9609375 773.83984375 339.875 c 0,196,197
 779.0546875 314.837890625 779.0546875 314.837890625 799.919921875 314.837890625 c 0,198,199
 806.177734375 314.837890625 806.177734375 314.837890625 807.220703125 315.880859375 c 0,200,201
 835.38671875 317.966796875 835.38671875 317.966796875 835.38671875 345.08984375 c 2,202,-1
 835.38671875 347.17578125 l 1,203,-1
 833.30078125 347.17578125 l 1,204,205
 831.21484375 374.298828125 831.21484375 374.298828125 806.177734375 374.298828125 c 2,206,-1
 797.83203125 374.298828125 l 1,192,193
EndSplineSet
EndChar

StartChar: uniE00D
Encoding: 57357 57357 16
Width: 1024
VWidth: 1024
GlyphClass: 2
Flags: HW
LayerCount: 2
Fore
SplineSet
70.9921875 333.048828125 m 0,0,1
 66.560546875 356.318359375 66.560546875 356.318359375 66.560546875 391.776367188 c 2,2,-1
 66.560546875 412.829101562 l 2,3,4
 66.560546875 564.6328125 66.560546875 564.6328125 145.232421875 699.81640625 c 0,5,6
 156.3125 719.76171875 156.3125 719.76171875 169.609375 735.274414062 c 0,7,8
 222.796875 810.622070312 222.796875 810.622070312 299.251953125 810.622070312 c 0,9,10
 333.6015625 810.622070312 333.6015625 810.622070312 373.4921875 794.001953125 c 0,11,12
 407.841796875 782.920898438 407.841796875 782.920898438 437.759765625 761.868164062 c 0,13,14
 463.24609375 746.35546875 463.24609375 746.35546875 488.73046875 746.35546875 c 2,15,-1
 535.26953125 746.35546875 l 2,16,17
 560.75390625 746.35546875 560.75390625 746.35546875 586.240234375 761.868164062 c 0,18,19
 636.103515625 798.43359375 636.103515625 798.43359375 697.044921875 806.190429688 c 0,20,21
 702.5859375 807.297851562 702.5859375 807.297851562 721.423828125 807.297851562 c 0,22,23
 795.6640625 807.297851562 795.6640625 807.297851562 846.634765625 746.35546875 c 0,24,25
 900.9296875 675.439453125 900.9296875 675.439453125 929.73828125 589.010742188 c 0,26,27
 957.439453125 504.797851562 957.439453125 504.797851562 957.439453125 412.829101562 c 0,28,29
 957.439453125 360.75 957.439453125 360.75 945.251953125 294.266601562 c 0,30,31
 943.03515625 268.78125 943.03515625 268.78125 929.73828125 249.944335938 c 0,32,33
 908.685546875 215.594726562 908.685546875 215.594726562 876.55078125 215.594726562 c 0,34,35
 856.607421875 215.594726562 856.607421875 215.594726562 838.876953125 226.674804688 c 0,36,37
 802.3125 245.51171875 802.3125 245.51171875 767.9609375 282.078125 c 2,38,-1
 733.611328125 317.536132812 l 1,39,-1
 701.478515625 352.994140625 l 2,40,41
 679.31640625 376.262695312 679.31640625 376.262695312 649.3984375 376.262695312 c 2,42,-1
 371.275390625 376.262695312 l 2,43,44
 341.359375 376.262695312 341.359375 376.262695312 322.521484375 352.994140625 c 0,45,46
 277.091796875 293.158203125 277.091796875 293.158203125 225.01171875 249.944335938 c 1,47,-1
 189.5546875 226.674804688 l 1,48,-1
 180.689453125 223.350585938 l 2,49,50
 160.744140625 213.377929688 160.744140625 213.377929688 144.125 213.377929688 c 0,51,52
 110.8828125 213.377929688 110.8828125 213.377929688 89.830078125 254.376953125 c 1,53,54
 74.31640625 296.482421875 74.31640625 296.482421875 70.9921875 333.048828125 c 0,0,1
228.3359375 581.25390625 m 2,55,-1
 228.3359375 539.147460938 l 2,56,57
 230.552734375 530.283203125 230.552734375 530.283203125 238.30859375 530.283203125 c 2,58,-1
 291.49609375 530.283203125 l 1,59,-1
 291.49609375 479.3125 l 2,60,61
 292.603515625 471.556640625 292.603515625 471.556640625 299.251953125 471.556640625 c 2,62,-1
 342.466796875 471.556640625 l 2,63,64
 354.65625 471.556640625 354.65625 471.556640625 354.65625 482.63671875 c 2,65,-1
 354.65625 530.283203125 l 1,66,-1
 404.517578125 530.283203125 l 2,67,68
 413.3828125 532.499023438 413.3828125 532.499023438 413.3828125 540.255859375 c 2,69,-1
 413.3828125 587.90234375 l 2,70,71
 411.166015625 596.766601562 411.166015625 596.766601562 404.517578125 596.766601562 c 2,72,-1
 354.65625 596.766601562 l 1,73,-1
 354.65625 644.413085938 l 2,74,75
 351.33203125 655.494140625 351.33203125 655.494140625 340.25 655.494140625 c 2,76,-1
 295.927734375 655.494140625 l 2,77,78
 287.064453125 653.278320312 287.064453125 653.278320312 287.064453125 646.629882812 c 2,79,-1
 287.064453125 596.766601562 l 1,80,-1
 240.525390625 596.766601562 l 2,81,82
 230.552734375 593.442382812 230.552734375 593.442382812 228.3359375 581.25390625 c 2,55,-1
641.642578125 596.766601562 m 128,-1,84
 606.185546875 596.766601562 606.185546875 596.766601562 606.185546875 561.30859375 c 128,-1,85
 606.185546875 525.8515625 606.185546875 525.8515625 641.642578125 525.8515625 c 1,86,87
 672.66796875 530.283203125 672.66796875 530.283203125 677.1015625 561.30859375 c 1,88,83
 677.1015625 596.766601562 677.1015625 596.766601562 641.642578125 596.766601562 c 128,-1,84
669.34375 504.797851562 m 2,89,-1
 669.34375 502.58203125 l 2,90,91
 669.34375 467.124023438 669.34375 467.124023438 704.802734375 467.124023438 c 2,92,-1
 708.126953125 467.124023438 l 2,93,94
 740.259765625 467.124023438 740.259765625 467.124023438 740.259765625 499.2578125 c 0,95,96
 740.259765625 534.715820312 740.259765625 534.715820312 704.802734375 534.715820312 c 2,97,-1
 698.154296875 534.715820312 l 2,98,99
 669.34375 532.499023438 669.34375 532.499023438 669.34375 504.797851562 c 2,89,-1
704.802734375 659.926757812 m 2,100,101
 673.77734375 659.926757812 673.77734375 659.926757812 670.453125 628.900390625 c 0,102,103
 671.560546875 597.875 671.560546875 597.875 701.478515625 589.010742188 c 1,104,105
 736.935546875 589.010742188 736.935546875 589.010742188 736.935546875 624.46875 c 2,106,-1
 736.935546875 632.224609375 l 2,107,108
 735.828125 659.926757812 735.828125 659.926757812 709.234375 659.926757812 c 2,109,-1
 704.802734375 659.926757812 l 2,100,101
736.935546875 565.741210938 m 2,110,-1
 736.935546875 561.30859375 l 2,111,112
 736.935546875 525.8515625 736.935546875 525.8515625 772.39453125 525.8515625 c 0,113,114
 802.3125 528.067382812 802.3125 528.067382812 807.8515625 557.984375 c 1,115,116
 805.634765625 593.442382812 805.634765625 593.442382812 772.39453125 593.442382812 c 2,117,-1
 764.63671875 593.442382812 l 2,118,119
 736.935546875 592.334960938 736.935546875 592.334960938 736.935546875 565.741210938 c 2,110,-1
EndSplineSet
EndChar

StartChar: uniE00E
Encoding: 57358 57358 17
Width: 1024
VWidth: 1024
GlyphClass: 2
Flags: HW
LayerCount: 2
Fore
SplineSet
68.638671875 679.365234375 m 2,0,1
 66.560546875 693.91796875 66.560546875 693.91796875 66.560546875 695.997070312 c 0,2,3
 66.560546875 728.22265625 66.560546875 728.22265625 103.982421875 737.579101562 c 2,4,-1
 385.697265625 811.385742188 l 1,5,-1
 391.93359375 813.46484375 l 1,6,-1
 396.091796875 814.50390625 l 2,7,8
 399.2109375 815.543945312 399.2109375 815.543945312 407.52734375 815.543945312 c 0,9,10
 439.751953125 815.543945312 439.751953125 815.543945312 448.068359375 778.120117188 c 2,11,-1
 563.45703125 347.75390625 l 2,12,13
 566.576171875 338.397460938 566.576171875 338.397460938 566.576171875 330.08203125 c 0,14,15
 566.576171875 298.895507812 566.576171875 298.895507812 530.19140625 289.540039062 c 2,16,-1
 246.3984375 214.693359375 l 1,17,-1
 242.240234375 213.654296875 l 2,18,19
 227.6875 211.575195312 227.6875 211.575195312 226.6484375 211.575195312 c 0,20,21
 192.34375 211.575195312 192.34375 211.575195312 185.06640625 248.998046875 c 2,22,-1
 68.638671875 678.325195312 l 1,23,-1
 68.638671875 679.365234375 l 2,0,1
265.111328125 695.997070312 m 0,24,25
 200.66015625 678.325195312 200.66015625 678.325195312 200.66015625 619.072265625 c 0,26,27
 200.66015625 607.63671875 200.66015625 607.63671875 205.857421875 581.6484375 c 2,28,-1
 216.251953125 544.225585938 l 1,29,-1
 272.38671875 558.779296875 l 1,30,-1
 260.953125 600.360351562 l 2,31,32
 257.833984375 611.794921875 257.833984375 611.794921875 257.833984375 618.032226562 c 0,33,34
 257.833984375 638.823242188 257.833984375 638.823242188 279.6640625 644.020507812 c 0,35,36
 281.744140625 645.060546875 281.744140625 645.060546875 287.98046875 645.060546875 c 0,37,38
 312.9296875 645.060546875 312.9296875 645.060546875 321.24609375 610.755859375 c 0,39,40
 325.404296875 599.3203125 325.404296875 599.3203125 325.404296875 581.6484375 c 0,41,42
 325.404296875 539.02734375 325.404296875 539.02734375 295.2578125 480.813476562 c 0,43,44
 272.38671875 436.114257812 272.38671875 436.114257812 268.23046875 420.520507812 c 0,45,46
 264.072265625 407.006835938 264.072265625 407.006835938 264.072265625 385.176757812 c 0,47,48
 264.072265625 364.385742188 264.072265625 364.385742188 268.23046875 348.79296875 c 2,49,-1
 279.6640625 305.1328125 l 1,50,-1
 448.068359375 348.79296875 l 1,51,-1
 433.515625 401.809570312 l 1,52,-1
 324.365234375 371.663085938 l 1,53,-1
 323.32421875 375.821289062 l 2,54,55
 322.28515625 377.900390625 322.28515625 377.900390625 322.28515625 386.216796875 c 0,56,57
 322.28515625 398.690429688 322.28515625 398.690429688 330.6015625 423.639648438 c 2,58,-1
 342.037109375 450.666992188 l 1,59,-1
 356.58984375 479.774414062 l 2,60,61
 384.658203125 536.948242188 384.658203125 536.948242188 384.658203125 585.806640625 c 0,62,63
 384.658203125 602.439453125 384.658203125 602.439453125 379.458984375 625.30859375 c 0,64,65
 352.431640625 700.155273438 352.431640625 700.155273438 294.21875 700.155273438 c 0,66,67
 277.5859375 700.155273438 277.5859375 700.155273438 265.111328125 695.997070312 c 0,24,25
603.998046875 360.228515625 m 2,68,-1
 533.310546875 626.348632812 l 1,69,-1
 574.892578125 779.16015625 l 1,70,-1
 574.892578125 780.19921875 l 1,71,72
 585.287109375 814.50390625 585.287109375 814.50390625 614.39453125 814.50390625 c 0,73,74
 622.7109375 814.50390625 622.7109375 814.50390625 634.14453125 811.385742188 c 2,75,-1
 917.9375 737.579101562 l 2,76,77
 957.439453125 723.025390625 957.439453125 723.025390625 957.439453125 687.680664062 c 0,78,79
 957.439453125 677.286132812 957.439453125 677.286132812 956.400390625 674.166992188 c 2,80,-1
 837.89453125 243.80078125 l 2,81,82
 827.498046875 208.456054688 827.498046875 208.456054688 797.3515625 208.456054688 c 0,83,84
 789.03515625 208.456054688 789.03515625 208.456054688 778.640625 211.575195312 c 2,85,-1
 574.892578125 267.709960938 l 1,86,87
 590.484375 276.025390625 590.484375 276.025390625 596.72265625 293.698242188 c 0,88,89
 608.15625 314.48828125 608.15625 314.48828125 608.15625 334.239257812 c 0,90,91
 608.15625 348.79296875 608.15625 348.79296875 603.998046875 360.228515625 c 2,68,-1
716.267578125 621.151367188 m 1,92,-1
 641.421875 340.4765625 l 1,93,-1
 696.517578125 326.962890625 l 1,94,-1
 795.2734375 692.87890625 l 1,95,-1
 757.849609375 703.274414062 l 1,96,97
 741.216796875 667.9296875 741.216796875 667.9296875 710.03125 667.9296875 c 0,98,99
 700.67578125 667.9296875 700.67578125 667.9296875 683.00390625 673.127929688 c 1,100,-1
 672.607421875 632.5859375 l 1,101,-1
 716.267578125 621.151367188 l 1,92,-1
EndSplineSet
EndChar

StartChar: uniE00F
Encoding: 57359 57359 18
Width: 1024
VWidth: 1024
GlyphClass: 2
Flags: HW
LayerCount: 2
Fore
SplineSet
202.580078125 551.45703125 m 2,0,1
 188.04296875 562.876953125 188.04296875 562.876953125 188.04296875 575.337890625 c 0,2,3
 188.04296875 582.60546875 188.04296875 582.60546875 194.2734375 594.02734375 c 2,4,-1
 394.669921875 940.826171875 l 2,5,6
 398.822265625 948.095703125 398.822265625 948.095703125 406.091796875 952.248046875 c 1,7,-1
 407.12890625 952.248046875 l 1,8,9
 419.58984375 957.439453125 419.58984375 957.439453125 424.78125 957.439453125 c 0,10,11
 438.279296875 957.439453125 438.279296875 957.439453125 448.662109375 940.826171875 c 2,12,-1
 646.982421875 591.951171875 l 2,13,14
 651.134765625 584.681640625 651.134765625 584.681640625 651.134765625 576.376953125 c 0,15,16
 651.134765625 545.2265625 651.134765625 545.2265625 619.986328125 545.2265625 c 2,17,-1
 221.26953125 545.2265625 l 2,18,19
 212.962890625 545.2265625 212.962890625 545.2265625 205.6953125 549.37890625 c 2,20,-1
 202.580078125 551.45703125 l 2,0,1
378.056640625 431.01171875 m 2,21,22
 373.90234375 438.279296875 373.90234375 438.279296875 373.90234375 446.5859375 c 0,23,24
 373.90234375 477.736328125 373.90234375 477.736328125 405.052734375 477.736328125 c 2,25,-1
 803.767578125 477.736328125 l 2,26,27
 812.07421875 477.736328125 812.07421875 477.736328125 819.34375 473.58203125 c 1,28,-1
 819.34375 472.54296875 l 1,29,30
 835.95703125 463.19921875 835.95703125 463.19921875 835.95703125 448.662109375 c 0,31,32
 835.95703125 444.509765625 835.95703125 444.509765625 830.765625 431.01171875 c 2,33,-1
 630.369140625 84.2109375 l 2,34,35
 628.29296875 76.943359375 628.29296875 76.943359375 621.0234375 72.7890625 c 2,36,-1
 617.908203125 71.751953125 l 2,37,38
 605.44921875 66.560546875 605.44921875 66.560546875 600.2578125 66.560546875 c 0,39,40
 585.720703125 66.560546875 585.720703125 66.560546875 576.376953125 84.2109375 c 2,41,-1
 378.056640625 431.01171875 l 2,21,22
EndSplineSet
EndChar

StartChar: uniE010
Encoding: 57360 57360 19
Width: 1024
VWidth: 1024
GlyphClass: 2
Flags: HW
LayerCount: 2
Fore
SplineSet
200.244140625 490.068359375 m 1,0,-1
 66.560546875 490.068359375 l 1,1,-1
 512.5234375 890.076171875 l 1,2,-1
 957.439453125 490.068359375 l 1,3,-1
 823.755859375 490.068359375 l 1,4,-1
 823.755859375 133.923828125 l 1,5,-1
 601.296875 133.923828125 l 1,6,-1
 601.296875 401.29296875 l 1,7,-1
 423.748046875 401.29296875 l 1,8,-1
 423.748046875 133.923828125 l 1,9,-1
 200.244140625 133.923828125 l 1,10,-1
 200.244140625 490.068359375 l 1,0,-1
EndSplineSet
EndChar

StartChar: uniE011
Encoding: 57361 57361 20
Width: 1024
VWidth: 1024
GlyphClass: 2
Flags: HW
LayerCount: 2
Fore
SplineSet
196.67578125 197.26171875 m 0,0,1
 66.560546875 327.376953125 66.560546875 327.376953125 66.560546875 512.5859375 c 0,2,3
 66.560546875 696.623046875 66.560546875 696.623046875 196.67578125 826.73828125 c 0,4,5
 329.134765625 956.853515625 329.134765625 956.853515625 512 956.853515625 c 0,6,7
 696.037109375 956.853515625 696.037109375 956.853515625 826.15234375 826.73828125 c 0,8,9
 955.095703125 697.794921875 955.095703125 697.794921875 957.439453125 512.5859375 c 0,10,11
 957.439453125 327.376953125 957.439453125 327.376953125 827.32421875 197.26171875 c 0,12,13
 694.865234375 67.146484375 694.865234375 67.146484375 512 67.146484375 c 128,-1,14
 329.134765625 67.146484375 329.134765625 67.146484375 196.67578125 197.26171875 c 0,0,1
467.45703125 557.130859375 m 1,15,-1
 467.45703125 292.2109375 l 1,16,-1
 556.544921875 292.2109375 l 1,17,-1
 556.544921875 557.130859375 l 1,18,-1
 467.45703125 557.130859375 l 1,15,-1
467.45703125 737.650390625 m 1,19,-1
 467.45703125 647.390625 l 1,20,-1
 556.544921875 647.390625 l 1,21,-1
 556.544921875 737.650390625 l 1,22,-1
 467.45703125 737.650390625 l 1,19,-1
EndSplineSet
EndChar

StartChar: uniE012
Encoding: 57362 57362 21
Width: 1024
VWidth: 1024
GlyphClass: 2
Flags: HW
LayerCount: 2
Fore
SplineSet
150.634765625 419.5703125 m 0,0,1
 146.45703125 441.501953125 146.45703125 441.501953125 146.45703125 474.923828125 c 0,2,3
 146.45703125 557.431640625 146.45703125 557.431640625 185.100585938 630.541015625 c 0,4,5
 214.34375 681.716796875 214.34375 681.716796875 265.51953125 712.00390625 c 0,6,7
 315.651367188 743.3359375 315.651367188 743.3359375 373.09375 743.3359375 c 0,8,9
 423.225585938 741.248046875 423.225585938 741.248046875 468.134765625 721.404296875 c 0,10,11
 492.15625 708.87109375 492.15625 708.87109375 519.310546875 705.73828125 c 1,12,13
 545.420898438 709.916015625 545.420898438 709.916015625 567.353515625 720.359375 c 0,14,15
 619.57421875 745.42578125 619.57421875 745.42578125 677.016601562 745.42578125 c 2,16,-1
 686.416015625 745.42578125 l 2,17,18
 735.502929688 743.3359375 735.502929688 743.3359375 780.413085938 719.314453125 c 0,19,20
 823.233398438 697.3828125 823.233398438 697.3828125 851.432617188 655.60546875 c 2,21,-1
 857.69921875 647.25 l 1,22,-1
 849.34375 642.029296875 l 1,23,-1
 848.299804688 642.029296875 l 1,24,25
 760.569335938 587.71875 760.569335938 587.71875 759.524414062 484.322265625 c 0,26,27
 759.524414062 365.259765625 759.524414062 365.259765625 869.1875 316.173828125 c 1,28,-1
 877.54296875 313.041015625 l 1,29,-1
 874.409179688 304.685546875 l 2,30,31
 852.477539062 234.708984375 852.477539062 234.708984375 813.833984375 179.35546875 c 0,32,33
 786.6796875 138.623046875 786.6796875 138.623046875 754.302734375 104.158203125 c 0,34,35
 720.881835938 69.693359375 720.881835938 69.693359375 671.794921875 67.603515625 c 0,36,37
 634.196289062 67.603515625 634.196289062 67.603515625 600.774414062 85.359375 c 0,38,39
 568.3984375 102.0703125 568.3984375 102.0703125 528.7109375 102.0703125 c 0,40,41
 491.112304688 102.0703125 491.112304688 102.0703125 452.46875 84.314453125 c 0,42,43
 418.002929688 69.693359375 418.002929688 69.693359375 385.626953125 66.560546875 c 1,44,45
 336.540039062 68.6484375 336.540039062 68.6484375 302.07421875 104.158203125 c 0,46,47
 263.430664062 145.935546875 263.430664062 145.935546875 239.409179688 181.4453125 c 0,48,49
 167.345703125 291.107421875 167.345703125 291.107421875 150.634765625 419.5703125 c 0,0,1
501.555664062 744.380859375 m 2,50,51
 500.51171875 748.55859375 500.51171875 748.55859375 500.51171875 763.1796875 c 0,52,53
 500.51171875 791.37890625 500.51171875 791.37890625 509.911132812 817.48828125 c 0,54,55
 523.48828125 856.1328125 523.48828125 856.1328125 550.643554688 887.46484375 c 0,56,57
 577.797851562 917.751953125 577.797851562 917.751953125 613.307617188 935.5078125 c 0,58,59
 646.728515625 954.306640625 646.728515625 954.306640625 685.372070312 957.439453125 c 2,60,-1
 693.727539062 957.439453125 l 1,61,-1
 693.727539062 948.041015625 l 2,62,63
 694.771484375 943.86328125 694.771484375 943.86328125 694.771484375 929.240234375 c 0,64,65
 694.771484375 899.998046875 694.771484375 899.998046875 685.372070312 872.841796875 c 1,66,-1
 686.416015625 872.841796875 l 1,67,68
 674.927734375 836.2890625 674.927734375 836.2890625 646.728515625 801.822265625 c 0,69,70
 620.618164062 769.447265625 620.618164062 769.447265625 583.01953125 751.69140625 c 0,71,72
 548.5546875 737.0703125 548.5546875 737.0703125 518.266601562 737.0703125 c 2,73,-1
 501.555664062 737.0703125 l 1,74,-1
 501.555664062 744.380859375 l 2,50,51
EndSplineSet
EndChar

StartChar: uniE013
Encoding: 57363 57363 22
Width: 1024
VWidth: 1024
GlyphClass: 2
Flags: HW
LayerCount: 2
Fore
SplineSet
115.411132812 677.98828125 m 0,0,1
 110.158203125 709.505859375 110.158203125 709.505859375 110.158203125 727.365234375 c 0,2,3
 110.158203125 794.6015625 110.158203125 794.6015625 149.029296875 852.3828125 c 0,4,5
 168.990234375 879.697265625 168.990234375 879.697265625 179.49609375 890.203125 c 0,6,7
 246.731445312 957.439453125 246.731445312 957.439453125 343.383789062 957.439453125 c 0,8,9
 437.934570312 956.388671875 437.934570312 956.388671875 506.221679688 889.15234375 c 0,10,11
 572.407226562 824.017578125 572.407226562 824.017578125 574.508789062 726.314453125 c 2,12,-1
 574.508789062 724.21484375 l 2,13,14
 574.508789062 690.595703125 574.508789062 690.595703125 565.053710938 659.078125 c 1,15,16
 516.727539062 648.57421875 516.727539062 648.57421875 474.705078125 625.4609375 c 1,17,18
 514.625976562 659.078125 514.625976562 659.078125 525.131835938 709.505859375 c 0,19,20
 531.435546875 733.669921875 531.435546875 733.669921875 531.435546875 754.6796875 c 0,21,22
 531.435546875 797.75390625 531.435546875 797.75390625 507.272460938 840.826171875 c 0,23,24
 471.552734375 901.759765625 471.552734375 901.759765625 402.215820312 920.669921875 c 0,25,26
 378.052734375 926.97265625 378.052734375 926.97265625 354.940429688 926.97265625 c 0,27,28
 316.069335938 926.97265625 316.069335938 926.97265625 276.147460938 905.962890625 c 0,29,30
 216.265625 873.39453125 216.265625 873.39453125 197.35546875 807.208984375 c 1,31,-1
 196.3046875 806.158203125 l 1,32,33
 190.000976562 783.044921875 190.000976562 783.044921875 190.000976562 758.8828125 c 0,34,35
 190.000976562 712.658203125 190.000976562 712.658203125 213.114257812 673.787109375 c 0,36,37
 249.883789062 611.802734375 249.883789062 611.802734375 318.169921875 592.892578125 c 2,38,-1
 324.473632812 590.79296875 l 2,39,40
 350.73828125 585.5390625 350.73828125 585.5390625 368.59765625 585.5390625 c 0,41,42
 407.46875 585.5390625 407.46875 585.5390625 441.086914062 602.34765625 c 1,43,44
 382.254882812 558.224609375 382.254882812 558.224609375 349.6875 492.0390625 c 1,45,-1
 344.434570312 492.0390625 l 2,46,47
 272.99609375 492.0390625 272.99609375 492.0390625 215.21484375 530.91015625 c 0,48,49
 136.422851562 583.4375 136.422851562 583.4375 115.411132812 677.98828125 c 0,0,1
281.400390625 752.580078125 m 2,50,51
 278.249023438 757.83203125 278.249023438 757.83203125 278.249023438 762.03515625 c 2,52,-1
 281.400390625 771.490234375 l 1,53,-1
 351.788085938 858.6875 l 1,54,-1
 355.991210938 862.888671875 l 1,55,-1
 407.46875 862.888671875 l 1,56,-1
 336.030273438 773.58984375 l 2,57,58
 334.979492188 772.541015625 334.979492188 772.541015625 334.979492188 768.337890625 c 128,-1,59
 334.979492188 764.134765625 334.979492188 764.134765625 336.030273438 763.0859375 c 2,60,-1
 403.266601562 679.0390625 l 1,61,-1
 403.266601562 672.736328125 l 1,62,-1
 352.838867188 672.736328125 l 1,63,-1
 348.63671875 676.939453125 l 1,64,-1
 281.400390625 752.580078125 l 2,50,51
346.536132812 292.431640625 m 0,65,66
 341.283203125 327.099609375 341.283203125 327.099609375 341.283203125 348.111328125 c 0,67,68
 341.283203125 404.841796875 341.283203125 404.841796875 363.344726562 459.470703125 c 0,69,70
 396.962890625 539.314453125 396.962890625 539.314453125 470.502929688 587.640625 c 0,71,72
 540.890625 635.966796875 540.890625 635.966796875 630.188476562 635.966796875 c 2,73,-1
 635.44140625 635.966796875 l 2,74,75
 689.020507812 635.966796875 689.020507812 635.966796875 738.396484375 617.056640625 c 0,76,77
 913.841796875 544.56640625 913.841796875 544.56640625 913.841796875 356.515625 c 2,78,-1
 913.841796875 348.111328125 l 2,79,80
 911.740234375 247.2578125 911.740234375 247.2578125 848.706054688 171.6171875 c 0,81,82
 785.671875 93.875 785.671875 93.875 687.969726562 73.9140625 c 0,83,84
 659.604492188 66.560546875 659.604492188 66.560546875 621.784179688 66.560546875 c 0,85,86
 542.991210938 66.560546875 542.991210938 66.560546875 472.603515625 111.734375 c 0,87,88
 371.749023438 175.818359375 371.749023438 175.818359375 346.536132812 292.431640625 c 0,65,66
427.4296875 288.228515625 m 1,89,-1
 427.4296875 282.9765625 l 2,90,91
 427.4296875 248.30859375 427.4296875 248.30859375 442.13671875 209.4375 c 0,92,93
 473.654296875 130.64453125 473.654296875 130.64453125 551.396484375 95.9765625 c 0,94,95
 589.216796875 80.216796875 589.216796875 80.216796875 630.188476562 80.216796875 c 2,96,-1
 637.54296875 80.216796875 l 2,97,98
 724.739257812 80.216796875 724.739257812 80.216796875 785.671875 137.998046875 c 0,99,100
 852.908203125 198.931640625 852.908203125 198.931640625 859.211914062 288.228515625 c 1,101,-1
 859.211914062 300.8359375 l 1,102,103
 855.009765625 384.880859375 855.009765625 384.880859375 791.975585938 442.662109375 c 0,104,105
 733.143554688 495.19140625 733.143554688 495.19140625 656.453125 495.19140625 c 2,106,-1
 644.896484375 495.19140625 l 2,107,108
 557.69921875 495.19140625 557.69921875 495.19140625 495.715820312 435.30859375 c 0,109,110
 432.681640625 375.42578125 432.681640625 375.42578125 427.4296875 288.228515625 c 1,89,-1
587.115234375 154.806640625 m 1,111,-1
 579.76171875 156.908203125 l 1,112,-1
 579.76171875 167.4140625 l 1,113,-1
 672.2109375 284.02734375 l 1,114,-1
 674.3125 290.330078125 l 1,115,-1
 672.2109375 297.68359375 l 1,116,-1
 581.862304688 409.044921875 l 1,117,-1
 581.862304688 419.55078125 l 1,118,-1
 589.216796875 421.650390625 l 1,119,-1
 646.998046875 421.650390625 l 1,120,-1
 652.25 418.5 l 1,121,-1
 657.502929688 413.24609375 l 1,122,-1
 747.8515625 303.98828125 l 2,123,124
 752.053710938 299.78515625 752.053710938 299.78515625 752.053710938 292.431640625 c 0,125,126
 752.053710938 284.02734375 752.053710938 284.02734375 747.8515625 279.82421875 c 2,127,-1
 654.3515625 163.2109375 l 1,128,-1
 648.047851562 157.958984375 l 2,129,130
 642.794921875 154.806640625 642.794921875 154.806640625 638.592773438 154.806640625 c 2,131,-1
 587.115234375 154.806640625 l 1,111,-1
EndSplineSet
EndChar

StartChar: uniE014
Encoding: 57364 57364 23
Width: 1024
VWidth: 1024
GlyphClass: 2
Flags: HW
LayerCount: 2
Fore
SplineSet
110.94921875 459.869140625 m 0,0,1
 70.689453125 536.259765625 70.689453125 536.259765625 70.689453125 614.71484375 c 0,2,3
 70.689453125 664.265625 70.689453125 664.265625 86.173828125 714.84765625 c 0,4,5
 124.369140625 848.015625 124.369140625 848.015625 245.149414062 915.115234375 c 0,6,7
 324.63671875 957.439453125 324.63671875 957.439453125 404.124023438 957.439453125 c 0,8,9
 447.48046875 957.439453125 447.48046875 957.439453125 499.096679688 942.98828125 c 0,10,11
 700.395507812 882.08203125 700.395507812 882.08203125 737.55859375 674.587890625 c 1,12,13
 696.266601562 682.845703125 696.266601562 682.845703125 662.200195312 682.845703125 c 0,14,15
 537.291992188 682.845703125 537.291992188 682.845703125 446.448242188 604.390625 c 1,16,17
 429.931640625 673.5546875 429.931640625 673.5546875 373.155273438 712.783203125 c 0,18,19
 334.959960938 741.6875 334.959960938 741.6875 291.602539062 741.6875 c 0,20,21
 278.182617188 741.6875 278.182617188 741.6875 257.537109375 736.525390625 c 0,22,23
 192.500976562 712.783203125 192.500976562 712.783203125 162.564453125 650.845703125 c 0,24,25
 146.047851562 617.810546875 146.047851562 617.810546875 146.047851562 579.615234375 c 0,26,27
 146.047851562 552.775390625 146.047851562 552.775390625 155.337890625 524.904296875 c 0,28,29
 169.791015625 461.93359375 169.791015625 461.93359375 220.374023438 423.73828125 c 0,30,31
 261.666015625 391.736328125 261.666015625 391.736328125 316.377929688 391.736328125 c 0,32,33
 330.830078125 391.736328125 330.830078125 391.736328125 335.9921875 392.767578125 c 1,34,-1
 335.9921875 352.5078125 l 2,35,36
 335.9921875 329.796875 335.9921875 329.796875 341.153320312 293.666015625 c 1,37,-1
 314.313476562 297.796875 l 1,38,-1
 310.184570312 297.796875 l 1,39,40
 177.016601562 338.056640625 177.016601562 338.056640625 110.94921875 459.869140625 c 0,0,1
209.018554688 546.58203125 m 1,41,-1
 182.178710938 546.58203125 l 1,42,-1
 182.178710938 560.001953125 l 2,43,44
 182.178710938 594.068359375 182.178710938 594.068359375 191.46875 630.19921875 c 1,45,-1
 212.115234375 633.294921875 l 1,46,-1
 229.6640625 634.328125 l 2,47,48
 254.439453125 636.392578125 254.439453125 636.392578125 265.794921875 639.490234375 c 1,49,-1
 265.794921875 634.328125 l 2,50,51
 265.794921875 620.908203125 265.794921875 620.908203125 269.924804688 612.650390625 c 1,52,53
 238.955078125 604.390625 238.955078125 604.390625 213.147460938 604.390625 c 1,54,-1
 213.147460938 599.23046875 l 2,55,56
 213.147460938 585.80859375 213.147460938 585.80859375 209.018554688 577.55078125 c 1,57,58
 218.30859375 586.841796875 218.30859375 586.841796875 230.696289062 586.841796875 c 2,59,-1
 236.890625 586.841796875 l 2,60,61
 252.375 586.841796875 252.375 586.841796875 265.794921875 577.55078125 c 0,62,63
 281.279296875 563.099609375 281.279296875 563.099609375 283.344726562 542.453125 c 2,64,-1
 283.344726562 536.259765625 l 2,65,66
 283.344726562 518.708984375 283.344726562 518.708984375 279.21484375 507.353515625 c 0,67,68
 267.859375 483.611328125 267.859375 483.611328125 244.116210938 476.384765625 c 0,69,70
 233.793945312 474.3203125 233.793945312 474.3203125 230.696289062 474.3203125 c 0,71,72
 219.341796875 474.3203125 219.341796875 474.3203125 209.018554688 480.513671875 c 0,73,74
 203.856445312 482.578125 203.856445312 482.578125 186.307617188 507.353515625 c 1,75,-1
 195.598632812 509.41796875 l 1,76,-1
 201.791992188 511.484375 l 2,77,78
 207.986328125 513.548828125 207.986328125 513.548828125 211.083007812 513.548828125 c 0,79,80
 214.1796875 515.61328125 214.1796875 515.61328125 217.276367188 515.61328125 c 0,81,82
 224.502929688 502.193359375 224.502929688 502.193359375 230.696289062 502.193359375 c 1,83,84
 234.826171875 498.064453125 234.826171875 498.064453125 241.01953125 498.064453125 c 2,85,-1
 244.116210938 498.064453125 l 2,86,87
 248.24609375 498.064453125 248.24609375 498.064453125 257.537109375 507.353515625 c 0,88,89
 260.633789062 510.451171875 260.633789062 510.451171875 260.633789062 516.64453125 c 0,90,91
 260.633789062 523.87109375 260.633789062 523.87109375 257.537109375 533.162109375 c 0,92,93
 257.537109375 546.58203125 257.537109375 546.58203125 248.24609375 555.873046875 c 0,94,95
 241.01953125 560.001953125 241.01953125 560.001953125 233.793945312 560.001953125 c 2,96,-1
 230.696289062 560.001953125 l 2,97,98
 215.211914062 560.001953125 215.211914062 560.001953125 209.018554688 546.58203125 c 1,41,-1
331.862304688 560.001953125 m 1,99,-1
 305.022460938 560.001953125 l 1,100,101
 310.184570312 603.359375 310.184570312 603.359375 310.184570312 631.23046875 c 2,102,-1
 310.184570312 643.619140625 l 1,103,104
 343.217773438 647.748046875 343.217773438 647.748046875 384.510742188 661.16796875 c 1,105,-1
 389.671875 630.19921875 l 1,106,-1
 375.219726562 627.1015625 l 1,107,-1
 362.83203125 624.00390625 l 1,108,-1
 357.669921875 622.97265625 l 2,109,110
 351.4765625 620.908203125 351.4765625 620.908203125 347.34765625 619.875 c 0,111,112
 339.088867188 617.810546875 339.088867188 617.810546875 335.9921875 616.779296875 c 2,113,-1
 335.9921875 590.970703125 l 1,114,115
 344.25 599.23046875 344.25 599.23046875 353.541015625 599.23046875 c 2,116,-1
 367.993164062 601.294921875 l 2,117,118
 381.413085938 601.294921875 381.413085938 601.294921875 393.80078125 595.099609375 c 1,119,120
 406.188476562 582.712890625 406.188476562 582.712890625 411.350585938 564.130859375 c 1,121,122
 388.639648438 537.291015625 388.639648438 537.291015625 366.9609375 493.93359375 c 0,123,124
 363.864257812 493.93359375 363.864257812 493.93359375 360.767578125 493.41796875 c 128,-1,125
 357.669921875 492.90234375 357.669921875 492.90234375 356.122070312 492.38671875 c 128,-1,126
 354.573242188 491.869140625 354.573242188 491.869140625 353.541015625 491.869140625 c 0,127,128
 343.217773438 491.869140625 343.217773438 491.869140625 331.862304688 498.064453125 c 0,129,130
 314.313476562 509.41796875 314.313476562 509.41796875 310.184570312 529.033203125 c 1,131,-1
 318.442382812 532.12890625 l 1,132,-1
 325.668945312 533.162109375 l 2,133,134
 326.701171875 533.162109375 326.701171875 533.162109375 329.282226562 534.193359375 c 128,-1,135
 331.862304688 535.2265625 331.862304688 535.2265625 334.959960938 536.259765625 c 128,-1,136
 338.056640625 537.291015625 338.056640625 537.291015625 341.153320312 538.32421875 c 1,137,-1
 343.217773438 531.09765625 l 1,138,-1
 349.412109375 524.904296875 l 2,139,140
 353.541015625 520.7734375 353.541015625 520.7734375 360.767578125 520.7734375 c 2,141,-1
 362.83203125 520.7734375 l 2,142,143
 364.896484375 520.7734375 364.896484375 520.7734375 376.251953125 529.033203125 c 0,144,145
 381.413085938 537.291015625 381.413085938 537.291015625 381.413085938 545.548828125 c 0,146,147
 381.413085938 549.6796875 381.413085938 549.6796875 380.380859375 550.7109375 c 0,148,149
 380.380859375 561.03515625 380.380859375 561.03515625 371.08984375 568.259765625 c 0,150,151
 365.928710938 573.421875 365.928710938 573.421875 353.541015625 573.421875 c 0,152,153
 339.088867188 573.421875 339.088867188 573.421875 331.862304688 560.001953125 c 1,99,-1
442.319335938 145.015625 m 0,154,155
 350.444335938 227.599609375 350.444335938 227.599609375 350.444335938 355.60546875 c 0,156,157
 350.444335938 488.7734375 350.444335938 488.7734375 442.319335938 575.486328125 c 0,158,159
 517.677734375 647.748046875 517.677734375 647.748046875 618.84375 647.748046875 c 0,160,161
 646.715820312 647.748046875 646.715820312 647.748046875 666.330078125 643.619140625 c 0,162,163
 786.077148438 641.5546875 786.077148438 641.5546875 869.694335938 556.904296875 c 256,164,165
 953.310546875 472.255859375 953.310546875 472.255859375 953.310546875 352.5078125 c 0,166,167
 953.310546875 234.826171875 953.310546875 234.826171875 869.694335938 151.208984375 c 0,168,169
 786.077148438 66.560546875 786.077148438 66.560546875 668.39453125 66.560546875 c 2,170,-1
 666.330078125 66.560546875 l 2,171,172
 530.065429688 66.560546875 530.065429688 66.560546875 442.319335938 145.015625 c 0,154,155
609.552734375 467.09375 m 0,173,174
 607.48828125 442.318359375 607.48828125 442.318359375 607.48828125 441.287109375 c 0,175,176
 607.48828125 401.02734375 607.48828125 401.02734375 631.231445312 361.798828125 c 0,177,178
 658.071289062 309.15234375 658.071289062 309.15234375 714.848632812 291.6015625 c 0,179,180
 737.55859375 283.34375 737.55859375 283.34375 756.140625 283.34375 c 0,181,182
 786.077148438 283.34375 786.077148438 283.34375 811.884765625 299.861328125 c 0,183,184
 859.37109375 325.66796875 859.37109375 325.66796875 864.532226562 379.34765625 c 0,185,186
 866.596679688 404.123046875 866.596679688 404.123046875 866.596679688 406.1875 c 0,187,188
 866.596679688 445.416015625 866.596679688 445.416015625 842.854492188 484.642578125 c 0,189,190
 814.981445312 537.291015625 814.981445312 537.291015625 759.237304688 555.873046875 c 1,191,192
 747.881835938 564.130859375 747.881835938 564.130859375 720.009765625 564.130859375 c 2,193,-1
 713.815429688 564.130859375 l 2,194,195
 685.943359375 564.130859375 685.943359375 564.130859375 662.200195312 546.58203125 c 0,196,197
 614.71484375 520.7734375 614.71484375 520.7734375 609.552734375 467.09375 c 0,173,174
675.620117188 423.73828125 m 0,198,199
 660.135742188 442.318359375 660.135742188 442.318359375 660.135742188 458.8359375 c 0,200,201
 660.135742188 478.44921875 660.135742188 478.44921875 680.782226562 495.998046875 c 1,202,-1
 683.87890625 495.998046875 l 1,203,204
 700.395507812 515.61328125 700.395507812 515.61328125 721.041992188 515.61328125 c 0,205,206
 737.55859375 515.61328125 737.55859375 515.61328125 755.108398438 500.12890625 c 2,207,-1
 759.237304688 495.998046875 l 2,208,209
 770.592773438 481.546875 770.592773438 481.546875 770.592773438 468.126953125 c 0,210,211
 770.592773438 459.869140625 770.592773438 459.869140625 767.49609375 451.609375 c 1,212,213
 781.948242188 453.673828125 781.948242188 453.673828125 782.98046875 453.673828125 c 0,214,215
 802.59375 453.673828125 802.59375 453.673828125 816.013671875 434.060546875 c 1,216,217
 835.627929688 415.478515625 835.627929688 415.478515625 835.627929688 395.865234375 c 0,218,219
 835.627929688 379.34765625 835.627929688 379.34765625 821.17578125 361.798828125 c 2,220,-1
 810.852539062 352.5078125 l 2,221,222
 791.239257812 332.89453125 791.239257812 332.89453125 770.592773438 332.89453125 c 0,223,224
 748.9140625 332.89453125 748.9140625 332.89453125 729.30078125 352.5078125 c 1,225,-1
 727.236328125 355.60546875 l 1,226,227
 709.686523438 370.056640625 709.686523438 370.056640625 709.686523438 388.638671875 c 0,228,229
 709.686523438 396.8984375 709.686523438 396.8984375 714.848632812 410.318359375 c 1,230,231
 712.783203125 409.28515625 712.783203125 409.28515625 706.58984375 409.28515625 c 0,232,233
 690.073242188 409.28515625 690.073242188 409.28515625 675.620117188 423.73828125 c 0,198,199
702.4609375 484.642578125 m 0,234,235
 690.073242188 476.384765625 690.073242188 476.384765625 690.073242188 465.029296875 c 0,236,237
 690.073242188 457.802734375 690.073242188 457.802734375 696.266601562 448.513671875 c 1,238,-1
 696.266601562 445.416015625 l 1,239,240
 710.71875 434.060546875 710.71875 434.060546875 717.9453125 434.060546875 c 0,241,242
 726.203125 434.060546875 726.203125 434.060546875 732.397460938 441.287109375 c 0,243,244
 745.817382812 448.513671875 745.817382812 448.513671875 745.817382812 460.900390625 c 0,245,246
 745.817382812 468.126953125 745.817382812 468.126953125 739.623046875 477.41796875 c 1,247,-1
 739.623046875 478.44921875 l 1,248,249
 731.365234375 490.837890625 731.365234375 490.837890625 720.009765625 490.837890625 c 0,250,251
 711.750976562 490.837890625 711.750976562 490.837890625 702.4609375 484.642578125 c 0,234,235
753.043945312 425.802734375 m 0,252,253
 739.623046875 416.51171875 739.623046875 416.51171875 739.623046875 405.15625 c 0,254,255
 739.623046875 397.9296875 739.623046875 397.9296875 745.817382812 388.638671875 c 2,256,-1
 749.946289062 383.478515625 l 2,257,258
 759.237304688 371.08984375 759.237304688 371.08984375 770.592773438 371.08984375 c 0,259,260
 777.818359375 371.08984375 777.818359375 371.08984375 789.173828125 379.34765625 c 1,261,-1
 790.206054688 379.34765625 l 1,262,263
 801.561523438 387.607421875 801.561523438 387.607421875 801.561523438 397.9296875 c 0,264,265
 801.561523438 406.1875 801.561523438 406.1875 795.368164062 413.4140625 c 2,266,-1
 790.206054688 418.576171875 l 2,267,268
 780.916015625 431.99609375 780.916015625 431.99609375 769.560546875 431.99609375 c 0,269,270
 762.333984375 431.99609375 762.333984375 431.99609375 753.043945312 425.802734375 c 0,252,253
EndSplineSet
EndChar

StartChar: uniE015
Encoding: 57365 57365 24
Width: 1024
VWidth: 1024
GlyphClass: 2
Flags: HW
LayerCount: 2
Fore
SplineSet
168.26953125 66.560546875 m 2,0,1
 143.234375 66.560546875 143.234375 66.560546875 143.234375 96.8125 c 0,2,3
 143.234375 138.5390625 143.234375 138.5390625 184.9609375 226.16796875 c 0,4,5
 256.94140625 384.73046875 256.94140625 384.73046875 325.791015625 384.73046875 c 2,6,-1
 371.69140625 384.73046875 l 1,7,-1
 365.431640625 343.00390625 l 1,8,-1
 358.130859375 300.232421875 l 2,9,10
 353.95703125 276.240234375 353.95703125 276.240234375 353.95703125 248.07421875 c 0,11,12
 353.95703125 232.42578125 353.95703125 232.42578125 356.04296875 220.951171875 c 0,13,14
 368.5625 135.41015625 368.5625 135.41015625 476.009765625 134.3671875 c 2,15,-1
 478.095703125 134.3671875 l 2,16,17
 497.916015625 134.3671875 497.916015625 134.3671875 503.1328125 231.3828125 c 1,18,19
 508.34765625 137.49609375 508.34765625 137.49609375 526.08203125 137.49609375 c 0,20,21
 635.6171875 137.49609375 635.6171875 137.49609375 651.265625 216.779296875 c 0,22,23
 654.39453125 232.42578125 654.39453125 232.42578125 654.39453125 255.376953125 c 0,24,25
 654.39453125 256.419921875 654.39453125 256.419921875 652.30859375 296.060546875 c 2,26,-1
 646.048828125 340.91796875 l 1,27,-1
 638.74609375 387.861328125 l 1,28,-1
 694.03515625 387.861328125 l 2,29,30
 776.447265625 384.73046875 776.447265625 384.73046875 845.296875 226.16796875 c 0,31,32
 880.765625 144.798828125 880.765625 144.798828125 880.765625 103.072265625 c 0,33,34
 880.765625 66.560546875 880.765625 66.560546875 850.513671875 66.560546875 c 2,35,-1
 168.26953125 66.560546875 l 2,0,1
340.396484375 455.66796875 m 1,36,-1
 279.890625 470.2734375 l 1,37,-1
 286.150390625 486.962890625 l 2,38,39
 299.7109375 527.6484375 299.7109375 527.6484375 305.970703125 577.720703125 c 0,40,41
 305.970703125 580.849609375 305.970703125 580.849609375 306.4921875 591.802734375 c 128,-1,42
 307.013671875 602.7578125 307.013671875 602.7578125 307.013671875 610.05859375 c 0,43,44
 307.013671875 642.3984375 307.013671875 642.3984375 301.798828125 673.693359375 c 0,45,46
 296.58203125 713.333984375 296.58203125 713.333984375 296.58203125 740.45703125 c 0,47,48
 296.58203125 766.537109375 296.58203125 766.537109375 301.798828125 806.177734375 c 0,49,50
 332.05078125 932.404296875 332.05078125 932.404296875 457.232421875 952.224609375 c 0,51,52
 488.52734375 957.439453125 488.52734375 957.439453125 508.34765625 957.439453125 c 0,53,54
 562.59375 957.439453125 562.59375 957.439453125 615.796875 929.2734375 c 0,55,56
 708.640625 884.416015625 708.640625 884.416015625 711.76953125 779.0546875 c 0,57,58
 712.8125 769.666015625 712.8125 769.666015625 712.8125 739.4140625 c 0,59,60
 712.8125 691.427734375 712.8125 691.427734375 708.640625 659.08984375 c 0,61,62
 706.5546875 621.53515625 706.5546875 621.53515625 706.5546875 615.275390625 c 0,63,64
 706.5546875 579.806640625 706.5546875 579.806640625 714.8984375 529.734375 c 0,65,66
 716.986328125 526.603515625 716.986328125 526.603515625 718.029296875 518.259765625 c 2,67,-1
 723.244140625 501.568359375 l 2,68,69
 725.33203125 486.962890625 725.33203125 486.962890625 727.41796875 480.705078125 c 0,70,71
 730.546875 470.2734375 730.546875 470.2734375 730.546875 468.185546875 c 0,72,73
 688.8203125 459.83984375 688.8203125 459.83984375 642.919921875 451.49609375 c 2,74,-1
 591.802734375 438.9765625 l 2,75,76
 552.162109375 429.587890625 552.162109375 429.587890625 552.162109375 422.28515625 c 2,77,-1
 552.162109375 417.0703125 l 1,78,-1
 542.7734375 417.0703125 l 1,79,-1
 542.7734375 440.01953125 l 2,80,81
 543.81640625 457.75390625 543.81640625 457.75390625 549.033203125 471.31640625 c 0,82,83
 549.033203125 477.57421875 549.033203125 477.57421875 557.37890625 480.705078125 c 0,84,85
 590.759765625 500.525390625 590.759765625 500.525390625 613.7109375 529.734375 c 0,86,87
 675.2578125 603.80078125 675.2578125 603.80078125 682.560546875 695.599609375 c 1,88,-1
 682.560546875 699.7734375 l 2,89,90
 682.560546875 718.55078125 682.560546875 718.55078125 665.869140625 724.810546875 c 0,91,92
 595.9765625 745.673828125 595.9765625 745.673828125 578.2421875 818.6953125 c 1,93,-1
 553.205078125 798.875 l 1,94,-1
 527.125 779.0546875 l 1,95,96
 449.9296875 714.376953125 449.9296875 714.376953125 345.611328125 711.248046875 c 2,97,-1
 323.705078125 711.248046875 l 1,98,99
 326.833984375 648.65625 326.833984375 648.65625 353.95703125 592.32421875 c 0,100,101
 381.080078125 527.6484375 381.080078125 527.6484375 441.583984375 491.13671875 c 0,102,103
 457.232421875 483.833984375 457.232421875 483.833984375 465.578125 464.013671875 c 1,104,105
 467.6640625 443.150390625 467.6640625 443.150390625 467.6640625 441.0625 c 128,-1,106
 467.6640625 438.9765625 467.6640625 438.9765625 467.142578125 436.369140625 c 128,-1,107
 466.62109375 433.76171875 466.62109375 433.76171875 466.099609375 429.06640625 c 128,-1,108
 465.578125 424.373046875 465.578125 424.373046875 465.578125 420.19921875 c 2,109,-1
 465.578125 417.0703125 l 1,110,-1
 457.232421875 417.0703125 l 1,111,-1
 457.232421875 423.330078125 l 1,112,-1
 453.060546875 426.458984375 l 1,113,114
 416.548828125 440.01953125 416.548828125 440.01953125 397.771484375 444.193359375 c 2,115,-1
 340.396484375 455.66796875 l 1,36,-1
505.21875 519.302734375 m 0,116,117
 474.966796875 519.302734375 474.966796875 519.302734375 454.103515625 543.294921875 c 1,118,-1
 486.44140625 562.072265625 l 1,119,-1
 505.21875 553.7265625 l 1,120,-1
 521.91015625 562.072265625 l 1,121,-1
 555.291015625 543.294921875 l 1,122,123
 536.513671875 519.302734375 536.513671875 519.302734375 505.21875 519.302734375 c 0,116,117
505.21875 546.42578125 m 0,124,125
 498.9609375 546.42578125 498.9609375 546.42578125 486.44140625 541.208984375 c 1,126,127
 498.9609375 533.90625 498.9609375 533.90625 505.21875 533.90625 c 0,128,129
 513.564453125 533.90625 513.564453125 533.90625 522.953125 541.208984375 c 1,130,131
 514.607421875 546.42578125 514.607421875 546.42578125 505.21875 546.42578125 c 0,124,125
EndSplineSet
EndChar

StartChar: uniE016
Encoding: 57366 57366 25
Width: 1024
VWidth: 1024
GlyphClass: 2
Flags: HW
LayerCount: 2
Fore
SplineSet
96.6796875 397.30859375 m 0,0,1
 66.560546875 417.002929688 66.560546875 417.002929688 66.560546875 444.806640625 c 2,2,-1
 66.560546875 780.76953125 l 2,3,4
 66.560546875 810.890625 66.560546875 810.890625 100.15625 837.536132812 c 0,5,6
 133.751953125 865.33984375 133.751953125 865.33984375 170.82421875 865.33984375 c 2,7,-1
 723.423828125 865.33984375 l 2,8,9
 806.8359375 861.864257812 806.8359375 861.864257812 818.419921875 780.76953125 c 1,10,-1
 818.419921875 444.806640625 l 2,11,12
 818.419921875 376.456054688 818.419921875 376.456054688 723.423828125 376.456054688 c 2,13,-1
 319.111328125 376.456054688 l 1,14,-1
 130.27734375 261.765625 l 1,15,-1
 160.3984375 376.456054688 l 1,16,17
 123.326171875 379.931640625 123.326171875 379.931640625 96.6796875 397.30859375 c 0,0,1
254.236328125 682.297851562 m 128,-1,19
 204.419921875 682.297851562 204.419921875 682.297851562 204.419921875 632.482421875 c 0,20,21
 204.419921875 583.826171875 204.419921875 583.826171875 254.236328125 583.826171875 c 2,22,-1
 260.02734375 583.826171875 l 1,23,24
 304.05078125 589.618164062 304.05078125 589.618164062 304.05078125 632.482421875 c 0,25,18
 304.05078125 682.297851562 304.05078125 682.297851562 254.236328125 682.297851562 c 128,-1,19
402.521484375 242.071289062 m 2,26,27
 328.37890625 243.229492188 328.37890625 243.229492188 319.111328125 316.21484375 c 1,28,-1
 319.111328125 331.275390625 l 1,29,-1
 798.7265625 331.275390625 l 1,30,31
 867.078125 337.067382812 867.078125 337.067382812 867.078125 399.625976562 c 2,32,-1
 867.078125 677.6640625 l 1,33,-1
 906.466796875 677.6640625 l 1,34,35
 957.439453125 670.712890625 957.439453125 670.712890625 957.439453125 624.373046875 c 0,36,37
 957.439453125 615.10546875 957.439453125 615.10546875 956.28125 612.788085938 c 2,38,-1
 956.28125 305.788085938 l 2,39,40
 956.28125 245.546875 956.28125 245.546875 892.564453125 242.071289062 c 2,41,-1
 886.771484375 242.071289062 l 1,42,-1
 906.466796875 158.66015625 l 1,43,-1
 768.60546875 242.071289062 l 1,44,-1
 402.521484375 242.071289062 l 2,26,27
441.91015625 682.297851562 m 0,45,46
 393.25390625 682.297851562 393.25390625 682.297851562 393.25390625 632.482421875 c 0,47,48
 393.25390625 583.826171875 393.25390625 583.826171875 441.91015625 583.826171875 c 2,49,-1
 447.703125 583.826171875 l 1,50,51
 491.7265625 589.618164062 491.7265625 589.618164062 491.7265625 632.482421875 c 0,52,53
 491.7265625 682.297851562 491.7265625 682.297851562 441.91015625 682.297851562 c 0,45,46
629.5859375 682.297851562 m 0,54,55
 580.9296875 682.297851562 580.9296875 682.297851562 580.9296875 632.482421875 c 0,56,57
 580.9296875 583.826171875 580.9296875 583.826171875 629.5859375 583.826171875 c 0,58,59
 679.40234375 583.826171875 679.40234375 583.826171875 679.40234375 632.482421875 c 0,60,61
 679.40234375 682.297851562 679.40234375 682.297851562 629.5859375 682.297851562 c 0,54,55
EndSplineSet
EndChar

StartChar: uniE017
Encoding: 57367 57367 26
Width: 1024
VWidth: 1024
GlyphClass: 2
Flags: HW
LayerCount: 2
Fore
SplineSet
155.87890625 153.560546875 m 2,0,1
 66.560546875 153.560546875 66.560546875 153.560546875 66.560546875 241.720703125 c 2,2,-1
 66.560546875 778.80078125 l 2,3,4
 66.560546875 866.9609375 66.560546875 866.9609375 155.87890625 870.439453125 c 2,5,-1
 868.119140625 870.439453125 l 2,6,7
 957.439453125 870.439453125 957.439453125 870.439453125 957.439453125 782.279296875 c 2,8,-1
 957.439453125 242.880859375 l 2,9,10
 957.439453125 153.560546875 957.439453125 153.560546875 869.279296875 153.560546875 c 2,11,-1
 155.87890625 153.560546875 l 2,0,1
155.87890625 776.48046875 m 1,12,-1
 155.87890625 242.880859375 l 1,13,-1
 467.919921875 242.880859375 l 1,14,-1
 467.919921875 776.48046875 l 1,15,-1
 155.87890625 776.48046875 l 1,12,-1
304.359375 594.359375 m 1,16,-1
 225.48046875 568.83984375 l 1,17,-1
 225.48046875 623.359375 l 1,18,-1
 363.51953125 673.240234375 l 1,19,-1
 368.16015625 673.240234375 l 1,20,-1
 368.16015625 336.83984375 l 1,21,-1
 304.359375 336.83984375 l 1,22,-1
 304.359375 594.359375 l 1,16,-1
561.87890625 776.48046875 m 1,23,-1
 561.87890625 242.880859375 l 1,24,-1
 675.560546875 242.880859375 l 1,25,-1
 675.560546875 282.3203125 l 1,26,-1
 719.638671875 282.3203125 l 1,27,28
 759.080078125 286.9609375 759.080078125 286.9609375 759.080078125 326.400390625 c 0,29,30
 760.240234375 328.720703125 760.240234375 328.720703125 760.240234375 335.6796875 c 0,31,32
 760.240234375 367 760.240234375 367 725.439453125 370.48046875 c 2,33,-1
 704.560546875 370.48046875 l 1,34,-1
 688.3203125 365.83984375 l 2,35,36
 665.119140625 356.560546875 665.119140625 356.560546875 665.119140625 331.041015625 c 1,37,-1
 596.6796875 331.041015625 l 1,38,39
 596.6796875 425 596.6796875 425 710.359375 425 c 0,40,41
 819.400390625 425 819.400390625 425 819.400390625 343.80078125 c 2,42,-1
 819.400390625 336.83984375 l 2,43,44
 818.240234375 283.48046875 818.240234375 283.48046875 769.51953125 262.599609375 c 1,45,-1
 793.87890625 247.51953125 l 1,46,-1
 868.119140625 247.51953125 l 1,47,-1
 868.119140625 776.48046875 l 1,48,-1
 813.599609375 776.48046875 l 1,49,50
 822.87890625 753.279296875 822.87890625 753.279296875 824.0390625 727.759765625 c 1,51,52
 811.279296875 689.48046875 811.279296875 689.48046875 793.87890625 653.51953125 c 1,53,-1
 690.638671875 539.83984375 l 1,54,-1
 839.119140625 539.83984375 l 1,55,-1
 839.119140625 485.3203125 l 1,56,-1
 605.958984375 485.3203125 l 1,57,-1
 605.958984375 529.400390625 l 1,58,59
 742.83984375 676.720703125 742.83984375 676.720703125 749.798828125 688.3203125 c 0,60,61
 754.439453125 692.9609375 754.439453125 692.9609375 757.919921875 708.041015625 c 0,62,63
 760.240234375 728.919921875 760.240234375 728.919921875 760.240234375 731.240234375 c 2,64,-1
 760.240234375 738.201171875 l 2,65,66
 757.919921875 776.48046875 757.919921875 776.48046875 719.638671875 776.48046875 c 0,67,68
 669.759765625 776.48046875 669.759765625 776.48046875 669.759765625 733.560546875 c 0,69,70
 669.759765625 720.80078125 669.759765625 720.80078125 670.919921875 717.3203125 c 1,71,-1
 601.3203125 717.3203125 l 1,72,73
 602.48046875 747.48046875 602.48046875 747.48046875 616.400390625 776.48046875 c 1,74,-1
 561.87890625 776.48046875 l 1,23,-1
EndSplineSet
EndChar

StartChar: uniE018
Encoding: 57368 57368 27
Width: 1024
VWidth: 1024
GlyphClass: 2
Flags: HW
LayerCount: 2
Fore
SplineSet
137.49609375 219.908203125 m 2,0,1
 66.560546875 221.995117188 66.560546875 221.995117188 66.560546875 292.931640625 c 2,2,-1
 66.560546875 731.069335938 l 2,3,4
 66.560546875 802.005859375 66.560546875 802.005859375 137.49609375 804.091796875 c 2,5,-1
 885.4609375 804.091796875 l 2,6,7
 957.439453125 802.005859375 957.439453125 802.005859375 957.439453125 731.069335938 c 2,8,-1
 957.439453125 292.931640625 l 2,9,10
 957.439453125 221.995117188 957.439453125 221.995117188 885.4609375 219.908203125 c 2,11,-1
 137.49609375 219.908203125 l 2,0,1
195.9140625 633.009765625 m 1,12,-1
 195.9140625 390.991210938 l 1,13,-1
 338.83203125 390.991210938 l 1,14,-1
 336.744140625 436.890625 l 1,15,-1
 248.07421875 436.890625 l 1,16,-1
 248.07421875 633.009765625 l 1,17,-1
 195.9140625 633.009765625 l 1,12,-1
369.083984375 633.009765625 m 1,18,-1
 369.083984375 390.991210938 l 1,19,-1
 421.2421875 390.991210938 l 1,20,-1
 423.330078125 633.009765625 l 1,21,-1
 369.083984375 633.009765625 l 1,18,-1
503.654296875 633.009765625 m 1,22,-1
 446.279296875 633.009765625 l 1,23,-1
 520.345703125 390.991210938 l 1,24,-1
 579.806640625 390.991210938 l 1,25,-1
 655.958984375 633.009765625 l 1,26,-1
 600.669921875 633.009765625 l 1,27,-1
 571.4609375 529.734375 l 2,28,29
 562.072265625 495.309570312 562.072265625 495.309570312 551.640625 444.193359375 c 1,30,-1
 542.251953125 488.006835938 l 1,31,-1
 530.77734375 530.77734375 l 1,32,-1
 503.654296875 633.009765625 l 1,22,-1
682.0390625 633.009765625 m 1,33,-1
 682.0390625 390.991210938 l 1,34,-1
 827.041015625 390.991210938 l 1,35,-1
 828.083984375 434.8046875 l 1,36,-1
 734.19921875 434.8046875 l 1,37,-1
 734.19921875 492.1796875 l 1,38,-1
 818.6953125 492.1796875 l 1,39,-1
 818.6953125 537.037109375 l 1,40,-1
 734.19921875 537.037109375 l 1,41,-1
 734.19921875 588.153320312 l 1,42,-1
 823.912109375 588.153320312 l 1,43,-1
 823.912109375 633.009765625 l 1,44,-1
 682.0390625 633.009765625 l 1,33,-1
EndSplineSet
EndChar

StartChar: uniE019
Encoding: 57369 57369 28
Width: 1024
VWidth: 1024
GlyphClass: 2
Flags: HW
LayerCount: 2
Fore
SplineSet
99.515625 423.762695312 m 1,0,1
 66.560546875 430.141601562 66.560546875 430.141601562 66.560546875 457.782226562 c 0,2,3
 66.560546875 466.287109375 66.560546875 466.287109375 67.623046875 468.413085938 c 2,4,-1
 121.841796875 736.314453125 l 2,5,6
 127.15625 767.14453125 127.15625 767.14453125 157.986328125 768.208007812 c 2,7,-1
 925.546875 768.208007812 l 1,8,9
 957.439453125 761.829101562 957.439453125 761.829101562 957.439453125 733.125976562 c 0,10,11
 957.439453125 724.62109375 957.439453125 724.62109375 956.376953125 722.494140625 c 2,12,-1
 902.158203125 455.655273438 l 2,13,14
 896.84375 424.826171875 896.84375 424.826171875 866.013671875 423.762695312 c 2,15,-1
 99.515625 423.762695312 l 1,0,1
199.447265625 273.865234375 m 2,16,17
 195.1953125 281.306640625 195.1953125 281.306640625 195.1953125 288.749023438 c 2,18,-1
 195.1953125 291.9375 l 1,19,-1
 221.7734375 291.9375 l 1,20,-1
 221.7734375 287.685546875 l 2,21,22
 221.7734375 273.865234375 221.7734375 273.865234375 239.845703125 273.865234375 c 2,23,-1
 243.03515625 273.865234375 l 2,24,25
 249.4140625 273.865234375 249.4140625 273.865234375 253.666015625 278.1171875 c 128,-1,26
 257.91796875 282.370117188 257.91796875 282.370117188 257.91796875 287.685546875 c 0,27,28
 257.91796875 291.9375 257.91796875 291.9375 253.666015625 296.190429688 c 2,29,-1
 247.287109375 301.505859375 l 1,30,-1
 239.845703125 305.7578125 l 1,31,-1
 231.341796875 310.010742188 l 1,32,-1
 221.7734375 314.262695312 l 2,33,34
 204.763671875 322.767578125 204.763671875 322.767578125 203.69921875 341.903320312 c 2,35,-1
 203.69921875 344.030273438 l 2,36,37
 203.69921875 351.471679688 203.69921875 351.471679688 207.953125 355.723632812 c 2,38,-1
 215.39453125 359.9765625 l 1,39,-1
 221.7734375 364.228515625 l 2,40,41
 227.087890625 369.544921875 227.087890625 369.544921875 239.845703125 369.544921875 c 0,42,43
 249.4140625 369.544921875 249.4140625 369.544921875 257.91796875 364.228515625 c 2,44,-1
 265.359375 362.102539062 l 1,45,-1
 271.73828125 355.723632812 l 2,46,47
 275.990234375 348.282226562 275.990234375 348.282226562 275.990234375 340.840820312 c 2,48,-1
 275.990234375 337.651367188 l 1,49,-1
 253.666015625 337.651367188 l 1,50,51
 253.666015625 342.966796875 253.666015625 342.966796875 249.4140625 346.15625 c 0,52,53
 240.908203125 351.471679688 240.908203125 351.471679688 235.59375 351.471679688 c 128,-1,54
 230.27734375 351.471679688 230.27734375 351.471679688 221.7734375 346.15625 c 0,55,56
 217.51953125 341.903320312 217.51953125 341.903320312 217.51953125 337.651367188 c 2,57,-1
 217.51953125 331.272460938 l 2,58,59
 218.583984375 328.083007812 218.583984375 328.083007812 221.7734375 328.083007812 c 2,60,-1
 229.21484375 325.95703125 l 1,61,-1
 235.59375 323.831054688 l 1,62,-1
 263.234375 310.010742188 l 1,63,-1
 268.548828125 298.31640625 l 1,64,-1
 271.73828125 287.685546875 l 2,65,66
 271.73828125 275.991210938 271.73828125 275.991210938 263.234375 264.296875 c 1,67,68
 251.5390625 255.791992188 251.5390625 255.791992188 240.908203125 255.791992188 c 2,69,-1
 231.341796875 255.791992188 l 2,70,71
 220.708984375 255.791992188 220.708984375 255.791992188 213.267578125 260.044921875 c 2,72,-1
 199.447265625 273.865234375 l 2,16,17
231.341796875 709.737304688 m 1,73,-1
 195.1953125 487.548828125 l 1,74,-1
 331.2734375 487.548828125 l 1,75,-1
 339.77734375 523.694335938 l 1,76,-1
 245.162109375 523.694335938 l 1,77,-1
 275.990234375 709.737304688 l 1,78,-1
 231.341796875 709.737304688 l 1,73,-1
349.345703125 264.296875 m 1,79,-1
 325.95703125 264.296875 l 1,80,-1
 325.95703125 369.544921875 l 1,81,-1
 370.607421875 369.544921875 l 2,82,83
 376.986328125 369.544921875 376.986328125 369.544921875 389.7421875 364.228515625 c 1,84,-1
 396.12109375 357.850585938 l 1,85,-1
 399.310546875 351.471679688 l 2,86,87
 403.5625 344.030273438 403.5625 344.030273438 403.5625 335.525390625 c 2,88,-1
 403.5625 332.3359375 l 2,89,90
 403.5625 314.262695312 403.5625 314.262695312 393.99609375 310.010742188 c 0,91,92
 382.30078125 301.505859375 382.30078125 301.505859375 367.41796875 301.505859375 c 2,93,-1
 349.345703125 301.505859375 l 1,94,-1
 349.345703125 264.296875 l 1,79,-1
349.345703125 351.471679688 m 1,95,-1
 349.345703125 319.579101562 l 1,96,-1
 375.921875 319.579101562 l 2,97,98
 381.23828125 321.705078125 381.23828125 321.705078125 381.23828125 323.831054688 c 1,99,100
 383.365234375 323.831054688 383.365234375 323.831054688 389.7421875 337.651367188 c 1,101,102
 389.7421875 351.471679688 389.7421875 351.471679688 371.669921875 351.471679688 c 2,103,-1
 349.345703125 351.471679688 l 1,95,-1
399.310546875 709.737304688 m 1,104,-1
 362.1015625 487.548828125 l 1,105,-1
 407.81640625 487.548828125 l 1,106,-1
 443.9609375 709.737304688 l 1,107,-1
 399.310546875 709.737304688 l 1,104,-1
467.349609375 287.685546875 m 0,108,109
 462.033203125 301.505859375 462.033203125 301.505859375 462.033203125 310.010742188 c 2,110,-1
 462.033203125 323.831054688 l 2,111,112
 462.033203125 332.3359375 462.033203125 332.3359375 467.349609375 346.15625 c 0,113,114
 467.349609375 357.850585938 467.349609375 357.850585938 480.107421875 364.228515625 c 0,115,116
 490.73828125 371.670898438 490.73828125 371.670898438 503.494140625 371.670898438 c 0,117,118
 515.189453125 371.670898438 515.189453125 371.670898438 525.8203125 364.228515625 c 0,119,120
 537.513671875 358.913085938 537.513671875 358.913085938 539.640625 346.15625 c 0,121,122
 543.892578125 337.651367188 543.892578125 337.651367188 543.892578125 323.831054688 c 2,123,-1
 543.892578125 310.010742188 l 2,124,125
 543.892578125 296.190429688 543.892578125 296.190429688 539.640625 287.685546875 c 1,126,127
 539.640625 275.991210938 539.640625 275.991210938 525.8203125 269.61328125 c 0,128,129
 515.189453125 262.170898438 515.189453125 262.170898438 503.494140625 262.170898438 c 0,130,131
 490.73828125 262.170898438 490.73828125 262.170898438 480.107421875 269.61328125 c 0,132,133
 472.666015625 277.0546875 472.666015625 277.0546875 467.349609375 287.685546875 c 0,108,109
517.31640625 709.737304688 m 1,134,-1
 467.349609375 709.737304688 l 1,135,-1
 507.748046875 487.548828125 l 1,136,-1
 553.4609375 487.548828125 l 1,137,-1
 661.896484375 709.737304688 l 1,138,-1
 611.931640625 709.737304688 l 1,139,-1
 539.640625 541.766601562 l 1,140,-1
 517.31640625 709.737304688 l 1,134,-1
485.421875 324.89453125 m 2,141,-1
 485.421875 310.010742188 l 2,142,143
 485.421875 299.379882812 485.421875 299.379882812 489.673828125 291.9375 c 2,144,-1
 493.927734375 287.685546875 l 2,145,146
 500.306640625 284.49609375 500.306640625 284.49609375 506.68359375 284.49609375 c 2,147,-1
 509.873046875 284.49609375 l 2,148,149
 517.31640625 285.559570312 517.31640625 285.559570312 521.568359375 291.9375 c 0,150,151
 526.8828125 300.442382812 526.8828125 300.442382812 526.8828125 308.947265625 c 0,152,153
 526.8828125 313.200195312 526.8828125 313.200195312 525.8203125 314.262695312 c 2,154,-1
 525.8203125 319.579101562 l 2,155,156
 525.8203125 333.399414062 525.8203125 333.399414062 521.568359375 341.903320312 c 2,157,-1
 517.31640625 346.15625 l 2,158,159
 513.0625 350.408203125 513.0625 350.408203125 504.55859375 350.408203125 c 128,-1,160
 496.052734375 350.408203125 496.052734375 350.408203125 489.673828125 341.903320312 c 0,161,162
 485.421875 334.461914062 485.421875 334.461914062 485.421875 324.89453125 c 2,141,-1
625.751953125 264.296875 m 1,163,-1
 603.42578125 264.296875 l 1,164,-1
 603.42578125 369.544921875 l 1,165,-1
 643.82421875 369.544921875 l 2,166,167
 658.708984375 367.41796875 658.708984375 367.41796875 671.46484375 359.9765625 c 1,168,169
 679.970703125 348.282226562 679.970703125 348.282226562 679.970703125 337.651367188 c 2,170,-1
 679.970703125 334.461914062 l 2,171,172
 679.970703125 323.831054688 679.970703125 323.831054688 675.716796875 319.579101562 c 2,173,-1
 661.896484375 305.7578125 l 1,174,-1
 684.22265625 264.296875 l 1,175,-1
 661.896484375 264.296875 l 1,176,-1
 643.82421875 301.505859375 l 1,177,-1
 625.751953125 301.505859375 l 1,178,-1
 625.751953125 264.296875 l 1,163,-1
621.5 351.471679688 m 1,179,-1
 621.5 319.579101562 l 1,180,-1
 641.69921875 319.579101562 l 2,181,182
 649.140625 319.579101562 649.140625 319.579101562 653.392578125 323.831054688 c 0,183,184
 656.58203125 327.020507812 656.58203125 327.020507812 657.64453125 332.3359375 c 2,185,-1
 657.64453125 337.651367188 l 2,186,187
 656.58203125 351.471679688 656.58203125 351.471679688 641.69921875 351.471679688 c 2,188,-1
 621.5 351.471679688 l 1,179,-1
689.537109375 709.737304688 m 1,189,-1
 653.392578125 487.548828125 l 1,190,-1
 797.974609375 487.548828125 l 1,191,-1
 802.2265625 523.694335938 l 1,192,-1
 702.294921875 523.694335938 l 1,193,-1
 711.86328125 582.165039062 l 1,194,-1
 797.974609375 582.165039062 l 1,195,-1
 802.2265625 618.310546875 l 1,196,-1
 716.115234375 618.310546875 l 1,197,-1
 725.68359375 672.528320312 l 1,198,-1
 825.615234375 672.528320312 l 1,199,-1
 834.119140625 709.737304688 l 1,200,-1
 689.537109375 709.737304688 l 1,189,-1
757.576171875 351.471679688 m 1,201,-1
 725.68359375 351.471679688 l 1,202,-1
 725.68359375 369.544921875 l 1,203,-1
 811.794921875 369.544921875 l 1,204,-1
 811.794921875 351.471679688 l 1,205,-1
 779.90234375 351.471679688 l 1,206,-1
 779.90234375 264.296875 l 1,207,-1
 757.576171875 264.296875 l 1,208,-1
 757.576171875 351.471679688 l 1,201,-1
EndSplineSet
EndChar

StartChar: uniE01A
Encoding: 57370 57370 29
Width: 1024
VWidth: 1024
GlyphClass: 2
Flags: HW
LayerCount: 2
Fore
SplineSet
134.853515625 117.525390625 m 0,0,1
 75.7333984375 170.53125 75.7333984375 170.53125 72.67578125 251.056640625 c 2,2,-1
 72.67578125 262.267578125 l 2,3,4
 72.67578125 336.677734375 72.67578125 336.677734375 122.622070312 389.68359375 c 0,5,6
 176.645507812 448.802734375 176.645507812 448.802734375 255.1328125 452.880859375 c 1,7,-1
 393.759765625 452.880859375 l 2,8,9
 427.396484375 452.880859375 427.396484375 452.880859375 427.396484375 419.2421875 c 2,10,-1
 427.396484375 223.53515625 l 2,11,12
 427.396484375 196.013671875 427.396484375 196.013671875 400.89453125 196.013671875 c 0,13,14
 373.373046875 196.013671875 373.373046875 196.013671875 373.373046875 222.515625 c 2,15,-1
 373.373046875 334.640625 l 2,16,17
 373.373046875 339.736328125 373.373046875 339.736328125 367.256835938 342.794921875 c 2,18,-1
 363.1796875 342.794921875 l 2,19,20
 358.083007812 342.794921875 358.083007812 342.794921875 355.025390625 338.716796875 c 0,21,22
 297.944335938 271.44140625 297.944335938 271.44140625 211.302734375 259.2109375 c 1,23,-1
 204.166992188 255.1328125 l 1,24,-1
 204.166992188 247.998046875 l 2,25,26
 204.166992188 237.8046875 204.166992188 237.8046875 211.302734375 237.8046875 c 0,27,28
 289.7890625 245.958984375 289.7890625 245.958984375 343.813476562 297.9453125 c 1,29,-1
 346.87109375 297.9453125 l 2,30,31
 349.928710938 295.90625 349.928710938 295.90625 349.928710938 294.88671875 c 2,32,-1
 349.928710938 254.11328125 l 1,33,-1
 347.890625 250.037109375 l 1,34,35
 317.310546875 232.708984375 317.310546875 232.708984375 317.310546875 199.0703125 c 2,36,-1
 317.310546875 197.033203125 l 2,37,38
 317.310546875 181.7421875 317.310546875 181.7421875 328.5234375 164.4140625 c 1,39,-1
 328.5234375 161.357421875 l 1,40,-1
 325.465820312 158.298828125 l 1,41,42
 289.7890625 140.970703125 289.7890625 140.970703125 289.7890625 103.255859375 c 0,43,44
 289.7890625 87.966796875 289.7890625 87.966796875 298.962890625 73.6953125 c 1,45,-1
 298.962890625 69.619140625 l 1,46,-1
 294.885742188 66.560546875 l 1,47,-1
 273.48046875 67.580078125 l 1,48,-1
 265.326171875 67.580078125 l 2,49,50
 190.916015625 67.580078125 190.916015625 67.580078125 134.853515625 117.525390625 c 0,0,1
351.967773438 67.580078125 m 2,51,52
 316.291992188 67.580078125 316.291992188 67.580078125 314.252929688 104.275390625 c 0,53,54
 314.252929688 140.970703125 314.252929688 140.970703125 350.948242188 140.970703125 c 2,55,-1
 454.91796875 140.970703125 l 2,56,57
 490.59375 140.970703125 490.59375 140.970703125 490.59375 104.275390625 c 128,-1,58
 490.59375 67.580078125 490.59375 67.580078125 453.8984375 67.580078125 c 2,59,-1
 351.967773438 67.580078125 l 2,51,52
375.412109375 164.4140625 m 1,60,61
 341.774414062 165.43359375 341.774414062 165.43359375 341.774414062 199.0703125 c 2,62,-1
 341.774414062 201.109375 l 1,63,-1
 345.8515625 216.3984375 l 1,64,-1
 349.928710938 218.4375 l 2,65,66
 352.987304688 218.4375 352.987304688 218.4375 352.987304688 215.380859375 c 0,67,68
 357.064453125 172.568359375 357.064453125 172.568359375 399.875 171.548828125 c 0,69,70
 448.802734375 171.548828125 448.802734375 171.548828125 448.802734375 220.4765625 c 2,71,-1
 448.802734375 230.669921875 l 2,72,73
 448.802734375 233.728515625 448.802734375 233.728515625 452.879882812 234.74609375 c 2,74,-1
 467.150390625 234.74609375 l 2,75,76
 501.806640625 233.728515625 501.806640625 233.728515625 501.806640625 199.0703125 c 2,77,-1
 501.806640625 197.033203125 l 2,78,79
 501.806640625 162.375 501.806640625 162.375 468.168945312 162.375 c 2,80,-1
 375.412109375 162.375 l 1,81,-1
 375.412109375 164.4140625 l 1,60,61
403.952148438 680.1875 m 2,82,83
 373.373046875 680.1875 373.373046875 680.1875 368.276367188 710.765625 c 1,84,-1
 368.276367188 717.90234375 l 2,85,86
 368.276367188 747.4609375 368.276367188 747.4609375 397.836914062 753.578125 c 2,87,-1
 579.274414062 789.25390625 l 1,88,-1
 581.313476562 789.25390625 l 1,89,-1
 581.313476562 717.90234375 l 2,90,91
 581.313476562 715.86328125 581.313476562 715.86328125 578.254882812 714.84375 c 2,92,-1
 412.107421875 681.20703125 l 1,93,-1
 403.952148438 680.1875 l 2,82,83
388.663085938 903.416015625 m 0,94,95
 384.5859375 910.552734375 384.5859375 910.552734375 384.5859375 919.7265625 c 0,96,97
 384.5859375 927.880859375 384.5859375 927.880859375 385.604492188 929.91796875 c 0,98,99
 393.759765625 957.439453125 393.759765625 957.439453125 417.203125 957.439453125 c 0,100,101
 424.338867188 957.439453125 424.338867188 957.439453125 432.493164062 954.3828125 c 2,102,-1
 592.525390625 903.416015625 l 1,103,-1
 595.583007812 900.359375 l 1,104,-1
 595.583007812 896.28125 l 1,105,106
 584.37109375 882.01171875 584.37109375 882.01171875 584.37109375 863.6640625 c 2,107,-1
 584.37109375 831.044921875 l 1,108,-1
 578.254882812 831.044921875 l 1,109,-1
 410.068359375 884.048828125 l 2,110,111
 395.797851562 889.146484375 395.797851562 889.146484375 388.663085938 903.416015625 c 0,94,95
450.840820312 417.205078125 m 2,112,113
 450.840820312 431.474609375 450.840820312 431.474609375 443.706054688 444.7265625 c 1,114,-1
 443.706054688 448.802734375 l 1,115,-1
 447.783203125 451.861328125 l 1,116,-1
 498.749023438 451.861328125 l 2,117,118
 534.424804688 451.861328125 534.424804688 451.861328125 536.462890625 415.166015625 c 0,119,120
 534.424804688 378.470703125 534.424804688 378.470703125 499.767578125 378.470703125 c 2,121,-1
 455.9375 378.470703125 l 1,122,-1
 453.8984375 377.451171875 l 1,123,-1
 450.840820312 377.451171875 l 1,124,-1
 450.840820312 417.205078125 l 2,112,113
453.8984375 280.615234375 m 2,125,126
 448.802734375 280.615234375 448.802734375 280.615234375 448.802734375 285.712890625 c 2,127,-1
 448.802734375 349.9296875 l 2,128,129
 448.802734375 354.005859375 448.802734375 354.005859375 452.879882812 355.025390625 c 2,130,-1
 489.575195312 355.025390625 l 2,131,132
 525.250976562 355.025390625 525.250976562 355.025390625 525.250976562 318.330078125 c 2,133,-1
 525.250976562 317.310546875 l 2,134,135
 525.250976562 280.615234375 525.250976562 280.615234375 489.575195312 280.615234375 c 2,136,-1
 453.8984375 280.615234375 l 2,125,126
565.00390625 608.8359375 m 1,137,138
 530.34765625 609.853515625 530.34765625 609.853515625 530.34765625 643.4921875 c 2,139,-1
 530.34765625 645.53125 l 2,140,141
 530.34765625 679.16796875 530.34765625 679.16796875 563.984375 681.20703125 c 2,142,-1
 578.254882812 681.20703125 l 2,143,144
 583.3515625 681.20703125 583.3515625 681.20703125 583.3515625 676.109375 c 2,145,-1
 583.3515625 665.916015625 l 2,146,147
 585.390625 618.009765625 585.390625 618.009765625 631.259765625 618.009765625 c 0,148,149
 672.032226562 618.009765625 672.032226562 618.009765625 678.147460938 658.78125 c 0,150,151
 679.166992188 661.83984375 679.166992188 661.83984375 682.224609375 662.859375 c 0,152,153
 685.283203125 662.859375 685.283203125 662.859375 686.302734375 659.80078125 c 2,154,-1
 690.379882812 642.47265625 l 1,155,156
 690.379882812 607.81640625 690.379882812 607.81640625 655.72265625 607.81640625 c 2,157,-1
 563.984375 607.81640625 l 1,158,-1
 565.00390625 608.8359375 l 1,137,138
578.254882812 512 m 2,159,160
 541.559570312 512 541.559570312 512 541.559570312 548.6953125 c 0,161,162
 541.559570312 586.41015625 541.559570312 586.41015625 578.254882812 586.41015625 c 2,163,-1
 682.224609375 586.41015625 l 2,164,165
 718.919921875 586.41015625 718.919921875 586.41015625 718.919921875 548.6953125 c 0,166,167
 718.919921875 512 718.919921875 512 682.224609375 512 c 2,168,-1
 578.254882812 512 l 2,159,160
631.259765625 642.47265625 m 128,-1,170
 605.776367188 642.47265625 605.776367188 642.47265625 604.756835938 667.955078125 c 2,171,-1
 604.756835938 864.68359375 l 2,172,173
 604.756835938 897.30078125 604.756835938 897.30078125 638.39453125 899.33984375 c 2,174,-1
 758.673828125 899.33984375 l 2,175,176
 837.161132812 899.33984375 837.161132812 899.33984375 894.2421875 842.2578125 c 128,-1,177
 951.32421875 785.17578125 951.32421875 785.17578125 951.32421875 706.689453125 c 0,178,179
 951.32421875 627.18359375 951.32421875 627.18359375 894.2421875 570.1015625 c 0,180,181
 838.1796875 514.0390625 838.1796875 514.0390625 758.673828125 514.0390625 c 1,182,-1
 733.190429688 512 l 1,183,-1
 729.11328125 514.0390625 l 1,184,-1
 729.11328125 518.115234375 l 1,185,186
 738.287109375 532.38671875 738.287109375 532.38671875 738.287109375 548.6953125 c 0,187,188
 738.287109375 587.4296875 738.287109375 587.4296875 702.611328125 602.71875 c 0,189,190
 699.553710938 602.71875 699.553710938 602.71875 699.553710938 605.77734375 c 2,191,-1
 699.553710938 609.853515625 l 1,192,193
 709.74609375 626.1640625 709.74609375 626.1640625 711.78515625 646.548828125 c 0,194,195
 709.74609375 680.1875 709.74609375 680.1875 681.206054688 695.4765625 c 1,196,-1
 679.166992188 699.5546875 l 1,197,-1
 679.166992188 740.326171875 l 1,198,-1
 681.206054688 744.404296875 l 1,199,-1
 684.263671875 744.404296875 l 1,200,201
 741.345703125 690.380859375 741.345703125 690.380859375 820.8515625 683.244140625 c 0,202,203
 830.025390625 683.244140625 830.025390625 683.244140625 831.044921875 693.4375 c 0,204,205
 831.044921875 697.515625 831.044921875 697.515625 827.987304688 701.591796875 c 0,206,207
 824.928710938 704.650390625 824.928710938 704.650390625 820.8515625 704.650390625 c 0,208,209
 734.209960938 715.86328125 734.209960938 715.86328125 677.12890625 784.15625 c 0,210,211
 674.0703125 788.234375 674.0703125 788.234375 668.973632812 788.234375 c 2,212,-1
 665.916015625 788.234375 l 2,213,214
 658.78125 785.17578125 658.78125 785.17578125 658.78125 778.041015625 c 2,215,-1
 658.78125 668.974609375 l 2,216,169
 656.7421875 642.47265625 656.7421875 642.47265625 631.259765625 642.47265625 c 128,-1,170
EndSplineSet
EndChar

StartChar: uniE01B
Encoding: 57371 57371 30
Width: 1024
VWidth: 1024
GlyphClass: 2
Flags: HW
LayerCount: 2
Fore
SplineSet
87.412109375 238.595703125 m 0,0,1
 66.560546875 293.044921875 66.560546875 293.044921875 66.560546875 344.01953125 c 0,2,3
 66.560546875 397.310546875 66.560546875 397.310546875 87.412109375 449.44140625 c 0,4,5
 152.2890625 612.7890625 152.2890625 612.7890625 328.37890625 616.263671875 c 1,6,-1
 366.609375 707.78515625 l 2,7,8
 370.083984375 715.89453125 370.083984375 715.89453125 379.353515625 721.6875 c 2,9,-1
 388.62109375 724.00390625 l 1,10,-1
 397.888671875 721.6875 l 1,11,-1
 460.447265625 698.517578125 l 1,12,13
 502.15234375 779.611328125 502.15234375 779.611328125 562.39453125 824.79296875 c 0,14,15
 627.26953125 872.291015625 627.26953125 872.291015625 701.4140625 872.291015625 c 0,16,17
 730.375 872.291015625 730.375 872.291015625 747.751953125 867.65625 c 1,18,-1
 733.8515625 925.58203125 l 2,19,20
 732.693359375 926.740234375 732.693359375 926.740234375 732.693359375 932.533203125 c 0,21,22
 732.693359375 940.642578125 732.693359375 940.642578125 737.326171875 945.275390625 c 0,23,24
 745.435546875 956.861328125 745.435546875 956.861328125 755.86328125 956.861328125 c 0,25,26
 761.654296875 956.861328125 761.654296875 956.861328125 770.921875 951.068359375 c 2,27,-1
 841.58984375 901.25390625 l 1,28,-1
 926.16015625 920.947265625 l 2,29,30
 928.478515625 922.10546875 928.478515625 922.10546875 934.26953125 922.10546875 c 0,31,32
 945.85546875 922.10546875 945.85546875 922.10546875 952.806640625 910.521484375 c 0,33,34
 957.439453125 905.88671875 957.439453125 905.88671875 957.439453125 898.935546875 c 0,35,36
 957.439453125 890.826171875 957.439453125 890.826171875 950.48828125 883.876953125 c 2,37,-1
 893.72265625 815.525390625 l 1,38,-1
 922.685546875 732.11328125 l 2,39,40
 923.84375 729.796875 923.84375 729.796875 923.84375 724.00390625 c 0,41,42
 923.84375 713.578125 923.84375 713.578125 913.41796875 704.310546875 c 0,43,44
 908.783203125 699.67578125 908.783203125 699.67578125 899.515625 699.67578125 c 2,45,-1
 885.61328125 704.310546875 l 1,46,-1
 811.470703125 756.44140625 l 1,47,-1
 730.375 730.955078125 l 2,48,49
 729.216796875 729.796875 729.216796875 729.796875 723.423828125 729.796875 c 0,50,51
 714.15625 729.796875 714.15625 729.796875 709.5234375 734.431640625 c 0,52,53
 697.9375 742.541015625 697.9375 742.541015625 697.9375 752.966796875 c 0,54,55
 697.9375 759.91796875 697.9375 759.91796875 704.888671875 769.185546875 c 2,56,-1
 741.9609375 819 l 1,57,58
 722.265625 822.4765625 722.265625 822.4765625 702.572265625 822.4765625 c 0,59,60
 636.537109375 822.4765625 636.537109375 822.4765625 580.9296875 777.294921875 c 0,61,62
 556.6015625 756.44140625 556.6015625 756.44140625 533.431640625 725.162109375 c 2,63,-1
 517.212890625 699.67578125 l 1,64,-1
 504.46875 677.6640625 l 1,65,-1
 565.869140625 653.3359375 l 2,66,67
 582.087890625 644.068359375 582.087890625 644.068359375 582.087890625 631.32421875 c 0,68,69
 582.087890625 630.166015625 582.087890625 630.166015625 579.771484375 620.8984375 c 2,70,-1
 541.541015625 528.21875 l 1,71,72
 577.455078125 488.830078125 577.455078125 488.830078125 594.83203125 445.966796875 c 0,73,74
 615.685546875 393.833984375 615.685546875 393.833984375 615.685546875 341.701171875 c 0,75,76
 615.685546875 287.25390625 615.685546875 287.25390625 593.673828125 236.279296875 c 0,77,78
 549.650390625 130.857421875 549.650390625 130.857421875 444.228515625 87.9921875 c 0,79,80
 393.25390625 67.138671875 393.25390625 67.138671875 342.28125 67.138671875 c 128,-1,81
 291.306640625 67.138671875 291.306640625 67.138671875 234.541015625 90.30859375 c 0,82,83
 130.27734375 134.33203125 130.27734375 134.33203125 87.412109375 238.595703125 c 0,0,1
165.03125 396.150390625 m 1,84,-1
 162.71484375 384.56640625 l 2,85,86
 162.71484375 370.6640625 162.71484375 370.6640625 178.93359375 364.87109375 c 1,87,-1
 188.201171875 364.87109375 l 2,88,89
 206.73828125 364.87109375 206.73828125 364.87109375 211.37109375 379.931640625 c 1,90,-1
 210.212890625 379.931640625 l 1,91,92
 249.6015625 473.76953125 249.6015625 473.76953125 349.232421875 473.76953125 c 2,93,-1
 353.865234375 473.76953125 l 2,94,95
 377.03515625 473.76953125 377.03515625 473.76953125 379.353515625 496.939453125 c 0,96,97
 379.353515625 521.267578125 379.353515625 521.267578125 355.0234375 522.42578125 c 2,98,-1
 345.755859375 522.42578125 l 2,99,100
 216.005859375 522.42578125 216.005859375 522.42578125 165.03125 398.46875 c 1,101,-1
 165.03125 396.150390625 l 1,84,-1
EndSplineSet
EndChar

StartChar: uniE01C
Encoding: 57372 57372 31
Width: 1024
VWidth: 1024
GlyphClass: 2
Flags: HW
LayerCount: 2
Fore
SplineSet
82.6484375 440.107421875 m 2,0,1
 66.560546875 440.107421875 66.560546875 440.107421875 66.560546875 456.1953125 c 128,-1,2
 66.560546875 472.283203125 66.560546875 472.283203125 82.6484375 472.283203125 c 2,3,-1
 149.01171875 472.283203125 l 1,4,-1
 149.01171875 821.193359375 l 2,5,6
 149.01171875 837.28125 149.01171875 837.28125 165.099609375 837.28125 c 2,7,-1
 858.900390625 837.28125 l 2,8,9
 874.98828125 837.28125 874.98828125 837.28125 874.98828125 821.193359375 c 2,10,-1
 874.98828125 472.283203125 l 1,11,-1
 941.3515625 472.283203125 l 2,12,13
 957.439453125 472.283203125 957.439453125 472.283203125 957.439453125 456.1953125 c 128,-1,14
 957.439453125 440.107421875 957.439453125 440.107421875 941.3515625 440.107421875 c 2,15,-1
 833.763671875 440.107421875 l 2,16,17
 817.673828125 440.107421875 817.673828125 440.107421875 817.673828125 456.1953125 c 128,-1,18
 817.673828125 472.283203125 817.673828125 472.283203125 833.763671875 472.283203125 c 2,19,-1
 842.8125 472.283203125 l 1,20,-1
 842.8125 805.10546875 l 1,21,-1
 181.1875 805.10546875 l 1,22,-1
 181.1875 472.283203125 l 1,23,-1
 184.205078125 472.283203125 l 2,24,25
 200.29296875 472.283203125 200.29296875 472.283203125 200.29296875 456.1953125 c 128,-1,26
 200.29296875 440.107421875 200.29296875 440.107421875 184.205078125 440.107421875 c 2,27,-1
 82.6484375 440.107421875 l 2,0,1
283.75 323.466796875 m 0,28,29
 253.583984375 376.759765625 253.583984375 376.759765625 249.5625 438.095703125 c 1,30,-1
 249.5625 456.1953125 l 2,31,32
 250.568359375 554.734375 250.568359375 554.734375 313.916015625 630.1484375 c 128,-1,33
 377.26171875 705.560546875 377.26171875 705.560546875 473.791015625 723.66015625 c 1,34,-1
 521.048828125 723.66015625 l 2,35,36
 702.041015625 723.66015625 702.041015625 723.66015625 769.41015625 556.74609375 c 0,37,38
 789.51953125 505.46484375 789.51953125 505.46484375 789.51953125 456.1953125 c 0,39,40
 789.51953125 344.583984375 789.51953125 344.583984375 710.0859375 266.154296875 c 0,41,42
 631.65625 187.724609375 631.65625 187.724609375 521.048828125 186.71875 c 0,43,44
 362.1796875 186.71875 362.1796875 186.71875 283.75 323.466796875 c 0,28,29
263.640625 474.29296875 m 1,45,-1
 263.640625 440.107421875 l 1,46,47
 274.701171875 476.3046875 274.701171875 476.3046875 294.810546875 512.50390625 c 1,48,-1
 340.05859375 496.4140625 l 2,49,50
 342.0703125 495.41015625 342.0703125 495.41015625 359.162109375 450.162109375 c 2,51,-1
 372.234375 415.974609375 l 2,52,53
 373.240234375 412.95703125 373.240234375 412.95703125 376.255859375 406.923828125 c 128,-1,54
 379.2734375 400.892578125 379.2734375 400.892578125 380.279296875 397.875 c 128,-1,55
 381.28515625 394.859375 381.28515625 394.859375 382.79296875 392.345703125 c 128,-1,56
 384.30078125 389.83203125 384.30078125 389.83203125 385.306640625 388.826171875 c 2,57,-1
 385.306640625 386.814453125 l 1,58,59
 369.21875 351.62109375 369.21875 351.62109375 363.185546875 310.396484375 c 1,60,-1
 328.998046875 314.41796875 l 1,61,-1
 308.88671875 321.45703125 l 1,62,-1
 290.7890625 332.517578125 l 1,63,-1
 305.87109375 312.40625 l 1,64,65
 340.05859375 301.345703125 340.05859375 301.345703125 369.21875 298.330078125 c 1,66,67
 403.40625 261.126953125 403.40625 261.126953125 449.658203125 241.015625 c 1,68,-1
 449.658203125 204.818359375 l 1,69,-1
 462.73046875 201.80078125 l 1,70,-1
 456.697265625 241.015625 l 1,71,72
 494.90625 250.06640625 494.90625 250.06640625 524.06640625 276.208984375 c 1,73,74
 575.34765625 270.17578125 575.34765625 270.17578125 626.62890625 270.17578125 c 2,75,-1
 640.705078125 270.17578125 l 1,76,-1
 649.75390625 235.98828125 l 1,77,78
 728.18359375 282.2421875 728.18359375 282.2421875 759.35546875 364.693359375 c 1,79,-1
 716.119140625 364.693359375 l 1,80,81
 711.08984375 384.802734375 711.08984375 384.802734375 691.986328125 427.03515625 c 2,82,-1
 685.953125 441.111328125 l 1,83,-1
 679.919921875 454.18359375 l 2,84,85
 673.88671875 466.25 673.88671875 466.25 673.88671875 467.255859375 c 0,86,87
 690.98046875 508.48046875 690.98046875 508.48046875 691.986328125 553.728515625 c 1,88,-1
 759.35546875 553.728515625 l 1,89,-1
 756.337890625 558.755859375 l 1,90,-1
 754.328125 564.7890625 l 1,91,-1
 689.974609375 564.7890625 l 1,92,93
 653.77734375 597.970703125 653.77734375 597.970703125 615.568359375 618.08203125 c 1,94,95
 605.51171875 658.30078125 605.51171875 658.30078125 584.396484375 692.48828125 c 1,96,-1
 606.517578125 696.51171875 l 1,97,98
 570.3203125 712.599609375 570.3203125 712.599609375 526.078125 712.599609375 c 2,99,-1
 486.86328125 712.599609375 l 1,100,101
 504.9609375 710.587890625 504.9609375 710.587890625 536.1328125 703.548828125 c 2,102,-1
 558.25390625 698.521484375 l 2,103,104
 572.330078125 695.505859375 572.330078125 695.505859375 573.3359375 694.5 c 0,105,106
 595.45703125 655.28515625 595.45703125 655.28515625 602.49609375 620.091796875 c 1,107,108
 561.26953125 605.009765625 561.26953125 605.009765625 530.099609375 573.83984375 c 1,109,110
 472.78515625 589.927734375 472.78515625 589.927734375 413.4609375 591.9375 c 1,111,-1
 409.4375 602.998046875 l 1,112,-1
 403.40625 617.076171875 l 2,113,114
 399.3828125 627.130859375 399.3828125 627.130859375 393.349609375 645.23046875 c 0,115,116
 396.3671875 648.24609375 396.3671875 648.24609375 399.3828125 650.2578125 c 0,117,118
 400.388671875 652.26953125 400.388671875 652.26953125 402.400390625 654.279296875 c 128,-1,119
 404.41015625 656.291015625 404.41015625 656.291015625 407.9296875 659.306640625 c 128,-1,120
 411.44921875 662.32421875 411.44921875 662.32421875 413.4609375 664.333984375 c 0,121,122
 414.466796875 665.33984375 414.466796875 665.33984375 433.5703125 681.427734375 c 2,123,-1
 478.818359375 714.609375 l 1,124,-1
 463.736328125 712.599609375 l 1,125,-1
 449.658203125 708.576171875 l 1,126,127
 412.455078125 680.423828125 412.455078125 680.423828125 383.294921875 649.251953125 c 1,128,129
 340.05859375 636.1796875 340.05859375 636.1796875 311.904296875 601.994140625 c 0,130,131
 289.783203125 570.822265625 289.783203125 570.822265625 289.783203125 529.59765625 c 2,132,-1
 289.783203125 523.564453125 l 1,133,-1
 287.771484375 523.564453125 l 1,134,-1
 263.640625 474.29296875 l 1,45,-1
398.376953125 390.8359375 m 1,135,136
 375.251953125 441.111328125 375.251953125 441.111328125 355.140625 500.4375 c 1,137,-1
 413.4609375 576.85546875 l 1,138,139
 474.796875 575.849609375 474.796875 575.849609375 532.111328125 558.755859375 c 1,140,141
 554.232421875 510.4921875 554.232421875 510.4921875 566.296875 469.265625 c 1,142,-1
 558.25390625 458.205078125 l 1,143,-1
 548.19921875 445.134765625 l 1,144,-1
 529.09375 418.990234375 l 1,145,-1
 494.90625 374.748046875 l 2,146,147
 489.87890625 374.748046875 489.87890625 374.748046875 444.630859375 381.787109375 c 0,148,149
 415.470703125 385.80859375 415.470703125 385.80859375 398.376953125 390.8359375 c 1,135,136
507.978515625 350.6171875 m 2,150,151
 501.9453125 367.708984375 501.9453125 367.708984375 500.939453125 368.71484375 c 0,152,153
 510.994140625 379.775390625 510.994140625 379.775390625 538.142578125 415.974609375 c 2,154,-1
 557.248046875 442.1171875 l 2,155,156
 558.25390625 444.12890625 558.25390625 444.12890625 560.767578125 446.642578125 c 128,-1,157
 563.28125 449.15625 563.28125 449.15625 564.287109375 451.16796875 c 0,158,159
 566.296875 453.177734375 566.296875 453.177734375 570.3203125 459.2109375 c 0,160,161
 571.32421875 461.22265625 571.32421875 461.22265625 573.3359375 463.232421875 c 2,162,-1
 662.826171875 458.205078125 l 1,163,164
 688.96875 408.935546875 688.96875 408.935546875 705.05859375 354.638671875 c 1,165,166
 697.013671875 344.583984375 697.013671875 344.583984375 677.908203125 318.439453125 c 0,167,168
 667.853515625 306.373046875 667.853515625 306.373046875 646.73828125 281.236328125 c 1,169,-1
 632.662109375 281.236328125 l 2,170,171
 581.380859375 281.236328125 581.380859375 281.236328125 530.099609375 287.26953125 c 0,172,173
 528.087890625 290.28515625 528.087890625 290.28515625 527.08203125 296.318359375 c 0,174,175
 527.08203125 297.32421875 527.08203125 297.32421875 525.072265625 302.3515625 c 128,-1,176
 523.060546875 307.37890625 523.060546875 307.37890625 522.0546875 310.396484375 c 2,177,-1
 516.021484375 328.49609375 l 1,178,-1
 507.978515625 350.6171875 l 2,150,151
EndSplineSet
EndChar

StartChar: uniE01D
Encoding: 57373 57373 32
Width: 1024
VWidth: 1024
GlyphClass: 2
Flags: HW
LayerCount: 2
Fore
SplineSet
73.8359375 606.59765625 m 2,0,1
 66.560546875 620.111328125 66.560546875 620.111328125 66.560546875 632.5859375 c 0,2,3
 66.560546875 655.455078125 66.560546875 655.455078125 94.626953125 670.008789062 c 2,4,-1
 196.501953125 723.025390625 l 1,5,-1
 260.953125 353.991210938 l 1,6,-1
 260.953125 325.923828125 l 1,7,-1
 265.111328125 309.291015625 l 1,8,-1
 260.953125 292.658203125 l 1,9,-1
 260.953125 247.958007812 l 1,10,-1
 261.9921875 251.077148438 l 1,11,-1
 261.9921875 240.681640625 l 1,12,-1
 73.8359375 606.59765625 l 2,0,1
230.806640625 738.618164062 m 2,13,14
 229.767578125 741.736328125 229.767578125 741.736328125 229.767578125 752.131835938 c 0,15,16
 229.767578125 786.436523438 229.767578125 786.436523438 268.23046875 792.673828125 c 2,17,-1
 394.013671875 815.543945312 l 1,18,19
 386.736328125 802.029296875 386.736328125 802.029296875 385.697265625 785.397460938 c 2,20,-1
 362.826171875 527.592773438 l 1,21,22
 312.9296875 518.237304688 312.9296875 518.237304688 276.544921875 483.932617188 c 1,23,-1
 230.806640625 738.618164062 l 2,13,14
426.23828125 199.100585938 m 0,24,25
 356.58984375 199.100585938 356.58984375 199.100585938 298.376953125 247.958007812 c 1,26,-1
 298.376953125 292.658203125 l 1,27,28
 356.58984375 246.918945312 356.58984375 246.918945312 424.16015625 246.918945312 c 0,29,30
 440.79296875 246.918945312 440.79296875 246.918945312 445.990234375 247.958007812 c 0,31,32
 451.1875 246.918945312 451.1875 246.918945312 466.78125 246.918945312 c 0,33,34
 539.546875 246.918945312 539.546875 246.918945312 594.642578125 296.81640625 c 1,35,-1
 594.642578125 248.998046875 l 1,36,37
 561.376953125 200.139648438 561.376953125 200.139648438 445.990234375 200.139648438 c 0,38,39
 441.83203125 199.100585938 441.83203125 199.100585938 426.23828125 199.100585938 c 0,24,25
424.16015625 277.065429688 m 0,40,41
 352.431640625 277.065429688 352.431640625 277.065429688 298.376953125 324.883789062 c 1,42,-1
 298.376953125 369.583984375 l 1,43,44
 356.58984375 320.725585938 356.58984375 320.725585938 427.27734375 320.725585938 c 0,45,46
 441.83203125 320.725585938 441.83203125 320.725585938 445.990234375 321.765625 c 0,47,48
 451.1875 320.725585938 451.1875 320.725585938 467.8203125 320.725585938 c 0,49,50
 541.626953125 320.725585938 541.626953125 320.725585938 595.681640625 370.623046875 c 1,51,-1
 595.681640625 325.923828125 l 1,52,53
 537.46875 277.065429688 537.46875 277.065429688 467.8203125 277.065429688 c 0,54,55
 451.1875 277.065429688 451.1875 277.065429688 445.990234375 278.104492188 c 0,56,57
 440.79296875 277.065429688 440.79296875 277.065429688 424.16015625 277.065429688 c 0,40,41
426.23828125 355.030273438 m 0,58,59
 352.431640625 355.030273438 352.431640625 355.030273438 298.376953125 402.848632812 c 1,60,-1
 298.376953125 447.548828125 l 1,61,62
 356.58984375 496.407226562 356.58984375 496.407226562 426.23828125 496.407226562 c 0,63,64
 441.83203125 496.407226562 441.83203125 496.407226562 445.990234375 495.3671875 c 0,65,66
 451.1875 496.407226562 451.1875 496.407226562 466.78125 496.407226562 c 0,67,68
 539.546875 496.407226562 539.546875 496.407226562 594.642578125 446.508789062 c 1,69,-1
 594.642578125 404.927734375 l 1,70,71
 561.376953125 356.0703125 561.376953125 356.0703125 445.990234375 356.0703125 c 0,72,73
 440.79296875 355.030273438 440.79296875 355.030273438 426.23828125 355.030273438 c 0,58,59
427.27734375 536.948242188 m 0,74,75
 425.19921875 536.948242188 425.19921875 536.948242188 400.25 534.869140625 c 1,76,-1
 424.16015625 780.19921875 l 2,77,78
 425.19921875 824.899414062 425.19921875 824.899414062 470.939453125 824.899414062 c 2,79,-1
 473.017578125 824.899414062 l 1,80,-1
 579.05078125 815.543945312 l 1,81,-1
 569.693359375 796.83203125 l 1,82,-1
 475.095703125 535.909179688 l 1,83,-1
 445.990234375 535.909179688 l 2,84,85
 441.83203125 536.948242188 441.83203125 536.948242188 427.27734375 536.948242188 c 0,74,75
624.7890625 475.616210938 m 0,86,87
 580.08984375 526.553710938 580.08984375 526.553710938 512.51953125 532.790039062 c 1,88,-1
 603.998046875 785.397460938 l 2,89,90
 616.47265625 817.623046875 616.47265625 817.623046875 643.501953125 817.623046875 c 0,91,92
 655.974609375 817.623046875 655.974609375 817.623046875 664.291015625 813.46484375 c 2,93,-1
 925.21484375 717.827148438 l 2,94,95
 957.439453125 707.431640625 957.439453125 707.431640625 957.439453125 679.364257812 c 0,96,97
 957.439453125 666.890625 957.439453125 666.890625 953.28125 658.57421875 c 1,98,-1
 953.28125 656.495117188 l 1,99,-1
 810.865234375 263.551757812 l 2,100,101
 798.390625 231.326171875 798.390625 231.326171875 771.36328125 231.326171875 c 0,102,103
 758.888671875 231.326171875 758.888671875 231.326171875 750.572265625 235.484375 c 2,104,-1
 632.06640625 280.18359375 l 1,105,-1
 632.06640625 296.81640625 l 1,106,-1
 628.947265625 314.48828125 l 1,107,-1
 632.06640625 331.12109375 l 1,108,-1
 632.06640625 375.821289062 l 1,109,-1
 628.947265625 392.453125 l 1,110,111
 632.06640625 398.690429688 632.06640625 398.690429688 632.06640625 405.967773438 c 2,112,-1
 632.06640625 453.786132812 l 2,113,114
 632.06640625 468.33984375 632.06640625 468.33984375 624.7890625 475.616210938 c 0,86,87
624.7890625 609.715820312 m 0,115,116
 622.7109375 595.162109375 622.7109375 595.162109375 622.7109375 593.083007812 c 128,-1,117
 622.7109375 591.00390625 622.7109375 591.00390625 624.7890625 576.451171875 c 0,118,119
 644.541015625 525.513671875 644.541015625 525.513671875 681.962890625 443.390625 c 1,120,121
 791.115234375 493.288085938 791.115234375 493.288085938 811.90625 504.72265625 c 0,122,123
 839.97265625 523.434570312 839.97265625 523.434570312 839.97265625 548.383789062 c 0,124,125
 839.97265625 567.094726562 839.97265625 567.094726562 826.458984375 583.727539062 c 0,126,127
 818.142578125 595.162109375 818.142578125 595.162109375 805.66796875 602.439453125 c 0,128,129
 792.154296875 608.676757812 792.154296875 608.676757812 778.640625 608.676757812 c 0,130,131
 756.810546875 608.676757812 756.810546875 608.676757812 738.09765625 593.083007812 c 1,132,133
 730.822265625 632.5859375 730.822265625 632.5859375 694.4375 647.139648438 c 0,134,135
 685.08203125 651.296875 685.08203125 651.296875 671.568359375 651.296875 c 0,136,137
 637.263671875 651.296875 637.263671875 651.296875 624.7890625 609.715820312 c 0,115,116
EndSplineSet
EndChar

StartChar: uniE01E
Encoding: 57374 57374 33
Width: 1024
VWidth: 1024
GlyphClass: 2
Flags: HW
LayerCount: 2
Fore
SplineSet
285.88671875 595.552734375 m 2,0,-1
 285.88671875 584.064453125 l 2,1,2
 285.88671875 527.666015625 285.88671875 527.666015625 294.2421875 455.6015625 c 1,3,4
 225.310546875 463.95703125 225.310546875 463.95703125 173.08984375 463.95703125 c 2,5,-1
 113.55859375 463.95703125 l 1,6,-1
 66.560546875 546.46484375 l 1,7,-1
 66.560546875 623.751953125 l 1,8,-1
 113.55859375 705.21484375 l 1,9,-1
 174.134765625 705.21484375 l 2,10,11
 226.35546875 705.21484375 226.35546875 705.21484375 295.28515625 713.5703125 c 1,12,13
 285.88671875 654.0390625 285.88671875 654.0390625 285.88671875 595.552734375 c 2,0,-1
387.193359375 399.203125 m 1,14,-1
 497.900390625 200.765625 l 1,15,-1
 497.900390625 197.6328125 l 2,16,17
 497.900390625 195.544921875 497.900390625 195.544921875 498.423828125 192.412109375 c 128,-1,18
 498.9453125 189.27734375 498.9453125 189.27734375 499.466796875 187.7109375 c 128,-1,19
 499.990234375 186.14453125 499.990234375 186.14453125 499.990234375 185.099609375 c 0,20,21
 499.990234375 172.568359375 499.990234375 172.568359375 483.279296875 165.255859375 c 2,22,-1
 379.8828125 123.48046875 l 1,23,-1
 376.75 123.48046875 l 2,24,25
 374.66015625 122.435546875 374.66015625 122.435546875 368.39453125 122.435546875 c 0,26,27
 353.7734375 122.435546875 353.7734375 122.435546875 347.505859375 141.234375 c 2,28,-1
 276.486328125 421.13671875 l 1,29,-1
 387.193359375 399.203125 l 1,14,-1
843.599609375 901.564453125 m 2,30,31
 891.642578125 899.474609375 891.642578125 899.474609375 924.01953125 808.611328125 c 0,32,33
 957.439453125 720.880859375 957.439453125 720.880859375 957.439453125 584.064453125 c 0,34,35
 957.439453125 449.3359375 957.439453125 449.3359375 924.01953125 361.60546875 c 0,36,37
 889.5546875 269.697265625 889.5546875 269.697265625 844.64453125 269.697265625 c 2,38,-1
 773.625 269.697265625 l 1,39,40
 587.720703125 398.16015625 587.720703125 398.16015625 360.0390625 447.24609375 c 1,41,42
 347.505859375 520.35546875 347.505859375 520.35546875 347.505859375 586.15234375 c 2,43,-1
 347.505859375 596.59765625 l 2,44,45
 347.505859375 658.216796875 347.505859375 658.216796875 360.0390625 725.05859375 c 1,46,47
 583.54296875 772.05859375 583.54296875 772.05859375 773.625 901.564453125 c 1,48,-1
 843.599609375 901.564453125 l 2,30,31
868.666015625 383.537109375 m 0,49,50
 899.998046875 476.490234375 899.998046875 476.490234375 899.998046875 568.3984375 c 2,51,-1
 899.998046875 609.130859375 l 2,52,53
 899.998046875 698.94921875 899.998046875 698.94921875 870.75390625 785.634765625 c 0,54,55
 861.35546875 816.966796875 861.35546875 816.966796875 840.466796875 840.98828125 c 2,56,-1
 831.06640625 849.34375 l 2,57,58
 825.845703125 853.521484375 825.845703125 853.521484375 818.533203125 853.521484375 c 0,59,60
 814.35546875 853.521484375 814.35546875 853.521484375 807.044921875 849.34375 c 2,61,-1
 797.646484375 840.98828125 l 1,62,63
 778.845703125 816.966796875 778.845703125 816.966796875 766.314453125 786.6796875 c 0,64,65
 734.98046875 692.68359375 734.98046875 692.68359375 734.98046875 597.640625 c 2,66,-1
 734.98046875 572.576171875 l 2,67,68
 734.98046875 478.578125 734.98046875 478.578125 766.314453125 383.537109375 c 0,69,70
 778.845703125 351.162109375 778.845703125 351.162109375 797.646484375 328.18359375 c 1,71,-1
 807.044921875 319.828125 l 2,72,73
 811.22265625 315.650390625 811.22265625 315.650390625 817.490234375 315.650390625 c 0,74,75
 832.111328125 317.740234375 832.111328125 317.740234375 839.421875 328.18359375 c 0,76,77
 858.220703125 352.205078125 858.220703125 352.205078125 868.666015625 383.537109375 c 0,49,50
818.533203125 687.4609375 m 2,78,79
 824.80078125 687.4609375 824.80078125 687.4609375 827.93359375 683.283203125 c 0,80,81
 836.2890625 666.572265625 836.2890625 666.572265625 838.376953125 661.349609375 c 0,82,83
 849.8671875 630.017578125 849.8671875 630.017578125 849.8671875 590.330078125 c 2,84,-1
 849.8671875 577.796875 l 2,85,86
 849.8671875 538.109375 849.8671875 538.109375 839.421875 506.77734375 c 1,87,-1
 827.93359375 484.845703125 l 1,88,-1
 819.578125 480.66796875 l 1,89,-1
 811.22265625 484.845703125 l 1,90,-1
 799.734375 506.77734375 l 1,91,92
 788.24609375 541.244140625 788.24609375 541.244140625 788.24609375 577.796875 c 2,93,-1
 788.24609375 591.375 l 2,94,95
 788.24609375 628.974609375 788.24609375 628.974609375 799.734375 661.349609375 c 1,96,-1
 811.22265625 683.283203125 l 1,97,-1
 814.35546875 685.37109375 l 1,98,-1
 818.533203125 687.4609375 l 2,78,79
EndSplineSet
EndChar

StartChar: uniE01F
Encoding: 57375 57375 34
Width: 1024
VWidth: 1024
GlyphClass: 2
Flags: HW
LayerCount: 2
Fore
SplineSet
190.84375 189.80078125 m 128,-1,1
 67.603515625 313.041015625 67.603515625 313.041015625 66.560546875 488.5 c 0,2,3
 66.560546875 665.005859375 66.560546875 665.005859375 189.80078125 788.24609375 c 0,4,5
 314.083984375 912.529296875 314.083984375 912.529296875 488.5 912.529296875 c 1,6,-1
 488.5 488.5 l 1,7,-1
 912.529296875 488.5 l 1,8,9
 912.529296875 315.12890625 912.529296875 315.12890625 788.24609375 190.84375 c 0,10,11
 665.005859375 67.603515625 665.005859375 67.603515625 490.58984375 66.560546875 c 0,12,0
 314.083984375 66.560546875 314.083984375 66.560546875 190.84375 189.80078125 c 128,-1,1
957.439453125 534.455078125 m 1,13,-1
 534.455078125 534.455078125 l 1,14,-1
 534.455078125 957.439453125 l 1,15,16
 708.87109375 957.439453125 708.87109375 957.439453125 833.154296875 833.154296875 c 128,-1,17
 957.439453125 708.87109375 957.439453125 708.87109375 957.439453125 534.455078125 c 1,13,-1
EndSplineSet
EndChar

StartChar: uniE020
Encoding: 57376 57376 35
Width: 1024
VWidth: 1024
GlyphClass: 2
Flags: HW
LayerCount: 2
Fore
SplineSet
146.885742188 135.41015625 m 2,0,1
 120.805664062 135.41015625 120.805664062 135.41015625 120.805664062 162.533203125 c 2,2,-1
 120.805664062 166.705078125 l 2,3,4
 120.805664062 177.13671875 120.805664062 177.13671875 129.151367188 185.482421875 c 2,5,-1
 382.645507812 394.119140625 l 1,6,-1
 382.645507812 741.5 l 1,7,-1
 443.150390625 912.58203125 l 1,8,9
 465.056640625 954.310546875 465.056640625 954.310546875 512 957.439453125 c 1,10,11
 557.900390625 950.13671875 557.900390625 950.13671875 580.850585938 910.49609375 c 1,12,-1
 641.35546875 741.5 l 1,13,-1
 641.35546875 396.20703125 l 1,14,-1
 894.849609375 187.5703125 l 2,15,16
 903.194335938 176.09375 903.194335938 176.09375 903.194335938 165.662109375 c 128,-1,17
 903.194335938 155.23046875 903.194335938 155.23046875 895.892578125 144.798828125 c 0,18,19
 891.719726562 135.41015625 891.719726562 135.41015625 875.028320312 135.41015625 c 2,20,-1
 677.8671875 135.41015625 l 1,21,-1
 604.84375 283.54296875 l 2,22,23
 592.325195312 306.4921875 592.325195312 306.4921875 566.24609375 309.62109375 c 2,24,-1
 445.236328125 309.62109375 l 2,25,26
 418.11328125 308.578125 418.11328125 308.578125 406.638671875 283.54296875 c 2,27,-1
 333.616210938 135.41015625 l 1,28,-1
 146.885742188 135.41015625 l 2,0,1
344.047851562 445.236328125 m 1,29,-1
 169.8359375 297.103515625 l 1,30,-1
 169.8359375 700.81640625 l 1,31,32
 185.483398438 771.75390625 185.483398438 771.75390625 245.98828125 771.75390625 c 0,33,34
 263.72265625 771.75390625 263.72265625 771.75390625 276.240234375 767.580078125 c 0,35,36
 331.529296875 755.0625 331.529296875 755.0625 344.047851562 700.81640625 c 1,37,-1
 344.047851562 445.236328125 l 1,29,-1
436.890625 66.560546875 m 2,38,39
 399.3359375 66.560546875 399.3359375 66.560546875 396.20703125 106.201171875 c 2,40,-1
 396.20703125 113.50390625 l 2,41,42
 396.20703125 120.8046875 396.20703125 120.8046875 399.3359375 127.064453125 c 2,43,-1
 451.49609375 257.462890625 l 2,44,45
 462.970703125 281.455078125 462.970703125 281.455078125 490.09375 283.54296875 c 2,46,-1
 521.388671875 283.54296875 l 2,47,48
 547.46875 283.54296875 547.46875 283.54296875 554.770507812 257.462890625 c 2,49,-1
 605.88671875 128.107421875 l 2,50,51
 609.016601562 118.71875 609.016601562 118.71875 609.016601562 110.373046875 c 0,52,53
 609.016601562 85.337890625 609.016601562 85.337890625 581.893554688 72.818359375 c 1,54,-1
 578.764648438 72.818359375 l 1,55,-1
 562.073242188 69.689453125 l 1,56,-1
 441.063476562 69.689453125 l 1,57,-1
 441.063476562 66.560546875 l 1,58,-1
 436.890625 66.560546875 l 2,38,39
507.827148438 875.02734375 m 1,59,-1
 464.013671875 743.587890625 l 1,60,-1
 550.598632812 743.587890625 l 1,61,-1
 507.827148438 875.02734375 l 1,59,-1
848.94921875 302.3203125 m 1,62,-1
 673.694335938 448.365234375 l 1,63,-1
 673.694335938 706.033203125 l 1,64,65
 677.8671875 788.443359375 677.8671875 788.443359375 760.278320312 790.53125 c 2,66,-1
 769.666992188 790.53125 l 2,67,68
 844.776367188 790.53125 844.776367188 790.53125 848.94921875 711.248046875 c 1,69,-1
 848.94921875 302.3203125 l 1,62,-1
EndSplineSet
EndChar

StartChar: uniE021
Encoding: 57377 57377 36
Width: 1024
VWidth: 1024
GlyphClass: 2
Flags: HW
LayerCount: 2
Fore
SplineSet
93.71484375 172.568359375 m 0,0,1
 66.560546875 202.85546875 66.560546875 202.85546875 66.560546875 227.921875 c 0,2,3
 66.560546875 254.03125 66.560546875 254.03125 93.71484375 283.275390625 c 2,4,-1
 370.482421875 560.04296875 l 1,5,-1
 481.189453125 449.3359375 l 1,6,-1
 203.376953125 172.568359375 l 2,7,8
 180.400390625 149.58984375 180.400390625 149.58984375 149.068359375 149.58984375 c 0,9,10
 116.69140625 149.58984375 116.69140625 149.58984375 93.71484375 172.568359375 c 0,0,1
240.9765625 689.548828125 m 2,11,12
 232.62109375 699.994140625 232.62109375 699.994140625 232.62109375 706.259765625 c 0,13,14
 232.62109375 714.615234375 232.62109375 714.615234375 240.9765625 725.05859375 c 2,15,-1
 462.390625 946.474609375 l 2,16,17
 471.791015625 955.873046875 471.791015625 955.873046875 481.189453125 955.873046875 c 128,-1,18
 490.58984375 955.873046875 490.58984375 955.873046875 499.990234375 946.474609375 c 2,19,-1
 536.54296875 909.919921875 l 2,20,21
 544.8984375 901.564453125 544.8984375 901.564453125 544.8984375 892.1640625 c 128,-1,22
 544.8984375 882.765625 544.8984375 882.765625 536.54296875 874.41015625 c 2,23,-1
 315.12890625 651.951171875 l 2,24,25
 306.7734375 643.595703125 306.7734375 643.595703125 297.375 643.595703125 c 128,-1,26
 287.974609375 643.595703125 287.974609375 643.595703125 278.57421875 651.951171875 c 2,27,-1
 240.9765625 689.548828125 l 2,11,12
554.298828125 449.3359375 m 1,28,-1
 369.439453125 634.1953125 l 1,29,-1
 554.298828125 818.01171875 l 1,30,-1
 738.115234375 633.15234375 l 1,31,-1
 554.298828125 449.3359375 l 1,28,-1
514.611328125 68.126953125 m 2,32,33
 488.501953125 68.126953125 488.501953125 68.126953125 488.501953125 95.28125 c 2,34,-1
 488.501953125 198.677734375 l 2,35,36
 488.501953125 224.787109375 488.501953125 224.787109375 514.611328125 224.787109375 c 2,37,-1
 930.28515625 224.787109375 l 2,38,39
 957.439453125 224.787109375 957.439453125 224.787109375 957.439453125 198.677734375 c 2,40,-1
 957.439453125 95.28125 l 2,41,42
 957.439453125 68.126953125 957.439453125 68.126953125 931.330078125 68.126953125 c 2,43,-1
 514.611328125 68.126953125 l 2,32,33
573.09765625 356.3828125 m 2,44,45
 563.69921875 365.783203125 563.69921875 365.783203125 563.69921875 375.18359375 c 128,-1,46
 563.69921875 384.58203125 563.69921875 384.58203125 573.09765625 392.9375 c 2,47,-1
 794.51171875 615.396484375 l 2,48,49
 803.912109375 624.796875 803.912109375 624.796875 813.3125 624.796875 c 128,-1,50
 822.7109375 624.796875 822.7109375 624.796875 832.111328125 615.396484375 c 1,51,-1
 831.06640625 615.396484375 l 1,52,-1
 868.666015625 577.796875 l 2,53,54
 878.064453125 570.486328125 878.064453125 570.486328125 878.064453125 560.04296875 c 0,55,56
 878.064453125 550.642578125 878.064453125 550.642578125 868.666015625 541.244140625 c 2,57,-1
 647.251953125 320.873046875 l 2,58,59
 637.8515625 310.4296875 637.8515625 310.4296875 628.451171875 310.4296875 c 128,-1,60
 619.052734375 310.4296875 619.052734375 310.4296875 611.7421875 318.78515625 c 2,61,-1
 610.697265625 320.873046875 l 1,62,-1
 573.09765625 356.3828125 l 2,44,45
EndSplineSet
EndChar

